<svg id="레이어_1" data-name="레이어 1" xmlns="http://www.w3.org/2000/svg" xmlns:xlink="http://www.w3.org/1999/xlink" viewBox="0 0 150 77.42"><defs><style>.cls-1{fill:#fff;}.cls-2{fill:url(#무제_그라디언트_51);}.cls-3{fill:url(#무제_그라디언트_51-2);}.cls-4{fill:url(#무제_그라디언트_51-3);}.cls-5{fill:url(#무제_그라디언트_51-4);}.cls-6{fill:#eceaea;}.cls-7{fill:url(#무제_그라디언트_19);}.cls-8{fill:url(#무제_그라디언트_19-2);}.cls-9{fill:url(#무제_그라디언트_13);}.cls-10{fill:url(#무제_그라디언트_13-2);}.cls-11{fill:url(#무제_그라디언트_13-3);}.cls-12{fill:url(#무제_그라디언트_19-3);}.cls-13{fill:url(#무제_그라디언트_19-4);}.cls-14{fill:url(#무제_그라디언트_13-4);}.cls-15{fill:url(#무제_그라디언트_13-5);}.cls-16{fill:url(#무제_그라디언트_14);}.cls-17{fill:url(#무제_그라디언트_19-5);}.cls-18{fill:url(#무제_그라디언트_22);}.cls-19{fill:url(#무제_그라디언트_118);}.cls-20{fill:url(#무제_그라디언트_118-2);}.cls-21{fill:url(#무제_그라디언트_118-3);}.cls-22{fill:url(#무제_그라디언트_118-4);}.cls-23{fill:#e66b44;}</style><linearGradient id="무제_그라디언트_51" x1="63.55" y1="38.85" x2="90.5" y2="23.86" gradientUnits="userSpaceOnUse"><stop offset="0" stop-color="#fec0c1"/><stop offset="1" stop-color="#fdece9"/></linearGradient><linearGradient id="무제_그라디언트_51-2" x1="89.77" y1="18.15" x2="88.55" y2="20.86" xlink:href="#무제_그라디언트_51"/><linearGradient id="무제_그라디언트_51-3" x1="93.36" y1="21.56" x2="92.64" y2="23.18" xlink:href="#무제_그라디언트_51"/><linearGradient id="무제_그라디언트_51-4" x1="95.74" y1="19.49" x2="95.36" y2="20.34" xlink:href="#무제_그라디언트_51"/><linearGradient id="무제_그라디언트_19" x1="82.68" y1="27.39" x2="95.05" y2="23.24" gradientUnits="userSpaceOnUse"><stop offset="0" stop-color="#c17586"/><stop offset="1" stop-color="#816683"/></linearGradient><linearGradient id="무제_그라디언트_19-2" x1="94.71" y1="23.9" x2="83.01" y2="26.51" xlink:href="#무제_그라디언트_19"/><linearGradient id="무제_그라디언트_13" x1="91.48" y1="29.19" x2="84.76" y2="29.19" gradientUnits="userSpaceOnUse"><stop offset="0" stop-color="#faab46"/><stop offset="1" stop-color="#fc7347"/></linearGradient><linearGradient id="무제_그라디언트_13-2" x1="90.71" y1="32.77" x2="84.01" y2="26.07" xlink:href="#무제_그라디언트_13"/><linearGradient id="무제_그라디언트_13-3" x1="-70.02" y1="210.91" x2="-65.32" y2="210.91" gradientTransform="translate(84.7 -196.7) rotate(-12.56)" xlink:href="#무제_그라디언트_13"/><linearGradient id="무제_그라디언트_19-3" x1="71.41" y1="37.51" x2="54.02" y2="32.73" xlink:href="#무제_그라디언트_19"/><linearGradient id="무제_그라디언트_19-4" x1="58.19" y1="33.62" x2="70.29" y2="36.81" xlink:href="#무제_그라디언트_19"/><linearGradient id="무제_그라디언트_13-4" x1="898.73" y1="72.5" x2="892.02" y2="72.5" gradientTransform="translate(902.92 350.87) rotate(-163.75)" xlink:href="#무제_그라디언트_13"/><linearGradient id="무제_그라디언트_13-5" x1="897.96" y1="76.08" x2="891.26" y2="69.38" gradientTransform="translate(902.92 350.87) rotate(-163.75)" xlink:href="#무제_그라디언트_13"/><linearGradient id="무제_그라디언트_14" x1="-70.6" y1="210.91" x2="-64.73" y2="210.91" gradientTransform="translate(84.7 -196.7) rotate(-12.56)" gradientUnits="userSpaceOnUse"><stop offset="0" stop-color="#fc7347"/><stop offset="1" stop-color="#faab46"/></linearGradient><linearGradient id="무제_그라디언트_19-5" x1="86.93" y1="33.11" x2="92.91" y2="33.11" gradientTransform="translate(-2.7 4.77) rotate(0.36)" xlink:href="#무제_그라디언트_19"/><linearGradient id="무제_그라디언트_22" x1="86.2" y1="33.11" x2="93.64" y2="33.11" gradientTransform="translate(-2.7 4.77) rotate(0.36)" gradientUnits="userSpaceOnUse"><stop offset="0" stop-color="#816683"/><stop offset="1" stop-color="#c17586"/></linearGradient><linearGradient id="무제_그라디언트_118" x1="75.09" y1="40.91" x2="75.09" y2="47.49" gradientUnits="userSpaceOnUse"><stop offset="0" stop-color="#f8d943"/><stop offset="1" stop-color="#fea664"/></linearGradient><linearGradient id="무제_그라디언트_118-2" x1="75.06" y1="36.08" x2="75.06" y2="41.08" xlink:href="#무제_그라디언트_118"/><linearGradient id="무제_그라디언트_118-3" x1="75.09" y1="36.51" x2="75.09" y2="31.11" xlink:href="#무제_그라디언트_118"/><linearGradient id="무제_그라디언트_118-4" x1="75.11" y1="30.98" x2="75.11" y2="10.15" xlink:href="#무제_그라디언트_118"/></defs><rect class="cls-1" width="150" height="77.42"/><path class="cls-2" d="M79.92,16.85s-.23-3.7,2.86-5.29c0,0,3.58-1.93,6.44.81a3,3,0,0,1-.38,4.1,9.23,9.23,0,0,0-2,1.44l-.15,3.63a4,4,0,0,0,1.06,1.95s3.09,4.63,2.28,9.88c0,0-1.37,7.87-5.7,10.48l-18.7,1.88a11.67,11.67,0,0,1-8.56-11.64s-.63-10.6,9-10.62C66.13,23.47,78.68,28.35,79.92,16.85Z"/><circle class="cls-3" cx="89.13" cy="19.57" r="2.12"/><circle class="cls-4" cx="92.98" cy="22.41" r="1.26"/><circle class="cls-5" cx="95.54" cy="19.94" r="0.67"/><ellipse class="cls-6" cx="74.14" cy="48.67" rx="16.02" ry="2.29"/><path class="cls-7" d="M83.64,24.58s1,.5,2.13-1.17a3.74,3.74,0,0,1,3.07-1.27A4,4,0,0,1,92,23.84a1.21,1.21,0,0,0,1.66.5,5.23,5.23,0,0,0,1.06-1,.43.43,0,0,1,.3-.14s.5,0,0,1.54c0,0-.85,2.44-2.59,2.83a2.91,2.91,0,0,1-2.58-1.1s-1.65-1.78-2.63.85c0,0-1.64,2.78-4.21,1S83.64,24.58,83.64,24.58Z"/><path class="cls-8" d="M94.85,23.5a6.55,6.55,0,0,1-1.15,2,2.35,2.35,0,0,1-.29.26,5.08,5.08,0,0,1,0-1.1h-.1a4.82,4.82,0,0,0,0,1.18,1.42,1.42,0,0,1-.71.23,2.65,2.65,0,0,1-1.67-.7,5.41,5.41,0,0,0-.84-.75,3.21,3.21,0,0,1,1.37-.86l0-.1a3.41,3.41,0,0,0-1.43.9A2.31,2.31,0,0,0,88.72,24a3.84,3.84,0,0,0-1.1.19,3.68,3.68,0,0,1,.92-1.89l-.07-.08a3.62,3.62,0,0,0-1,2,5.11,5.11,0,0,0-2.64,2.4l-1,.24A3.22,3.22,0,0,1,84,24.8l-.09-.06A3.37,3.37,0,0,0,83.8,27l0,.05,1.12-.28v0a4.67,4.67,0,0,1,3.72-2.57,12.39,12.39,0,0,0,.07,1.38h.11a11.11,11.11,0,0,1-.08-1.37,3.39,3.39,0,0,1,2.09,1.28,3,3,0,0,0,1.34.7,1.61,1.61,0,0,0,.59,1.23l.07-.08a1.53,1.53,0,0,1-.56-1.13,1.62,1.62,0,0,0,1.47-.59,6.13,6.13,0,0,0,1.18-2Z"/><path class="cls-9" d="M82.86,26.82s3.14-1.56,4.31.49c0,0,.88,2.36,2.6,1.83A1.61,1.61,0,0,1,92,30s.37,1.61.16,1.71c0,0-.17.08-.79-1,0,0-.42-.56-1.23.11a1.69,1.69,0,0,1-1.62.45,1.94,1.94,0,0,1-1-.64,1.25,1.25,0,0,0-.59-.5,2.32,2.32,0,0,0-2.28.69l-1.08,1.31Z"/><path class="cls-10" d="M91.67,30.17a.68.68,0,0,1,.25.11l.06-.09a1,1,0,0,0-.43-.15,1.08,1.08,0,0,0-.32-.24,1.47,1.47,0,0,0-1.27.05,2.18,2.18,0,0,1-2.55-.79,1.21,1.21,0,0,1,.51-.13v-.1a1.44,1.44,0,0,0-.58.14s0-.08,0-.08a2.49,2.49,0,0,0-1.63-.95,1.74,1.74,0,0,1,1.13-.86l0-.1a1.71,1.71,0,0,0-1.21.95H85.5a3.38,3.38,0,0,0-2.21.94,6.76,6.76,0,0,1,.19-2.14l-.1,0A6.64,6.64,0,0,0,83.2,29v.12l.09-.09a3.67,3.67,0,0,1,1.77-.95,3.68,3.68,0,0,0,1.12,1.87l.06-.09a3.57,3.57,0,0,1-1.08-1.8l.34,0a2.29,2.29,0,0,1,1.7.92,2.6,2.6,0,0,0,1.1.95,1.68,1.68,0,0,0,.39,1.29l.08-.06a1.67,1.67,0,0,1-.37-1.19,2.29,2.29,0,0,0,1.6,0,1.47,1.47,0,0,1,.29-.1,1,1,0,0,0,.4.61l.06-.09a.91.91,0,0,1-.36-.55,1.31,1.31,0,0,1,.79.08A1.86,1.86,0,0,1,92,31.37h.11A2.62,2.62,0,0,0,91.67,30.17Z"/><path class="cls-11" d="M66.79,23.29A2.31,2.31,0,0,0,65.88,22a2.35,2.35,0,0,0-1-.42,2.53,2.53,0,0,0-.82,0,2.43,2.43,0,0,0-.76.31,2.47,2.47,0,0,0-.87,1,2.36,2.36,0,0,0-.15,1.49l0,.12a2.44,2.44,0,0,0,.7,1.13,2.4,2.4,0,0,0,1.5.59,2.21,2.21,0,0,0,.57-.06,2.53,2.53,0,0,0,.72-.29,2.4,2.4,0,0,0,1-1.26,2.3,2.3,0,0,0,.06-1.25A.24.24,0,0,0,66.79,23.29ZM64.09,22a2,2,0,0,1,1,.06l-.67,1a.18.18,0,0,1-.25.06l-1.06-.67A2,2,0,0,1,64.09,22Zm-1.34,2.81a2.18,2.18,0,0,1-.16-.45,2,2,0,0,1,.32-1.57l.81,1a.18.18,0,0,1,0,.26Zm.21.33,1.14-.51a.18.18,0,0,1,.24.1l.51,1.15A2,2,0,0,1,63,25.09ZM64.07,24a.46.46,0,1,1,.55.35A.45.45,0,0,1,64.07,24Zm1.14,1.75-.14-1.25a.18.18,0,0,1,.16-.2l1.25-.14A2,2,0,0,1,65.21,25.73Zm1.28-2-1.23-.23a.19.19,0,0,1-.15-.21l.23-1.24a2,2,0,0,1,1.11,1.37A2.91,2.91,0,0,1,66.49,23.76Z"/><path class="cls-12" d="M53.83,33.77s-.47-.47,1.8-2.36a4.13,4.13,0,0,1,2.95-.81s1.31.23,2.1,2.2c0,0,.79,2.59,3.17.62s6.22-.1,6.76,2.57v4.43l-2.16-.71a16.93,16.93,0,0,1-2.28-1.89,1.82,1.82,0,0,0-2-.15,5.11,5.11,0,0,1-4.41.18,4.28,4.28,0,0,1-2.48-3.29,1.49,1.49,0,0,0-1-1.23,2.2,2.2,0,0,0-1.32.23S54.07,34,53.83,33.77Z"/><path class="cls-13" d="M70.24,37.63a6.58,6.58,0,0,1-1.91-1.23,4.62,4.62,0,0,0-.49-2.81.06.06,0,0,0-.09,0,.07.07,0,0,0,0,.09,4.52,4.52,0,0,1,.48,2.63c-.53-.45-.92-.85-.94-.86h0a1.83,1.83,0,0,0-2.16-.34,4.82,4.82,0,0,1-2,1,1.75,1.75,0,0,0-1.18-1.43.08.08,0,0,0-.09,0,.06.06,0,0,0,0,.08A1.62,1.62,0,0,1,63,36.09a6.54,6.54,0,0,1-1.24.17,2.34,2.34,0,0,1-2.19-1.5h0a1.48,1.48,0,0,1-.1-.31,3.46,3.46,0,0,0-1.23-2.26,1.21,1.21,0,0,0-.12-1.47.06.06,0,0,0-.09,0,.08.08,0,0,0,0,.1,1.07,1.07,0,0,1,.1,1.3,1.86,1.86,0,0,0-1.28-.27l0,0a.06.06,0,0,0-.06,0A5.72,5.72,0,0,0,54,33.55a.07.07,0,0,0,0,.09.08.08,0,0,0,.1,0A5.88,5.88,0,0,1,56.67,32,2,2,0,0,1,56,33a.07.07,0,0,0,0,.1l0,0h0a2,2,0,0,0,.7-1.16,1.73,1.73,0,0,1,1.27.28,3.23,3.23,0,0,1,1.21,2.21,2.33,2.33,0,0,0,.1.29,2.13,2.13,0,0,1-1.63.12.07.07,0,0,0-.08,0,.08.08,0,0,0,0,.09,3.06,3.06,0,0,0,.77.11,1.94,1.94,0,0,0,.95-.24,2.45,2.45,0,0,0,2.27,1.51A6.76,6.76,0,0,0,63,36.21h0a4.92,4.92,0,0,0,2.15-1,1.7,1.7,0,0,1,2,.32A2.22,2.22,0,0,1,66,37.32a.06.06,0,0,0,0,.08.06.06,0,0,0,.06,0h0a2.37,2.37,0,0,0,1.29-1.8A16.73,16.73,0,0,0,69,37.09a5.6,5.6,0,0,1-1.24,1.82.07.07,0,0,0,0,.1l.05,0,0,0a5.49,5.49,0,0,0,1.27-1.84,4.44,4.44,0,0,0,1.1.59h0a.07.07,0,0,0,.06,0A.08.08,0,0,0,70.24,37.63Z"/><path class="cls-14" d="M68,34.52s-3.45.61-4-1.68c0,0-.2-2.51-2-2.48a1.61,1.61,0,0,1-1.92-1.48s.1-1.65.32-1.69c0,0,.2,0,.49,1.19,0,0,.24.66,1.21.24a1.65,1.65,0,0,1,1.68,0,1.84,1.84,0,0,1,.75.88,1.3,1.3,0,0,0,.43.64,2.33,2.33,0,0,0,2.39,0l1.4-.95Z"/><path class="cls-15" d="M60.45,28.84a.88.88,0,0,1-.21-.18l-.08.06a.93.93,0,0,0,.36.27,1.2,1.2,0,0,0,.25.33,1.5,1.5,0,0,0,1.23.3,2.17,2.17,0,0,1,2.23,1.47,1.17,1.17,0,0,1-.52,0l0,.1a1.24,1.24,0,0,0,.6,0,.66.66,0,0,0,0,.1,2.47,2.47,0,0,0,1.29,1.36,1.66,1.66,0,0,1-1.32.51v.11a1.77,1.77,0,0,0,1.44-.58l0,0a3.4,3.4,0,0,0,2.39-.28,7.38,7.38,0,0,1-.77,2l.08.06a7.29,7.29,0,0,0,.82-2.15l0-.11-.1.05a3.64,3.64,0,0,1-2,.42,3.63,3.63,0,0,0-.56-2.11l-.08.07a3.54,3.54,0,0,1,.54,2,1.77,1.77,0,0,1-.33-.08,2.32,2.32,0,0,1-1.38-1.35A2.6,2.6,0,0,0,63.61,30a1.71,1.71,0,0,0,0-1.35l-.1,0a1.65,1.65,0,0,1,0,1.25A2.38,2.38,0,0,0,62,29.52a2.26,2.26,0,0,1-.31,0,1,1,0,0,0-.21-.7l-.08.07a1,1,0,0,1,.19.63,1.23,1.23,0,0,1-.74-.3,1.88,1.88,0,0,1-.39-1.66h-.11A2.66,2.66,0,0,0,60.45,28.84Z"/><path class="cls-16" d="M67.38,24.53a2.88,2.88,0,0,0,0-1.17c0-.1,0-.2-.07-.3l-.33.11-.12-.39.28-.15A3.42,3.42,0,0,0,66.8,22l-.26.23-.27-.31.2-.25a3,3,0,0,0-.58-.41l-.15.31-.36-.18.08-.31a2.64,2.64,0,0,0-.69-.14l0,.34-.4,0,0-.32L64,21a2.6,2.6,0,0,0-.4.1l.12.32-.38.14-.16-.28a3.06,3.06,0,0,0-.59.4l.23.25-.3.28-.26-.2a3.19,3.19,0,0,0-.38.6l.31.14-.17.37L61.71,23a2.78,2.78,0,0,0-.12.71h.34v.4l-.32.06,0,.2a2.53,2.53,0,0,0,.14.49l.31-.13.15.38-.27.17a3.07,3.07,0,0,0,.42.58l.24-.24.29.28-.19.27a3.81,3.81,0,0,0,.61.37l.13-.32.38.15-.07.32a3.38,3.38,0,0,0,.71.1v-.35h.4l.07.31H65a3.66,3.66,0,0,0,.59-.17l-.14-.31.37-.17.18.27A3,3,0,0,0,66.6,26l-.25-.23.28-.3.27.17a2.87,2.87,0,0,0,.34-.62l-.32-.12.14-.37ZM65,26.17a2.35,2.35,0,1,1,1.78-2.8A2.33,2.33,0,0,1,65,26.17Z"/><path class="cls-17" d="M90,38.39a3,3,0,0,0-.78-2,2.88,2.88,0,0,0-1.14-.77,3,3,0,0,0-1-.21,3,3,0,0,0-2.37,1.15A3,3,0,0,0,84,38.42v.2a3,3,0,0,0,.54,1.53,2.94,2.94,0,0,0,1.74,1.19,2.61,2.61,0,0,0,.69.09,2.94,2.94,0,0,0,.94-.15A3,3,0,0,0,90,38.46Zm-3-2.47a2.47,2.47,0,0,1,1.26.36v0l-1,1a.31.31,0,0,1-.44,0l-1-1s0,0,0,0A2.62,2.62,0,0,1,87,35.92ZM84.56,39a2.79,2.79,0,0,1-.07-.58,2.54,2.54,0,0,1,.83-1.85s0,0,0,0L86,37.9a.3.3,0,0,1-.13.42l-1.3.68ZM86.84,41a2.53,2.53,0,0,1-2.1-1.43h0l1.44-.27a.31.31,0,0,1,.36.25l.28,1.44S86.83,40.94,86.84,41Zm-.44-2.51a.62.62,0,1,1,.61.61A.61.61,0,0,1,86.4,38.44Zm1,2.49v0l.16-1.46a.3.3,0,0,1,.34-.27l1.46.16h0A2.51,2.51,0,0,1,87.38,40.93Zm2.12-2.11h0l-1.35-.59a.3.3,0,0,1-.16-.4l.58-1.35v0a2.53,2.53,0,0,1,1,2A2.2,2.2,0,0,1,89.5,38.82Z"/><path class="cls-18" d="M90.18,39.12l0-.49.5,0v-.13a3.74,3.74,0,0,0-.06-.68l-.49.05L90,37.37l.45-.23a3.3,3.3,0,0,0-.36-.73l-.44.25-.32-.38.34-.39a3.48,3.48,0,0,0-.62-.53l-.32.4-.44-.23.17-.5a4.19,4.19,0,0,0-.46-.16l-.18.48-.49-.08v-.53l-.33,0c-.17,0-.33,0-.48,0l0,.51-.48.11-.2-.48a4.21,4.21,0,0,0-.75.34l.22.45L85,36l-.36-.36a3.89,3.89,0,0,0-.56.59l.36.33-.26.42-.45-.18a3.85,3.85,0,0,0-.29.76l.45.15-.07.5h-.48a1.93,1.93,0,0,0,0,.24,2.78,2.78,0,0,0,0,.58l.46,0,.12.49-.43.18a3.86,3.86,0,0,0,.35.74l.4-.2.3.39-.31.34a3.45,3.45,0,0,0,.6.54l.28-.33.43.24-.16.43a3.92,3.92,0,0,0,.77.28l.13-.43.49.06,0,.46H87a4.07,4.07,0,0,0,.61,0l0-.44.48-.14.2.42A3.77,3.77,0,0,0,89,41.6l-.21-.4.38-.31.36.32A4.45,4.45,0,0,0,90,40.6l-.36-.3.23-.43.46.16a3.35,3.35,0,0,0,.27-.77ZM87,41.43a3,3,0,1,1,3-3A3,3,0,0,1,87,41.43Z"/><rect class="cls-19" x="65.78" y="40.64" width="18.61" height="6.95"/><rect class="cls-20" x="68.55" y="36.08" width="13" height="4.56"/><rect class="cls-21" x="73.68" y="30.51" width="2.83" height="5.56"/><polygon class="cls-22" points="75.12 7.41 79.75 16.84 90.15 18.32 82.68 25.63 84.44 36.08 75.14 31.1 65.81 36.08 67.58 25.66 60.06 18.29 70.51 16.74 75.12 7.41"/><polygon class="cls-1" points="84.08 13.84 85.41 15.32 86.07 13.52 84.08 13.84"/><polygon class="cls-23" points="57.43 22.38 58.25 24.16 59.37 22.58 57.43 22.38"/></svg>