<svg id="레이어_1" data-name="레이어 1" xmlns="http://www.w3.org/2000/svg" viewBox="0 0 150 77.42"><defs><style>.cls-1{fill:#fff;}.cls-2{fill:#da8d49;}.cls-3{fill:#ffcc98;}.cls-4{fill:#f4b87e;}.cls-5{fill:#e59246;}.cls-6{fill:#da9148;}.cls-7{fill:#ffc080;}.cls-8{fill:#19191a;}.cls-9{fill:#f4931b;}.cls-10{fill:#151c1f;}.cls-11{fill:#6c6267;}.cls-12{fill:#605748;}.cls-13{fill:#59c9e8;}.cls-14{fill:#a7cd42;}</style></defs><rect class="cls-1" width="150" height="77.42"/><path class="cls-2" d="M45.43,31.44c0,.9,1.64.9,1.63,0V21.31c-.18-.16-1.14-1.75-1.45-1.7a.63.63,0,0,0-.18.45Z"/><path class="cls-3" d="M50,33.76c.1-.8.07-5.38,0-8.5l-2.95-4V31.44c0,.9-1.65.9-1.63,0V20.06a.63.63,0,0,1,.18-.45c-3-.21-1.64,2.65-1.46,4.49.1.65-1,6.68-1.07,7.51a3.49,3.49,0,0,0,1.31,3.13L44.48,51h4.6V36.45A10.38,10.38,0,0,0,50,33.76Z"/><path class="cls-2" d="M52.19,37.59l-3-1.1,4.75,3.24v-1.9A4.42,4.42,0,0,1,52.19,37.59Z"/><path class="cls-4" d="M49.75,34.74h0c-1.06.14-.58,15.29-.66,16.25h4.81V39.73l-4.75-3.24c1.42.39,3,1.41,4.75,1.34.86-.15,1.71-1.25,2.25-2.23Z"/><path class="cls-2" d="M56.14,35.6l.73-1.14L50,25.26c0,4,.27,7.6-.27,9.48Z"/><path class="cls-4" d="M59.91,13.42a1.26,1.26,0,0,0-.68-.45v3C60.32,15,60.47,14.08,59.91,13.42Z"/><path class="cls-5" d="M58.76,12.93v3.62l.47-.54V13A1.29,1.29,0,0,0,58.76,12.93Z"/><polygon class="cls-6" points="58.78 30.44 58.78 31.49 59.16 30.9 59.16 30.07 58.78 30.44"/><polygon class="cls-7" points="59.16 30.07 59.16 30.9 60.61 28.65 59.16 30.07"/><rect class="cls-8" x="45.88" y="7.44" width="12.93" height="27.02" rx="2.19"/><rect class="cls-9" x="46.36" y="7.96" width="11.97" height="25.36" rx="1.42"/><path class="cls-10" d="M54,32.84H50.64c-.17,0-.17-.27,0-.26H54C54.16,32.57,54.17,32.84,54,32.84Z"/><path class="cls-8" d="M51.76,8.14a.58.58,0,0,1,1.16,0A.58.58,0,0,1,51.76,8.14Z"/><path class="cls-11" d="M52.09,8.14a.25.25,0,0,1,.5,0A.25.25,0,0,1,52.09,8.14Z"/><path class="cls-1" d="M52.33,15.52a2.93,2.93,0,0,0-3,2.2l1.61.69c.59-1.86,2.56-1.2,2.55-.16-.64,2.08-2.32,1.67-2.11,4.06h1.89c-.15-1.15.59-1.45,1.46-2.54C56.23,18,54.66,15.46,52.33,15.52Z"/><path class="cls-1" d="M51.16,24.58a1.21,1.21,0,0,1,2.42,0A1.21,1.21,0,0,1,51.16,24.58Z"/><polygon class="cls-12" points="58.92 16.44 58.81 16.52 58.81 13.2 58.92 13.26 58.92 16.44"/><polygon class="cls-12" points="58.92 19.01 58.81 19.05 58.81 17.53 58.92 17.55 58.92 19.01"/><path class="cls-6" d="M60.55,28.08c-.94.86-3.07,3.71-4,1.29a1.26,1.26,0,0,0,2.09,1.22c.51-.68,2.69-2,2.25-3.09A1.13,1.13,0,0,1,60.55,28.08Z"/><path class="cls-3" d="M58.63,30c.31-.4,2.21-1.93,2.25-2.46a1.26,1.26,0,0,0-2.09-.59c-.31.4-2.21,1.93-2.25,2.46A1.26,1.26,0,0,0,58.63,30Z"/><path class="cls-6" d="M61,24.11c0,1.08-2.66,2-3.33,2.55a1.44,1.44,0,0,1-2.08-.81,1.45,1.45,0,0,0,2.13,1.45C58.62,26.6,61.68,25.73,61,24.11Z"/><path class="cls-3" d="M57.69,26.66c.65-.6,3.87-1.55,3.21-2.84-1-1.85-3.46.53-4.59,1C54.73,25.68,56.43,27.47,57.69,26.66Z"/><path class="cls-6" d="M60.89,21.11l0-.09c0,1.31-2.18,1.42-3.08,1.76a1.42,1.42,0,0,1-1.72-.9,1.43,1.43,0,0,0,1.79,1.56C59,23.09,61.41,22.86,60.89,21.11Z"/><path class="cls-3" d="M57.78,22.78c.9-.34,3-.45,3.08-1.76-.52-1.66-2.68-.59-3.77-.33C55.36,21.2,56.21,23.19,57.78,22.78Z"/><path class="cls-2" d="M91.27,35.9c0,.91,1.65.91,1.64,0V25.77c-.18-.15-1.14-1.74-1.46-1.69a.67.67,0,0,0-.18.45Z"/><path class="cls-3" d="M95.81,38.23c.11-.81.08-5.39,0-8.5l-2.94-4V35.9c0,.91-1.65.91-1.64,0V24.53a.67.67,0,0,1,.18-.45c-3-.21-1.64,2.65-1.45,4.48.09.66-1,6.68-1.07,7.51a3.5,3.5,0,0,0,1.31,3.14L90.33,51h4.6V40.91A10.15,10.15,0,0,0,95.81,38.23Z"/><path class="cls-2" d="M98,42.05,95,41l4.75,3.24V42.29A4.42,4.42,0,0,1,98,42.05Z"/><path class="cls-4" d="M95.59,39.21h0a11.48,11.48,0,0,1-.67,1.7V51h4.81V44.2L95,41c1.42.39,3,1.41,4.75,1.33.86-.14,1.71-1.24,2.25-2.22Z"/><path class="cls-2" d="M102,40.07l.73-1.14-6.87-9.2c0,4,.28,7.6-.26,9.48Z"/><path class="cls-4" d="M105.76,17.89a1.33,1.33,0,0,0-.69-.46v3C106.17,19.42,106.32,18.54,105.76,17.89Z"/><path class="cls-5" d="M104.61,17.4V21l.46-.55v-3A1.11,1.11,0,0,0,104.61,17.4Z"/><polygon class="cls-6" points="104.63 34.91 104.63 35.96 105.01 35.37 105.01 34.53 104.63 34.91"/><polygon class="cls-7" points="105.01 34.53 105.01 35.37 106.46 33.12 105.01 34.53"/><rect class="cls-8" x="91.72" y="11.91" width="12.93" height="27.02" rx="2.19"/><rect class="cls-13" x="92.21" y="12.42" width="11.97" height="25.36" rx="1.42"/><path class="cls-10" d="M99.85,37.3H96.49c-.17,0-.17-.26,0-.26h3.36C100,37,100,37.31,99.85,37.3Z"/><path class="cls-8" d="M97.61,12.61a.58.58,0,0,1,1.16,0A.58.58,0,0,1,97.61,12.61Z"/><path class="cls-11" d="M97.94,12.61a.25.25,0,0,1,.5,0A.25.25,0,0,1,97.94,12.61Z"/><path class="cls-1" d="M98.17,20a2.94,2.94,0,0,0-3,2.19l1.62.69c.59-1.85,2.56-1.2,2.55-.16-.64,2.08-2.32,1.68-2.11,4.07h1.89c-.16-1.16.59-1.45,1.46-2.55C102.08,22.46,100.51,19.93,98.17,20Z"/><path class="cls-1" d="M97,29a1.21,1.21,0,0,1,2.41,0A1.21,1.21,0,0,1,97,29Z"/><polygon class="cls-12" points="104.76 20.9 104.65 20.98 104.65 17.66 104.76 17.73 104.76 20.9"/><polygon class="cls-12" points="104.76 23.48 104.65 23.51 104.65 21.99 104.76 22.02 104.76 23.48"/><path class="cls-6" d="M106.4,32.55c-.94.86-3.08,3.7-4,1.29a1.27,1.27,0,0,0,2.1,1.22c.51-.68,2.68-2,2.25-3.09A1.17,1.17,0,0,1,106.4,32.55Z"/><path class="cls-3" d="M104.48,34.42c.31-.39,2.21-1.93,2.25-2.45a1.26,1.26,0,0,0-2.09-.59c-.32.39-2.22,1.93-2.26,2.46A1.27,1.27,0,0,0,104.48,34.42Z"/><path class="cls-6" d="M106.87,28.58c0,1.07-2.66,2-3.33,2.55a1.43,1.43,0,0,1-2.08-.82,1.44,1.44,0,0,0,2.13,1.45C104.47,31.06,107.52,30.2,106.87,28.58Z"/><path class="cls-3" d="M103.54,31.12c.65-.6,3.87-1.54,3.21-2.83-1-1.85-3.46.52-4.59,1C100.58,30.15,102.28,31.93,103.54,31.12Z"/><path class="cls-6" d="M106.74,25.58l0-.09c0,1.31-2.18,1.42-3.08,1.75a1.42,1.42,0,0,1-1.73-.9,1.44,1.44,0,0,0,1.8,1.57C104.81,27.56,107.26,27.33,106.74,25.58Z"/><path class="cls-3" d="M103.63,27.24c.9-.33,3-.44,3.08-1.75-.52-1.66-2.68-.59-3.77-.33C101.21,25.67,102.06,27.66,103.63,27.24Z"/><path class="cls-2" d="M80.68,40.75c0,.91-1.65.91-1.64,0V30.62c.18-.16,1.14-1.74,1.46-1.69a.63.63,0,0,1,.18.45Z"/><path class="cls-3" d="M76.14,43.07c-.11-.8-.08-5.38,0-8.5L79,30.62V40.75c0,.91,1.65.91,1.64,0V29.38a.63.63,0,0,0-.18-.45c3-.22,1.64,2.64,1.45,4.48-.09.65,1,6.68,1.07,7.51a3.52,3.52,0,0,1-1.3,3.14l-.1,6.9H77l0-5.2A10,10,0,0,1,76.14,43.07Z"/><path class="cls-2" d="M73.91,46.9l3-1.1L72.21,49v-1.9A4.42,4.42,0,0,0,73.91,46.9Z"/><path class="cls-4" d="M76.36,44.05h0A11.28,11.28,0,0,0,77,45.76L77,51H72.21V49L77,45.8c-1.41.39-3,1.41-4.75,1.34C71.36,47,70.5,45.89,70,44.91Z"/><path class="cls-2" d="M70,44.91l-.74-1.13,6.87-9.21c0,4-.28,7.61.26,9.48Z"/><path class="cls-4" d="M66.24,22.73a1.25,1.25,0,0,1,.68-.45v3C65.82,24.27,65.67,23.39,66.24,22.73Z"/><path class="cls-5" d="M67.38,22.24v3.62l-.46-.54v-3A1.24,1.24,0,0,1,67.38,22.24Z"/><polygon class="cls-6" points="67.37 39.71 67.37 40.76 66.98 40.17 66.98 39.34 67.37 39.71"/><polygon class="cls-7" points="66.98 39.34 66.98 40.17 65.53 37.92 66.98 39.34"/><rect class="cls-8" x="67.36" y="16.74" width="12.93" height="27.02" rx="2.19"/><rect class="cls-14" x="67.84" y="17.26" width="11.97" height="25.36" rx="1.42"/><path class="cls-10" d="M75.48,42.14H72.13a.13.13,0,0,1,0-.26h3.35A.13.13,0,0,1,75.48,42.14Z"/><path class="cls-8" d="M73.24,17.45a.59.59,0,0,1,1.17,0A.59.59,0,0,1,73.24,17.45Z"/><path class="cls-11" d="M73.58,17.45a.25.25,0,0,1,.5,0A.25.25,0,0,1,73.58,17.45Z"/><path class="cls-1" d="M73.81,24.83a2.94,2.94,0,0,0-3,2.19l1.62.69c.59-1.85,2.56-1.2,2.55-.16-.64,2.08-2.32,1.68-2.12,4.07h1.9c-.16-1.16.59-1.45,1.46-2.55C77.72,27.3,76.15,24.77,73.81,24.83Z"/><path class="cls-1" d="M72.64,33.88a1.21,1.21,0,0,1,2.42,0A1.21,1.21,0,0,1,72.64,33.88Z"/><polygon class="cls-12" points="80.4 25.74 80.29 25.82 80.29 22.5 80.4 22.57 80.4 25.74"/><polygon class="cls-12" points="80.4 28.31 80.29 28.35 80.29 26.83 80.4 26.86 80.4 28.31"/><path class="cls-6" d="M65.6,37.36c.94.85,3.07,3.7,4,1.28a1.26,1.26,0,0,1-2.09,1.22c-.51-.68-2.69-2-2.26-3.09A1.31,1.31,0,0,0,65.6,37.36Z"/><path class="cls-3" d="M67.52,39.23c-.32-.4-2.22-1.93-2.26-2.46a1.27,1.27,0,0,1,2.1-.59c.31.4,2.21,1.93,2.25,2.46A1.26,1.26,0,0,1,67.52,39.23Z"/><path class="cls-6" d="M65.12,33.38c0,1.08,2.67,2,3.34,2.55a1.43,1.43,0,0,0,2.07-.81,1.44,1.44,0,0,1-2.12,1.45C67.53,35.87,64.47,35,65.12,33.38Z"/><path class="cls-3" d="M68.46,35.93c-.66-.6-3.87-1.55-3.21-2.84,1-1.84,3.46.53,4.59,1C71.42,35,69.71,36.74,68.46,35.93Z"/><path class="cls-6" d="M65.26,30.38l0-.09c0,1.31,2.17,1.42,3.07,1.76a1.43,1.43,0,0,0,1.73-.9,1.44,1.44,0,0,1-1.8,1.56C67.19,32.36,64.73,32.13,65.26,30.38Z"/><path class="cls-3" d="M68.36,32.05c-.9-.34-3-.45-3.07-1.76.52-1.66,2.67-.59,3.77-.33C70.79,30.47,69.94,32.46,68.36,32.05Z"/></svg>