<svg id="레이어_1" data-name="레이어 1" xmlns="http://www.w3.org/2000/svg" viewBox="0 0 150 77.42"><defs><style>.cls-1{fill:#e48475;}.cls-2{fill:#f7f7f7;}.cls-3{fill:#676763;}.cls-4{fill:#999;}.cls-5{fill:#eee;}.cls-6{fill:#c6c6c6;}.cls-7{fill:#74c4bf;}.cls-8{fill:#8699cb;}.cls-9{fill:#8c9ed0;}.cls-10{fill:#6fc7be;}.cls-11{fill:#73c5bf;}.cls-12{fill:#8c9cd0;}.cls-13{fill:#efae02;}</style></defs><path class="cls-1" d="M92,7.78H61.9a1.07,1.07,0,0,0-1.07,1.07v41A1.07,1.07,0,0,0,61.9,50.9H92A1.07,1.07,0,0,0,93,49.83v-41A1.07,1.07,0,0,0,92,7.78ZM90,48H64.08V11H90Z"/><rect class="cls-2" x="64.08" y="11.04" width="25.87" height="36.98"/><path class="cls-3" d="M83.59,7.4H82.48v2.9a.36.36,0,0,1-.35.36H71.72a.36.36,0,0,1-.35-.36V7.4H70.26a.42.42,0,0,0-.43.42v3.37a.43.43,0,0,0,.43.43H83.59a.42.42,0,0,0,.42-.43V7.82A.42.42,0,0,0,83.59,7.4Z"/><path class="cls-4" d="M71.72,10.66H82.13a.36.36,0,0,0,.35-.36V7.4H71.37v2.9A.36.36,0,0,0,71.72,10.66Z"/><rect class="cls-5" x="68.49" y="12.96" width="17.44" height="2.49"/><path class="cls-6" d="M67,19.47v2.88H70V19.47ZM69.62,22H67.37v-2.1h2.25Z"/><polygon class="cls-7" points="67.81 22.05 66.3 21.4 66.47 21 67.64 21.5 69.65 18.39 70.02 18.63 67.81 22.05"/><rect class="cls-6" x="72.13" y="19.86" width="15.33" height="0.57"/><rect class="cls-6" x="72.13" y="21.2" width="15.33" height="0.57"/><path class="cls-6" d="M67,24.84v2.87H70V24.84Zm2.66,2.49H67.37V25.22h2.25Z"/><polygon class="cls-7" points="67.81 27.41 66.3 26.77 66.47 26.36 67.64 26.86 69.65 23.76 70.02 24 67.81 27.41"/><rect class="cls-6" x="72.13" y="25.22" width="15.33" height="0.57"/><rect class="cls-6" x="72.13" y="26.56" width="15.33" height="0.57"/><path class="cls-6" d="M67,30v2.88H70V30Zm2.66,2.49H67.37V30.4h2.25Z"/><polygon class="cls-7" points="67.81 32.59 66.3 31.94 66.47 31.53 67.64 32.04 69.65 28.93 70.02 29.17 67.81 32.59"/><rect class="cls-6" x="72.13" y="30.4" width="15.33" height="0.57"/><rect class="cls-6" x="72.13" y="31.74" width="15.33" height="0.57"/><path class="cls-6" d="M67,35.38v2.87H70V35.38Zm2.66,2.49H67.37V35.76h2.25Z"/><rect class="cls-6" x="72.13" y="35.76" width="15.33" height="0.57"/><rect class="cls-6" x="72.13" y="37.1" width="15.33" height="0.57"/><path class="cls-6" d="M67,40.55v2.88H70V40.55ZM69.62,43H67.37v-2.1h2.25Z"/><rect class="cls-6" x="72.13" y="40.94" width="15.33" height="0.57"/><rect class="cls-6" x="72.13" y="42.28" width="15.33" height="0.57"/><rect class="cls-8" x="62.42" y="46.52" width="1.35" height="0.87" transform="translate(-2.89 4.16) rotate(-3.69)"/><polygon class="cls-9" points="61.03 21.86 60.56 25.73 60.56 25.73 62.85 25.54 61.84 21.86 61.03 21.86"/><polygon class="cls-10" points="61.03 21.86 61.3 21.05 61.57 21.05 61.84 21.86 61.03 21.86"/><path class="cls-11" d="M62,48.82a.67.67,0,0,0,.72.62l1.1-.07a.67.67,0,0,0,.63-.71v-.2L62,48.61Z"/><path class="cls-11" d="M64.38,48.09v-.15a.66.66,0,0,0-.71-.63l-1.11.07a.66.66,0,0,0-.62.71v.12h0Z"/><polygon class="cls-12" points="61.93 48.21 61.93 48.21 61.96 48.61 64.41 48.46 64.38 48.09 61.93 48.21"/><path class="cls-8" d="M62,45.5a.29.29,0,0,1-.2.09h-.7l-.45-7.73a.29.29,0,1,1,.57,0L61.66,45h.15a.3.3,0,0,1,.3.28A.27.27,0,0,1,62,45.5Z"/><polygon class="cls-11" points="64.08 44.91 62.85 25.54 60.56 25.73 61.78 45.04 61.78 45.04 64.08 44.91"/><polygon class="cls-11" points="61.81 45.5 61.88 46.59 64.18 46.44 64.11 45.34 61.81 45.5 61.81 45.5"/><polygon class="cls-8" points="61.78 45.04 61.78 45.04 61.81 45.5 61.81 45.5 64.11 45.34 64.08 44.91 61.78 45.04"/><polygon class="cls-13" points="57.92 16.64 57.64 16.14 61.05 14.19 56.98 13.12 61.62 12.01 59.33 9.72 62.09 9.93 60.59 6.94 61.1 6.68 63.05 10.58 60.83 10.41 62.75 12.33 59.34 13.14 62.56 13.99 57.92 16.64"/></svg>