<svg id="레이어_1" data-name="레이어 1" xmlns="http://www.w3.org/2000/svg" viewBox="0 0 150 77.42"><defs><style>.cls-1{fill:#fff;}.cls-2{fill:#556b83;}.cls-3{fill:#394659;}.cls-4{fill:#cfd9d8;}.cls-5{fill:#e67d4b;}.cls-6{fill:#e4763c;}.cls-7{fill:#da7847;}.cls-8{fill:#ef946d;}.cls-9{fill:#f8a97e;}.cls-10{fill:#f9c794;}.cls-11{fill:#fcc594;}.cls-12{fill:#4f455f;}.cls-13{fill:#2f2c3d;}.cls-14{fill:#fddd52;}</style></defs><rect class="cls-1" width="150" height="77.42"/><polygon class="cls-2" points="56.58 25.98 36.68 21.11 36.68 34.28 53.39 38.38 56.58 25.98"/><polygon class="cls-3" points="36.68 34.28 36.68 37.76 52.55 41.65 53.39 38.38 36.68 34.28"/><polygon class="cls-4" points="53.13 39.37 55.84 40.15 56.18 27.54 53.13 39.37"/><polygon class="cls-1" points="56.18 27.54 58.72 28.92 56.18 38.89 55.88 38.89 56.18 27.54"/><path class="cls-5" d="M59.87,38c-1.79-.59-1.45-2.79-1.45-2.79l.3-6.26-2.54,10,3.51,1.16,1.78-1.5Z"/><path class="cls-6" d="M85.35,44.4a2.34,2.34,0,0,1-2.44.34l-6.8-6.33c-.13-.14-.27,0-.27,0-.15.14,0,.28,0,.28L82.53,45a2.71,2.71,0,0,1-3.08,2.2L73.1,41a.15.15,0,0,0-.21,0l-.16.15a.13.13,0,0,0,0,.17l6.53,6.25a2.77,2.77,0,0,1-3.5,1.81l-1.67-1.63a3.64,3.64,0,0,0,.44-3.48l-2.81-.71A1.66,1.66,0,0,0,72,42.48s-1.58-2.24-1.75-2.33a2.66,2.66,0,0,0-.73-.1,2.19,2.19,0,0,0-.65-1.67s-3.37,1.2-3.53,0a1.94,1.94,0,0,0-.79-1.52l-3.09,1.69-1.78,1.5a1.83,1.83,0,0,0,.42,1.38,2,2,0,0,0,1.94.72,2.23,2.23,0,0,0,.13,2.28,2.38,2.38,0,0,0,2,1,2.16,2.16,0,0,0,.61,1.76,2,2,0,0,0,2.93.31,2.33,2.33,0,0,0,.15,2.86,2,2,0,0,0,2.59.14l.79-.77A5.19,5.19,0,0,0,74,51c1.81,0,2.18-1,2.18-1a3.11,3.11,0,0,0,2.52-.3,2.87,2.87,0,0,0,1.18-1.81,2.69,2.69,0,0,0,2.32-.72,2.82,2.82,0,0,0,1-2,2.1,2.1,0,0,0,2.8-.26c1.25-1.24-.1-2.73-.1-2.73C86.14,43.92,85.35,44.4,85.35,44.4Z"/><path class="cls-7" d="M67.38,34c2.38,0,4.67-2.51,4.67-2.51a13.07,13.07,0,0,0,4.63,1.06l9.19,9.62-.59-.7-8.3-12L64.13,32.67C64.92,34.26,67.38,34,67.38,34Z"/><path class="cls-8" d="M69,34.66a8.4,8.4,0,0,0,3.85-2.39,11,11,0,0,0,4.52,1h0l-.69-.72a13.07,13.07,0,0,1-4.63-1.06S69.76,34,67.38,34a4.37,4.37,0,0,1-2.53-.55h0S65.74,35.28,69,34.66Z"/><path class="cls-9" d="M85.87,42.19l-8.5-8.9h0a11,11,0,0,1-4.52-1A8.4,8.4,0,0,1,69,34.66c-3.26.62-4.16-1.19-4.16-1.19h0a2.07,2.07,0,0,1-.72-.8L77,29.44,74.7,26.12,71.19,24.9a3.46,3.46,0,0,0-1.4-.21,2.87,2.87,0,0,0-1.51.55l-6.73,4.13a2.3,2.3,0,0,1-1.34,0l-1.49-.45-.3,6.26s-.34,2.2,1.45,2.79l1.6.58,3.09-1.69a1.94,1.94,0,0,1,.79,1.52c.16,1.2,3.53,0,3.53,0a2.19,2.19,0,0,1,.65,1.67,2.66,2.66,0,0,1,.73.1c.17.09,1.75,2.33,1.75,2.33a1.66,1.66,0,0,1-.25,1.09l2.81.71a3.64,3.64,0,0,1-.44,3.48l1.67,1.63a2.77,2.77,0,0,0,3.5-1.81l-6.53-6.25a.13.13,0,0,1,0-.17l.16-.15a.15.15,0,0,1,.21,0l6.35,6.17A2.71,2.71,0,0,0,82.53,45l-6.65-6.28s-.19-.14,0-.28c0,0,.14-.17.27,0l6.8,6.33a2.34,2.34,0,0,0,2.44-.34S86.14,43.92,85.87,42.19Z"/><path class="cls-9" d="M73.81,48.13l1.56,1.44a1.89,1.89,0,0,1-2.67-.23Z"/><rect class="cls-10" x="59.3" y="37.34" width="5.92" height="2.77" rx="1.39" transform="translate(-9.76 52.44) rotate(-42.66)"/><rect class="cls-10" x="64.7" y="41.59" width="7.94" height="3.7" rx="1.85" transform="translate(-11.26 58.02) rotate(-42.66)"/><rect class="cls-10" x="67.29" y="44.64" width="8.04" height="3.86" rx="1.93" transform="translate(-12.69 60.65) rotate(-42.66)"/><rect class="cls-10" x="61.58" y="38.81" width="8.08" height="3.82" rx="1.91" transform="translate(-10.23 55.24) rotate(-42.66)"/><polygon class="cls-7" points="85.28 41.49 90.69 39.31 88.15 29.44 82.09 36.86 85.28 41.49"/><path class="cls-11" d="M88.15,29.44l.25,6.22A2.92,2.92,0,0,1,87,38.42L85.35,39a2.61,2.61,0,0,1-2.78-.72,32.2,32.2,0,0,1-2.86-3.73,15.33,15.33,0,0,1-1.5-2.92s-3.92,1-6.32-1.12c0,0-3.08,3.26-5.9,3.08,0,0-1.61-.1-1.87-1.24a1.3,1.3,0,0,1,.6-1.23l4.37-3.47A4.59,4.59,0,0,1,70.45,27l6.23-1.36a3.5,3.5,0,0,1,2.27.31l5.64,4.15a1.86,1.86,0,0,0,1.75.11Z"/><polygon class="cls-4" points="93.67 40.09 90.69 28.04 91.07 40.79 93.67 40.09"/><polygon class="cls-12" points="112.72 21.15 90.38 26.58 93.47 39.16 112.72 34.28 112.72 21.15"/><polygon class="cls-13" points="93.47 39.16 94.21 42.19 112.72 37.68 112.72 34.28 93.47 39.16"/><polygon class="cls-1" points="90.69 28.04 88.15 29.44 90.69 39.31 91.03 39.17 90.69 28.04"/><rect class="cls-14" x="74.28" y="7.44" width="1.09" height="2.74" rx="0.54"/><rect class="cls-14" x="74.28" y="12.81" width="1.09" height="7.28" rx="0.54"/><rect class="cls-14" x="91.17" y="12.13" width="1.09" height="2.74" rx="0.54" transform="translate(28.68 -54.48) rotate(38.79)"/><rect class="cls-14" x="85.71" y="16.57" width="1.09" height="7.44" rx="0.54" transform="translate(31.74 -49.56) rotate(38.79)"/><rect class="cls-14" x="57.95" y="12.08" width="1.09" height="3.17" rx="0.54" transform="translate(112.64 -12.33) rotate(141.21)"/><rect class="cls-14" x="62.16" y="16.01" width="1.09" height="5.95" rx="0.54" transform="translate(123.47 -5.5) rotate(141.21)"/></svg>