<svg id="레이어_1" data-name="레이어 1" xmlns="http://www.w3.org/2000/svg" viewBox="0 0 150 77.42"><defs><style>.cls-1,.cls-11{fill:#fff;}.cls-2{fill:#31c7cf;}.cls-3{fill:#07b1b2;}.cls-4{fill:#f3910f;}.cls-5{fill:#f6b619;}.cls-6{fill:#e3e4e4;}.cls-7{fill:#dadfe4;}.cls-8{fill:#e9b741;}.cls-9{fill:#808285;}.cls-10{fill:#58595b;}.cls-11{opacity:0.3;}.cls-12{fill:#aaabac;}.cls-13{fill:#000002;}.cls-14{fill:#fbc7ae;}</style></defs><rect class="cls-1" width="150" height="77.42"/><rect class="cls-2" x="59.37" y="9.91" width="28.48" height="41.08" rx="1.89"/><rect class="cls-3" x="66.55" y="9.91" width="13.97" height="2.05"/><path class="cls-4" d="M71.52,9.44H72.6a1.46,1.46,0,0,1,0-.42H71.57A1.93,1.93,0,0,0,71.52,9.44Z"/><path class="cls-5" d="M73.53,7.44a2,2,0,0,0-2,1.58h1.07a.94.94,0,0,1,1.77,0H75.5A2,2,0,0,0,73.53,7.44Z"/><path class="cls-4" d="M74.41,9a1.18,1.18,0,0,1,0,.42h1.1a1.93,1.93,0,0,0,0-.42Z"/><rect class="cls-6" x="61.73" y="11.96" width="25" height="37.31" transform="translate(-1.52 3.99) rotate(-3.05)"/><rect class="cls-4" x="67.16" y="11.96" width="12.77" height="0.91"/><path class="cls-5" d="M79.93,9.91c.57-1-12.13-.23-12.3-.47-.85-.06-.34,2.1-.47,2.52H79.93Z"/><rect class="cls-1" x="61.73" y="11.96" width="25" height="37.31"/><path class="cls-6" d="M70,26.59c-2.27.06-5.74.39-5.79-2.81.22-2.41-1.14-8.12,2.82-8.09,2.26,0,5.73-.39,5.78,2.82C72.61,20.91,74,26.63,70,26.59Z"/><path class="cls-6" d="M84.14,17.2c-.24-.23-11.08.54-10.6-.47,0-.33,0-.77.47-.77H84.14C84.79,16,84.79,17.21,84.14,17.2Z"/><path class="cls-6" d="M84.14,19.28c-.24-.23-11.08.54-10.6-.47,0-.33,0-.78.47-.77H84.14C84.79,18,84.79,19.28,84.14,19.28Z"/><path class="cls-6" d="M84.14,21.46c-.24-.23-11.08.55-10.6-.47,0-.33,0-.77.47-.77H84.14C84.79,20.22,84.79,21.47,84.14,21.46Z"/><path class="cls-7" d="M81.22,23.63c-.23-.19-8.09.46-7.68-.42,0-.3,0-.7.42-.7h7.26C81.8,22.5,81.8,23.64,81.22,23.63Z"/><path class="cls-6" d="M84.25,29.23H70.61c-.32,0-.39-.33-.36-.58a.36.36,0,0,1,.36-.36H84.25C84.75,28.28,84.75,29.24,84.25,29.23Z"/><path class="cls-6" d="M78.32,30.61H70.6c-.31,0-.38-.32-.35-.57-.41-.75,7.94-.18,8.07-.34C78.81,29.69,78.81,30.62,78.32,30.61Z"/><path class="cls-6" d="M67.37,37.28c-1.12.06-3,.15-3-1.46,0-1.13-.15-3,1.46-3,1.13,0,3-.15,3,1.46C68.89,35.42,69,37.31,67.37,37.28Z"/><path class="cls-6" d="M72.67,37.11c-1.12.06-3,.15-3-1.46-.05-1.13-.15-3,1.46-3,1.13,0,3-.15,3,1.46C74.19,35.25,74.29,37.14,72.67,37.11Z"/><path class="cls-6" d="M77.91,37.11c-1.12.06-3,.15-3-1.46,0-1.13-.15-3,1.46-3,1.13,0,3-.15,3,1.46C79.43,35.25,79.53,37.14,77.91,37.11Z"/><path class="cls-6" d="M83.14,37c-1.12.06-3,.15-3-1.46-.05-1.13-.15-3,1.46-3,1.13-.06,3-.15,3,1.46C84.66,35.15,84.76,37,83.14,37Z"/><path class="cls-6" d="M84.27,40.89H64.72c-.3,0-.37-.32-.34-.56a.34.34,0,0,1,.34-.34H84.27C84.74,40,84.74,40.9,84.27,40.89Z"/><path class="cls-6" d="M84.27,42.53H64.72c-.3,0-.37-.32-.34-.57a.34.34,0,0,1,.34-.34H84.27C84.74,41.62,84.74,42.53,84.27,42.53Z"/><path class="cls-6" d="M74.65,44.16c-.23-.19-10.53.43-10.27-.34,0-.24,0-.57.34-.56h9.93C75.13,43.25,75.12,44.17,74.65,44.16Z"/><path class="cls-6" d="M84.27,39.29H64.72c-.3,0-.37-.32-.34-.56a.34.34,0,0,1,.34-.34H84.27C84.74,38.38,84.74,39.3,84.27,39.29Z"/><polygon class="cls-8" points="76.98 24.45 77.19 25.11 77.88 25.11 77.33 25.51 77.54 26.16 76.98 25.76 76.43 26.16 76.64 25.51 76.08 25.11 76.77 25.11 76.98 24.45"/><polygon class="cls-8" points="79.25 24.45 79.46 25.11 80.15 25.11 79.59 25.51 79.81 26.16 79.25 25.76 78.7 26.16 78.91 25.51 78.36 25.11 79.04 25.11 79.25 24.45"/><polygon class="cls-8" points="81.48 24.45 81.69 25.11 82.38 25.11 81.82 25.51 82.04 26.16 81.48 25.76 80.93 26.16 81.14 25.51 80.58 25.11 81.27 25.11 81.48 24.45"/><polygon class="cls-8" points="83.71 24.45 83.92 25.11 84.61 25.11 84.05 25.51 84.26 26.16 83.71 25.76 83.16 26.16 83.37 25.51 82.81 25.11 83.5 25.11 83.71 24.45"/><polygon class="cls-8" points="74.84 24.45 75.06 25.11 75.74 25.11 75.19 25.51 75.4 26.16 74.84 25.76 74.29 26.16 74.5 25.51 73.95 25.11 74.63 25.11 74.84 24.45"/><rect class="cls-9" x="84.86" y="33.85" width="2" height="7.87" transform="translate(-6.73 22.73) rotate(-14.52)"/><path class="cls-10" d="M88.91,48.34c-.63.25-1.55.31-1.75-.53l-1.67-6.45c-.35-1.27,2.12-1.91,2.43-.63l1.67,6.45A.94.94,0,0,1,88.91,48.34Z"/><polygon class="cls-11" points="76.68 20.64 76.88 21.14 79.89 33.16 81.47 34.27 84.48 34.06 83.98 33.35 80.36 18.79 77.42 19.82 76.68 20.64"/><polygon class="cls-11" points="81.48 18.84 85.13 32.98 85.97 33.55 86.82 32 83.41 18.43 81.94 18.22 81.48 18.84"/><path class="cls-12" d="M82.29,17.74c-11,.19-11,16.72,0,16.9C93.25,34.46,93.25,17.93,82.29,17.74Zm0,15.81c-9.7-.17-9.7-14.59,0-14.76C92,19,92,33.39,82.29,33.55Z"/><polygon class="cls-13" points="66.32 31.2 65.15 31.2 64.91 29.23 66.32 29.23 66.32 31.2"/><path class="cls-14" d="M66.32,29.41c.41-.11.11-.24.84-1.12.06-.29-.24-1.13.48-.85a1.67,1.67,0,0,1,.06,1.49c2.41-.05,1.6-.17,1.14,1.93,0,.4-1.76.19-2,.24a.27.27,0,0,1-.21-.13s-.19-.09-.29,0Z"/></svg>