<svg id="레이어_1" data-name="레이어 1" xmlns="http://www.w3.org/2000/svg" viewBox="0 0 150 77.42"><defs><style>.cls-1{fill:#c6c8c8;}.cls-2{fill:#3acea6;}.cls-3{fill:#fff;}.cls-4{fill:#ececec;}.cls-5{font-size:1.59px;fill:#4fdfbb;font-family:GodoB, Godo B;}.cls-6{fill:#929292;}.cls-7{fill:#d4d4d4;}.cls-8{fill:#4f515a;}.cls-9{fill:#a9dafa;}.cls-10{fill:#707076;}.cls-11{fill:#f8ad57;}.cls-12{fill:#6d6f70;}.cls-13{fill:#be1e31;}.cls-14{fill:#f6b53f;}.cls-15{fill:#6a696f;}.cls-16{fill:#f4f6f5;}</style></defs><path class="cls-1" d="M68.42,7.4a3.29,3.29,0,0,0-3.29,3.29V47.61a3.29,3.29,0,0,0,3.29,3.29h7.29V7.4Z"/><path class="cls-1" d="M83.26,7.4H75.71V50.9h7.55a3.29,3.29,0,0,0,3.29-3.29V10.69A3.29,3.29,0,0,0,83.26,7.4Z"/><path class="cls-2" d="M85.29,11.13a2.6,2.6,0,0,0-2.6-2.61H68.86a2.61,2.61,0,0,0-2.61,2.61V17.2h19Z"/><path class="cls-3" d="M66.25,17.2V46.9a2.61,2.61,0,0,0,2.61,2.61H82.69a2.6,2.6,0,0,0,2.6-2.61V17.2Z"/><path class="cls-4" d="M73.2,20.45H58a1.05,1.05,0,0,0-1.06,1.06v2A1.05,1.05,0,0,0,58,24.55H73.2a1.05,1.05,0,0,0,1.06-1.06v-2A1.05,1.05,0,0,0,73.2,20.45Z"/><path class="cls-3" d="M72.87,20H57.66a1.06,1.06,0,0,0-1.06,1v2a1.07,1.07,0,0,0,1.06,1.06H72.87a1.06,1.06,0,0,0,1-1.06v-2A1,1,0,0,0,72.87,20Z"/><text class="cls-5" transform="translate(66.16 22.67)">\</text><text class="cls-5" transform="translate(71.32 22.67)">0</text><rect class="cls-6" x="57.73" y="21.42" width="7.01" height="0.4" rx="0.2"/><rect class="cls-6" x="57.73" y="22.21" width="7.01" height="0.4" rx="0.2"/><path class="cls-4" d="M73.2,27.45H58a1.05,1.05,0,0,0-1.06,1.06v2A1.05,1.05,0,0,0,58,31.55H73.2a1.05,1.05,0,0,0,1.06-1.06v-2A1.05,1.05,0,0,0,73.2,27.45Z"/><path class="cls-3" d="M72.87,27H57.66a1.06,1.06,0,0,0-1.06,1v2a1.07,1.07,0,0,0,1.06,1.06H72.87a1.06,1.06,0,0,0,1-1.06v-2A1,1,0,0,0,72.87,27Z"/><text class="cls-5" transform="translate(66.16 29.67)">\</text><text class="cls-5" transform="translate(71.32 29.67)">0</text><rect class="cls-6" x="57.73" y="28.42" width="7.01" height="0.4" rx="0.2"/><rect class="cls-6" x="57.73" y="29.21" width="7.01" height="0.4" rx="0.2"/><path class="cls-4" d="M73.2,34.45H58a1.05,1.05,0,0,0-1.06,1.06v2A1.05,1.05,0,0,0,58,38.55H73.2a1.05,1.05,0,0,0,1.06-1.06v-2A1.05,1.05,0,0,0,73.2,34.45Z"/><path class="cls-3" d="M72.87,34H57.66a1.06,1.06,0,0,0-1.06,1v2a1.07,1.07,0,0,0,1.06,1.06H72.87a1.06,1.06,0,0,0,1-1.06v-2A1,1,0,0,0,72.87,34Z"/><text class="cls-5" transform="translate(66.16 36.67)">\</text><text class="cls-5" transform="translate(71.32 36.67)">0</text><rect class="cls-6" x="57.73" y="35.42" width="7.01" height="0.4" rx="0.2"/><rect class="cls-6" x="57.73" y="36.21" width="7.01" height="0.4" rx="0.2"/><rect class="cls-7" x="67.64" y="40.32" width="8.59" height="0.4" rx="0.2"/><rect class="cls-7" x="67.64" y="41.25" width="8.59" height="0.4" rx="0.2"/><rect class="cls-7" x="67.64" y="42.17" width="8.59" height="0.4" rx="0.2"/><path class="cls-8" d="M78.86,18.24a1.3,1.3,0,0,0-1.3,1.3V41.67a1.3,1.3,0,0,0,1.3,1.3h6.43V18.24Z"/><path class="cls-9" d="M91.6,18.24h-5V43h5a1.3,1.3,0,0,0,1.3-1.3V19.54A1.3,1.3,0,0,0,91.6,18.24Z"/><path class="cls-10" d="M79.7,40.52a.58.58,0,0,1-.64-.56.46.46,0,0,1,.16-.34l.14.11a.3.3,0,0,0-.11.23c0,.2.17.34.44.34s.44-.13.44-.33a.34.34,0,0,0-.12-.26l.13-.12a.48.48,0,0,1,.18.38A.55.55,0,0,1,79.7,40.52Z"/><path class="cls-10" d="M79.39,39.41v-.18h.16a.3.3,0,0,1-.18-.26.31.31,0,0,1,0-.1l.19,0a.24.24,0,0,0,0,.09c0,.07,0,.16.19.21h.56v.22Z"/><path class="cls-10" d="M79.84,38.8a.44.44,0,0,1-.47-.42c0-.25.17-.38.43-.38h.1v.58a.26.26,0,0,0,.25-.27.39.39,0,0,0-.06-.21l.13-.07a.52.52,0,0,1,.1.31A.44.44,0,0,1,79.84,38.8Zm-.08-.61c-.14,0-.23.06-.23.18s.08.2.23.22Z"/><path class="cls-10" d="M79.84,37.85a.42.42,0,0,1-.47-.38.3.3,0,0,1,.1-.24H79V37H80.3v.18l-.1,0h0a.37.37,0,0,1,.12.26C80.32,37.71,80.14,37.85,79.84,37.85Zm.2-.61h-.42a.24.24,0,0,0-.08.18c0,.12.11.21.3.21s.3-.07.3-.2A.24.24,0,0,0,80,37.24Z"/><path class="cls-10" d="M79.11,36.78a.12.12,0,0,1-.12-.13.12.12,0,1,1,.24,0A.12.12,0,0,1,79.11,36.78Zm.28,0v-.21h.91v.21Z"/><path class="cls-10" d="M80,36.24h-.43v.13H79.4v-.14l-.25,0V36h.25v-.23h.17V36H80c.11,0,.16,0,.16-.13a.29.29,0,0,0,0-.09l.16,0a1,1,0,0,1,0,.19C80.32,36.16,80.19,36.24,80,36.24Z"/><path class="cls-10" d="M79.07,34.88l.13-.1s0,0,.07,0,0,.05,0,.07l-.08.06a.16.16,0,0,0,0,.09q0,.19.27.36a1.24,1.24,0,0,0,.68.17.17.17,0,0,0,.12,0,.21.21,0,0,0,0-.12.6.6,0,0,0-.13-.28,1.11,1.11,0,0,0-.36-.3s0,0,0-.07.05,0,.07,0a1.34,1.34,0,0,1,.44.38.58.58,0,0,1,.12.33.28.28,0,0,1-.07.17.25.25,0,0,1-.2.08,1.24,1.24,0,0,1-.79-.22A.62.62,0,0,1,79,35,.24.24,0,0,1,79.07,34.88Z"/><path class="cls-10" d="M79.5,34.06l0-.05h0a.08.08,0,0,1,0-.09s0,0,0,0l.41.09a2.32,2.32,0,0,0,.37,0s.06,0,.07.05a.07.07,0,0,1-.06.07h-.17a.52.52,0,0,1,.17.15.36.36,0,0,1,0,.19.21.21,0,0,1,0,.12.21.21,0,0,1-.18.07.69.69,0,0,1-.43-.16.41.41,0,0,1-.2-.32A.22.22,0,0,1,79.5,34.06Zm.27.3a.49.49,0,0,0,.31.13c.07,0,.11,0,.13,0a.24.24,0,0,0,0-.08c0-.06-.06-.13-.19-.21a.7.7,0,0,0-.36-.12s0,0-.05,0a.07.07,0,0,0,0,.06A.32.32,0,0,0,79.77,34.36Z"/><path class="cls-10" d="M79.55,33.47a.17.17,0,0,1,.14,0,.44.44,0,0,1-.14-.13.37.37,0,0,1-.07-.14,0,0,0,0,1,0-.06.07.07,0,0,1,.09,0,.57.57,0,0,0,.22.24,1.68,1.68,0,0,0,.49.19.07.07,0,0,1,.06.09q0,.08-.06.06a4,4,0,0,0-.54-.15c-.11,0-.17,0-.17.1s0,0,0,0a.07.07,0,0,1-.06-.07A.3.3,0,0,1,79.55,33.47Z"/><path class="cls-10" d="M79.56,32.28a2.87,2.87,0,0,0,.42,0h.15l.15,0s.07,0,.08,0a.08.08,0,0,1,0,.09h-.18a.38.38,0,0,1,.16.15.49.49,0,0,1,0,.25.17.17,0,0,1-.06.12.25.25,0,0,1-.19.06.6.6,0,0,1-.42-.16.43.43,0,0,1-.19-.3.31.31,0,0,1,0-.1l0,0-.25-.05-.23-.08s0,0-.07-.08,0-.07.08-.05A3.37,3.37,0,0,0,79.56,32.28Zm.2.5a.59.59,0,0,0,.32.11.21.21,0,0,0,.12,0s0,0,0-.06a.29.29,0,0,0-.16-.24.69.69,0,0,0-.36-.1.1.1,0,0,0-.11.11Q79.61,32.66,79.76,32.78Z"/><path class="cls-11" d="M84.42,40.77a.87.87,0,0,0,.74-.86v-.38h-.74Z"/><path class="cls-11" d="M83.65,39.53v1.26h.64V39.53Z"/><path class="cls-11" d="M85.16,38.34V38a.87.87,0,0,0-.72-.86v1.24Z"/><rect class="cls-11" x="82.72" y="39.53" width="0.8" height="1.26"/><path class="cls-11" d="M81.72,39.53v.38a.88.88,0,0,0,.86.87V39.53Z"/><path class="cls-11" d="M84.44,38.47H82.58V37.08a.88.88,0,0,0-.86.88V39.4h3.44v-.93Z"/><rect class="cls-11" x="82.72" y="37.08" width="0.79" height="1.26"/><rect class="cls-11" x="83.64" y="37.08" width="0.66" height="1.26"/><polygon class="cls-12" points="82.98 41.25 84.04 41.25 83.51 42.04 82.98 41.25"/><path class="cls-13" d="M91.52,22.14a1.27,1.27,0,0,0-1.07-.59,1.28,1.28,0,0,0-1.07.59,1.34,1.34,0,0,0-.19.66,1.26,1.26,0,1,0,2.52,0A1.24,1.24,0,0,0,91.52,22.14Z"/><path class="cls-14" d="M90.45,21.42A1.42,1.42,0,0,1,91.6,22a1.22,1.22,0,0,0,.11-.5,1.26,1.26,0,0,0-2.52,0,1.22,1.22,0,0,0,.11.5A1.42,1.42,0,0,1,90.45,21.42Z"/><path class="cls-15" d="M87.81,40.55v-.24h-.9v.23s0,0,0,.06l0,0-.06,0a.11.11,0,0,1,0-.06v-.38h1V40h-.32l0,0s0,0,0-.05a.11.11,0,0,1,0-.06l0,0h.4l0,0a.11.11,0,0,1,0,.06v.61a.08.08,0,0,1,0,.05s0,0-.06,0a.06.06,0,0,1,0,0A.08.08,0,0,1,87.81,40.55Z"/><path class="cls-15" d="M88,38.81v.69h-.52a.15.15,0,0,1-.11,0,.16.16,0,0,1,0-.11v-.46h-.37v.54a.07.07,0,0,1,0,.06l0,0-.06,0a.14.14,0,0,1,0-.06v-.54a.16.16,0,0,1,0-.11.13.13,0,0,1,.1,0h.37a.14.14,0,0,1,.11,0,.16.16,0,0,1,0,.11v.46h.37v-.54a.08.08,0,0,1,0-.05s0,0,.06,0,0,0,0,0A.08.08,0,0,1,88,38.81Z"/><path class="cls-15" d="M86.91,37.62h.29a.21.21,0,0,1,.16.06.24.24,0,0,1,.15-.06h.3a.14.14,0,0,1,.15.15v.54a.08.08,0,0,1,0,0l0,0-.06,0a.08.08,0,0,1,0,0v-.54h-.3l-.05,0a.07.07,0,0,0,0,.06v.3a.09.09,0,0,1,0,.06l0,0,0,0a.09.09,0,0,1,0-.06v-.3s0,0,0-.06l-.05,0h-.3v.54a.07.07,0,0,1,0,.06l0,0-.06,0a.14.14,0,0,1,0-.06v-.54a.16.16,0,0,1,0-.11A.13.13,0,0,1,86.91,37.62Z"/><path class="cls-15" d="M87.89,36.77h-.32v.46h-.73a.09.09,0,0,1-.06,0,.08.08,0,0,1,0-.05.14.14,0,0,1,0-.06l.06,0h.58v-.3H87l0,0a.09.09,0,0,1,0-.06.05.05,0,0,1,0,0s0,0,0,0h.45a.07.07,0,0,1,0-.06l0,0,.06,0a.14.14,0,0,1,0,.06h.32s0,0,0,0a.08.08,0,0,1,0,0,.14.14,0,0,1,0,.06Z"/><path class="cls-15" d="M91.16,40.67h-.65a.11.11,0,0,1-.07,0,.09.09,0,0,1,0-.07v-.34a.09.09,0,0,1,0-.07.11.11,0,0,1,.07,0h.65a.11.11,0,0,1,.08,0,.09.09,0,0,1,0,.07v.34a.09.09,0,0,1,0,.07A.11.11,0,0,1,91.16,40.67Zm0-.43h-.64v.33h.64Z"/><path class="cls-15" d="M91.16,39.82v-.16h-.64v.16a.05.05,0,0,1,0,0h-.07a.05.05,0,0,1,0,0v-.27h.75v-.11h-.23l0,0s0,0,0,0,0,0,0,0l0,0h.28a.07.07,0,0,1,.06.06v.43a.07.07,0,0,1-.06.06l0,0S91.16,39.84,91.16,39.82Z"/><path class="cls-15" d="M90.51,38.53l.74.44,0,0a.05.05,0,0,1,0,0s0,0,0,0h0l-.74-.44a.05.05,0,0,1,0,0l0,0s0,0,0,0Z"/><path class="cls-15" d="M91.27,37.78v.5h-.38a.09.09,0,0,1-.07,0,.1.1,0,0,1,0-.08v-.33h-.26v.39a.08.08,0,0,1,0,0h-.07a.08.08,0,0,1,0,0v-.39a.1.1,0,0,1,.11-.11h.26a.1.1,0,0,1,.11.11v.33h.27v-.39s0,0,0,0l0,0a.05.05,0,0,1,0,0Z"/><path class="cls-15" d="M90.52,36.93h.2a.17.17,0,0,1,.12,0,.13.13,0,0,1,.11,0h.21a.13.13,0,0,1,.08,0,.11.11,0,0,1,0,.08v.38a.05.05,0,0,1,0,0l0,0,0,0s0,0,0,0V37H91l0,0a.05.05,0,0,0,0,0v.21s0,0,0,0l0,0,0,0a.05.05,0,0,1,0,0v-.22a0,0,0,0,0,0,0l0,0h-.21v.39l0,0h-.07l0,0V37a.1.1,0,0,1,.11-.11Z"/><path class="cls-15" d="M87.81,35.32V35h-.37v.46h-.68v-.53a.07.07,0,0,1,.13,0s0,0,0,0v.38h.38V35a.13.13,0,0,1,0-.1.16.16,0,0,1,.11,0h.37a.16.16,0,0,1,.11,0,.13.13,0,0,1,0,.1v.36a.44.44,0,0,1,0,.1l0,.11a.08.08,0,0,1-.07,0l0,0s0,0,0-.05a.14.14,0,0,1,0-.06l0-.1A0,0,0,0,0,87.81,35.32Z"/><path class="cls-15" d="M86.76,34.4v-.08a.05.05,0,0,1,0,0s0,0,0,0,0,0,0,0,0,0,0,0h.51v-.53a.07.07,0,0,1,0-.06l0,0h.4l0,0a.14.14,0,0,1,0,.06v.61a.08.08,0,0,1,0,.05s0,0,0,0h-1a.09.09,0,0,1-.06,0A.08.08,0,0,1,86.76,34.4Zm.81-.08h.24v-.46h-.24Z"/><path class="cls-15" d="M86.91,33.36h-.07l0,0s0,0,0-.05V32.6h.47l.06,0,.24.28h.35a.07.07,0,0,1,.06,0,.07.07,0,0,1,0,.1s0,0,0,0H87.5a.06.06,0,0,1-.06,0l-.24-.28h-.28v.46a.08.08,0,0,1,.06.08s0,0,0,.05Z"/><path class="cls-15" d="M87.81,32.25h-.37a.16.16,0,0,1-.11,0,.15.15,0,0,1,0-.11h-.45l-.06,0a.08.08,0,0,1,0,0v-.31a.14.14,0,0,1,0-.06l.06,0h.45a.15.15,0,0,1,0-.11.14.14,0,0,1,.11,0h.37a.14.14,0,0,1,.15.15v.46a.13.13,0,0,1,0,.11A.14.14,0,0,1,87.81,32.25Zm-.9-.31h.38v-.16h-.38Zm.53.15h.37v-.46h-.37Z"/><path class="cls-15" d="M88,29.62v.07a.14.14,0,0,1,0,.06.11.11,0,0,1-.06,0l0,0a.14.14,0,0,1,0-.06h-.5v.54a.05.05,0,0,1,0,.05s0,0,0,0h-.39a.07.07,0,0,1-.06,0,.08.08,0,0,1,0-.05v-.61a.14.14,0,0,1,0-.06l.06,0h1l.06,0A.14.14,0,0,1,88,29.62Zm-.81.07h-.24v.46h.24Z"/><path class="cls-15" d="M87.82,29.19h-.91a.15.15,0,0,1-.11,0,.21.21,0,0,1,0-.11v-.47a.18.18,0,0,1,0-.1.15.15,0,0,1,.11,0h.91a.14.14,0,0,1,.14.14V29a.14.14,0,0,1,0,.11A.13.13,0,0,1,87.82,29.19Zm0-.61h-.9V29h.9Z"/><path class="cls-15" d="M87.81,28v-.23h-.9V28a.06.06,0,0,1,0,.05l0,0-.06,0s0,0,0-.05v-.39h1v-.15h-.32l0,0s0,0,0-.05a.11.11,0,0,1,0-.06l0,0h.4l0,0a.11.11,0,0,1,0,.06V28a.08.08,0,0,1,0,.05s0,0-.06,0a.06.06,0,0,1,0,0A.08.08,0,0,1,87.81,28Z"/><path class="cls-15" d="M88,26.26V27h-.52a.15.15,0,0,1-.11,0,.16.16,0,0,1,0-.11v-.46h-.37v.54a.07.07,0,0,1,0,.06l0,0-.06,0a.14.14,0,0,1,0-.06v-.54a.16.16,0,0,1,0-.11.13.13,0,0,1,.1,0h.37a.14.14,0,0,1,.11,0,.16.16,0,0,1,0,.11v.46h.37v-.54a.08.08,0,0,1,0-.05s0,0,.06,0,0,0,0,0A.08.08,0,0,1,88,26.26Z"/><path class="cls-15" d="M86.91,24.25h.29a.21.21,0,0,1,.16.06.24.24,0,0,1,.15-.06h.3a.16.16,0,0,1,.11.05.13.13,0,0,1,0,.1v.54a.08.08,0,0,1,0,0,.05.05,0,0,1,0,0,.07.07,0,0,1-.06,0,.08.08,0,0,1,0,0v-.53h-.3s0,0-.05,0,0,0,0,.05v.31a.05.05,0,0,1,0,.05s0,0,0,0,0,0,0,0a.05.05,0,0,1,0-.05v-.31s0,0,0-.05a.05.05,0,0,0-.05,0h-.3V25a.06.06,0,0,1,0,.05l0,0-.06,0s0,0,0-.05V24.4a.18.18,0,0,1,.15-.15Z"/><path class="cls-15" d="M87.89,23.4h-.32v.46h-.73l-.06,0a.14.14,0,0,1,0-.06.08.08,0,0,1,0-.05.07.07,0,0,1,.06,0h.58V23.4H87l0,0a.05.05,0,0,1,0-.05.09.09,0,0,1,0-.06l0,0h.45s0,0,0-.05a.05.05,0,0,1,0,0,.09.09,0,0,1,.06,0,.08.08,0,0,1,0,.05h.32l0,0a.14.14,0,0,1,0,.06.08.08,0,0,1,0,.05Z"/><path class="cls-15" d="M87.81,22.5v-.35h-.37v.46h-.68v-.53a.07.07,0,0,1,0-.06l0,0,0,0s0,0,0,.06v.38h.38v-.31a.14.14,0,0,1,.15-.15h.37a.14.14,0,0,1,.15.15v.35a.36.36,0,0,1,0,.1l0,.12a.07.07,0,0,1-.07,0s0,0,0,0a.05.05,0,0,1,0,0,.17.17,0,0,1,0-.05l0-.1S87.81,22.52,87.81,22.5Z"/><path class="cls-15" d="M86.76,21.58v-.07a.09.09,0,0,1,0-.06l0,0,0,0a.07.07,0,0,1,0,.06h.51V21a.06.06,0,0,1,0,0l0,0h.4l0,0A.11.11,0,0,1,88,21v.6a.11.11,0,0,1,0,.06l0,0h-1l-.06,0A.11.11,0,0,1,86.76,21.58Zm.81-.07h.24v-.46h-.24Z"/><path class="cls-3" d="M70.13,13.32h.45c.24,0,.4.13.4.35a.36.36,0,0,1-.41.36h-.28v.49h-.16Zm.16.57h.28c.16,0,.24-.08.24-.22s-.1-.21-.24-.21h-.28Z"/><path class="cls-3" d="M71.78,14.33c0,.08,0,.16,0,.19h-.14a.35.35,0,0,1,0-.12.28.28,0,0,1-.27.14.27.27,0,0,1-.3-.27c0-.19.16-.28.41-.28h.15v-.08c0-.07,0-.17-.18-.17a.17.17,0,0,0-.19.14h-.15c0-.12.09-.25.34-.25s.33.08.33.28Zm-.15-.24h-.14c-.17,0-.26.05-.26.17a.15.15,0,0,0,.17.16c.21,0,.23-.14.23-.3Z"/><path class="cls-3" d="M72.08,13.65c.14.41.22.65.24.73h0c0-.09.09-.29.23-.73h.15l-.31.91c-.09.25-.16.32-.34.32H72v-.13H72c.11,0,.16-.05.21-.2l-.33-.9Z"/><path class="cls-3" d="M72.87,13.87v-.22H73v.13a.27.27,0,0,1,.25-.15.25.25,0,0,1,.25.15.28.28,0,0,1,.27-.15c.14,0,.28.08.28.32v.57h-.15V14c0-.1,0-.2-.17-.2s-.21.1-.21.26v.5H73.4V14c0-.11,0-.21-.17-.21S73,13.87,73,14v.48h-.15Z"/><path class="cls-3" d="M74.42,14.11c0,.18.09.3.23.3a.19.19,0,0,0,.21-.13H75a.36.36,0,0,1-.37.26.4.4,0,0,1-.39-.45c0-.26.13-.46.4-.46A.37.37,0,0,1,75,14v.07Zm.46-.11c0-.14-.07-.25-.22-.25s-.22.1-.24.25Z"/><path class="cls-3" d="M75.23,13.87v-.22h.14a.61.61,0,0,1,0,.14.27.27,0,0,1,.27-.16c.17,0,.29.1.29.33v.56h-.15V14c0-.13-.05-.22-.18-.22s-.23.12-.23.3v.46h-.15Z"/><path class="cls-3" d="M76.08,13.65h.15v-.26h.15v.26h.19v.12h-.19v.51c0,.08,0,.13.1.13h.07v.11a.27.27,0,0,1-.13,0c-.13,0-.19-.07-.19-.21v-.55h-.15Z"/><path class="cls-3" d="M77.2,13.32h.16v.5H78v-.5h.16v1.2H78V14h-.62v.56H77.2Z"/><path class="cls-3" d="M78.41,13.26h.15v.18h-.15Zm0,.39h.15v.87h-.15Z"/><path class="cls-3" d="M78.88,14.27a.21.21,0,0,0,.22.15c.13,0,.18-.05.18-.13s0-.12-.21-.16-.3-.14-.3-.26.09-.24.31-.24.32.13.33.25h-.14a.18.18,0,0,0-.19-.14c-.12,0-.16.06-.16.12s0,.1.19.13.32.16.32.28-.12.27-.34.27a.31.31,0,0,1-.35-.27Z"/><path class="cls-3" d="M79.51,13.65h.15v-.26h.15v.26H80v.12h-.19v.51c0,.08,0,.13.1.13H80v.11a.27.27,0,0,1-.13,0c-.13,0-.19-.07-.19-.21v-.55h-.15Z"/><path class="cls-3" d="M80.9,14.08a.41.41,0,0,1-.41.46.46.46,0,1,1,.41-.46Zm-.65,0c0,.19.09.33.25.33s.25-.13.25-.33-.09-.33-.25-.33S80.25,13.88,80.25,14.08Z"/><path class="cls-3" d="M81.1,13.88v-.23h.15v.17a.31.31,0,0,1,.29-.19v.15c-.18,0-.29.09-.29.32v.42H81.1Z"/><path class="cls-3" d="M81.81,13.65c.14.41.22.65.24.73h0l.23-.73h.16l-.32.91c-.09.25-.15.32-.33.32H81.7v-.13h.07c.11,0,.15-.05.2-.2l-.32-.9Z"/><path class="cls-1" d="M75.77,8.52H70.62v.54a1,1,0,0,0,1,1h4.17V8.52Z"/><path class="cls-1" d="M75.84,8.52v1.59h4a1,1,0,0,0,1.05-1V8.52Z"/><rect class="cls-16" x="72.34" y="8.92" width="4.76" height="0.53" rx="0.26"/><circle class="cls-16" cx="78.15" cy="9.18" r="0.33"/></svg>