<?xml version="1.0" encoding="iso-8859-1"?>
<!-- Generator: Adobe Illustrator 16.0.0, SVG Export Plug-In . SVG Version: 6.00 Build 0)  -->
<!DOCTYPE svg PUBLIC "-//W3C//DTD SVG 1.1//EN" "http://www.w3.org/Graphics/SVG/1.1/DTD/svg11.dtd">
<svg version="1.1" id="&#xB808;&#xC774;&#xC5B4;_1" xmlns="http://www.w3.org/2000/svg" xmlns:xlink="http://www.w3.org/1999/xlink"
	 x="0px" y="0px" width="711px" height="254px" viewBox="0 0 711 254" style="enable-background:new 0 0 711 254;"
	 xml:space="preserve">
<g>
	<defs>
		<rect id="SVGID_1_" x="-44" y="-272.834" width="800" height="800"/>
	</defs>
	<clipPath id="SVGID_2_">
		<use xlink:href="#SVGID_1_"  style="overflow:visible;"/>
	</clipPath>
	<path style="clip-path:url(#SVGID_2_);fill:#3E3A39;" d="M534.758,158.539c0,5.333-0.892,10.311-2.67,14.921
		c-1.779,4.615-4.251,8.696-7.418,12.252c-3.169,3.561-6.891,6.507-11.172,8.839c-4.278,2.333-8.979,3.947-14.087,4.828v23.181
		h59.187c2.666,0,4.001,2.725,4.001,8.167c0,5.338-1.335,8.002-4.001,8.002h-139.21V222.56h61.521v-23.344
		c-5.005-0.995-9.617-2.664-13.839-5.002c-4.227-2.332-7.864-5.279-10.923-8.834c-3.055-3.551-5.446-7.582-7.165-12.094
		c-1.724-4.496-2.587-9.414-2.587-14.747c0-6.111,1.141-11.722,3.418-16.837c2.276-5.116,5.389-9.504,9.336-13.173
		c3.944-3.67,8.614-6.502,14.007-8.503c5.386-2.001,11.197-3.003,17.422-3.003c6.222,0,12.028,1.002,17.419,3.003
		c5.393,2.001,10.061,4.833,14.007,8.503c3.942,3.669,7.058,8.057,9.333,13.173C533.616,146.817,534.758,152.428,534.758,158.539
		 M516.417,158.539c0-3.773-0.695-7.255-2.082-10.419c-1.394-3.17-3.254-5.834-5.586-8.003c-2.333-2.164-5.062-3.862-8.169-5.081
		c-3.112-1.229-6.447-1.842-10.003-1.842c-3.561,0-6.894,0.613-10.004,1.842c-3.114,1.219-5.836,2.917-8.171,5.081
		c-2.332,2.169-4.196,4.833-5.583,8.003c-1.392,3.164-2.083,6.646-2.083,10.419c0,3.893,0.691,7.394,2.083,10.504
		c1.387,3.109,3.251,5.749,5.583,7.918c2.335,2.169,5.057,3.863,8.171,5.086c3.11,1.222,6.443,1.837,10.004,1.837
		c3.556,0,6.891-0.615,10.003-1.837c3.107-1.223,5.836-2.917,8.169-5.086c2.332-2.169,4.192-4.809,5.586-7.918
		C515.722,165.933,516.417,162.432,516.417,158.539"/>
	<path style="clip-path:url(#SVGID_2_);fill:#3E3A39;" d="M572.094,179.581v-14.392h135.154c2.481,0,3.722,2.422,3.722,7.271
		c0,2.802-0.324,4.689-0.971,5.66c-0.648,0.971-1.564,1.461-2.751,1.461H572.094z M587.129,142.555
		c3.016-1.081,6.331-2.349,9.941-3.8c3.61-1.455,7.248-3.095,10.912-4.927c3.662-1.832,7.114-3.883,10.348-6.151
		c3.233-2.261,5.928-4.742,8.084-7.436c1.724-2.045,2.935-4.206,3.638-6.469c0.701-2.261,1.05-4.685,1.05-7.273v-4.687h19.4v4.851
		c0,4.954,1.458,9.213,4.367,12.774c2.046,2.587,4.631,5.009,7.761,7.269c3.124,2.269,6.465,4.368,10.022,6.31
		c3.559,1.941,7.139,3.665,10.751,5.175c3.61,1.506,7.035,2.857,10.267,4.041c1.183,0.431,1.671,1.159,1.456,2.184
		c-0.219,1.025-0.757,2.823-1.62,5.413c-0.861,2.377-1.59,3.853-2.18,4.447c-0.594,0.589-1.482,0.728-2.671,0.401
		c-4.311-1.293-8.755-2.798-13.336-4.521c-4.583-1.729-8.974-3.773-13.175-6.15c-4.205-2.362-8.109-4.982-11.725-7.835
		c-3.61-2.857-6.602-6.062-8.971-9.622c-2.479,3.56-5.633,6.844-9.457,9.86c-3.824,3.021-7.95,5.739-12.364,8.166
		c-4.425,2.426-8.922,4.556-13.503,6.383c-4.583,1.838-8.921,3.343-13.014,4.531c-1.188,0.431-2.132,0.268-2.83-0.485
		c-0.703-0.757-1.592-2.372-2.667-4.848c-1.186-2.59-1.859-4.397-2.021-5.418C585.431,143.717,585.94,142.984,587.129,142.555
		 M689.305,229.533h-79.22v6.948c0,1.94,1.022,2.905,3.072,2.905h75.498c2.481,0,3.722,2.433,3.722,7.28
		c0,2.799-0.324,4.71-0.973,5.74c-0.646,1.021-1.561,1.535-2.749,1.535H607.5c-1.514,0-3.101-0.54-4.77-1.619
		c-1.674-1.075-3.264-2.318-4.769-3.715c-1.726-1.614-3.127-3.262-4.204-4.933c-1.077-1.673-1.62-3.208-1.62-4.605v-23.765h79.223
		v-10.028h-79.223v-14.55h92.315c1.832,0,3.096,0.327,3.801,0.971c0.697,0.649,1.051,1.887,1.051,3.72V229.533z"/>
	<polygon style="clip-path:url(#SVGID_2_);fill:#EF7B1B;" points="172.181,0.609 187.27,0.609 179.718,13.674 172.181,26.744 
		164.634,13.674 157.082,0.609 	"/>
	<polygon style="clip-path:url(#SVGID_2_);fill:#EF7B1B;" points="172.181,253.729 157.082,253.729 164.634,240.66 172.181,227.592 
		179.718,240.66 187.27,253.729 	"/>
	<path style="clip-path:url(#SVGID_2_);fill:#EF7B1B;" d="M335.552,238.194h-71.043h-4.767h-4.454h-9.045h-15.681
		c-6.596,0-11.935-5.349-11.935-11.939c0-6.597,5.339-11.939,11.935-11.939h24.726h60.55c10.89,0,20.274-6.349,24.726-15.545
		c1.748-3.61,2.758-7.651,2.758-11.939c0-4.279-1.01-8.315-2.758-11.94c-4.452-9.186-13.836-15.539-24.726-15.539h-24.35h-80.633
		c-4.294,0-7.773,3.481-7.773,7.779c0,4.289,3.479,7.76,7.773,7.76h72.861h2.946h4.457h24.719c6.591,0,11.944,5.354,11.944,11.94
		c0,6.591-5.353,11.939-11.944,11.939h-24.719h-60.557c-10.89,0-20.279,6.354-24.719,15.545c-1.758,3.615-2.761,7.655-2.761,11.939
		c0,4.288,1.003,8.319,2.761,11.939c4.44,9.187,13.829,15.535,24.719,15.535h33.947h71.043c4.294,0,7.77-3.477,7.77-7.771
		C343.322,241.681,339.846,238.194,335.552,238.194"/>
	<path style="clip-path:url(#SVGID_2_);fill:#EF7B1B;" d="M341.98,139.859H204.428c-0.745,0-1.345-0.594-1.345-1.337v-12.663
		c0-0.742,0.6-1.336,1.345-1.336H341.98c0.738,0,1.342,0.594,1.342,1.336v12.663C343.322,139.266,342.718,139.859,341.98,139.859"/>
	<path style="clip-path:url(#SVGID_2_);fill:#EF7B1B;" d="M273.2,0.389c-28.894,0-52.314,23.428-52.314,52.32
		c0,28.896,23.42,52.317,52.314,52.317c28.896,0,52.319-23.421,52.319-52.317C325.519,23.817,302.096,0.389,273.2,0.389
		 M273.2,91.742c-21.554,0-39.03-17.474-39.03-39.033c0-21.558,17.476-39.035,39.03-39.035c21.559,0,39.033,17.477,39.033,39.035
		C312.233,74.268,294.759,91.742,273.2,91.742"/>
	<path style="clip-path:url(#SVGID_2_);fill:#EF7B1B;" d="M134.28,240.854L76.704,183.27c-1.528-1.529-3.541-2.253-5.553-2.223
		c-2.004-0.03-4.022,0.693-5.552,2.223L8.02,240.854c-2.991,2.986-2.991,7.859,0,10.846c3.001,2.991,7.859,2.991,10.86,0
		l52.271-52.275l52.284,52.275c2.996,2.991,7.851,2.991,10.845,0C137.276,248.713,137.276,243.84,134.28,240.854"/>
	<path style="clip-path:url(#SVGID_2_);fill:#EF7B1B;" d="M71.147,0.389c-28.888,0-52.312,23.428-52.312,52.32
		c0,28.896,23.424,52.317,52.312,52.317c28.901,0,52.322-23.421,52.322-52.317C123.47,23.817,100.048,0.389,71.147,0.389
		 M71.147,91.742c-21.552,0-39.033-17.474-39.033-39.033c0-21.558,17.481-39.035,39.033-39.035
		c21.562,0,39.036,17.477,39.036,39.035C110.184,74.268,92.709,91.742,71.147,91.742"/>
	<path style="clip-path:url(#SVGID_2_);fill:#EF7B1B;" d="M139.928,150.393H78.822v-22.394c0-4.238-3.437-7.68-7.674-7.68
		c-4.239,0-7.674,3.442-7.674,7.68v22.394H2.367c-0.737,0-1.336,0.6-1.336,1.342v12.673c0,0.729,0.599,1.337,1.336,1.337h61.107
		h15.348h61.106c0.743,0,1.345-0.608,1.345-1.337v-12.673C141.272,150.992,140.671,150.393,139.928,150.393"/>
</g>
</svg>
