<?xml version="1.0" encoding="iso-8859-1"?>
<!-- Generator: Adobe Illustrator 16.0.0, SVG Export Plug-In . SVG Version: 6.00 Build 0)  -->
<!DOCTYPE svg PUBLIC "-//W3C//DTD SVG 1.1//EN" "http://www.w3.org/Graphics/SVG/1.1/DTD/svg11.dtd">
<svg version="1.1" id="&#xB808;&#xC774;&#xC5B4;_1" xmlns="http://www.w3.org/2000/svg" xmlns:xlink="http://www.w3.org/1999/xlink"
	 x="0px" y="0px" width="106px" height="40px" viewBox="0 0 106 40" style="enable-background:new 0 0 106 40;"
	 xml:space="preserve">
<g>
	<path style="fill:#3E3A39;" d="M79.132,24.603c0,0.779-0.132,1.506-0.392,2.18c-0.26,0.676-0.621,1.273-1.083,1.793
		c-0.464,0.52-1.008,0.949-1.634,1.291c-0.625,0.342-1.313,0.576-2.06,0.707v3.387h8.652c0.39,0,0.585,0.398,0.585,1.195
		c0,0.779-0.195,1.17-0.585,1.17h-20.35V33.96h8.992v-3.412c-0.731-0.145-1.405-0.389-2.023-0.73
		c-0.618-0.34-1.148-0.771-1.596-1.291c-0.446-0.52-0.797-1.107-1.048-1.768c-0.251-0.658-0.378-1.377-0.378-2.156
		c0-0.893,0.167-1.715,0.499-2.461c0.333-0.748,0.788-1.389,1.365-1.926c0.576-0.536,1.259-0.95,2.047-1.243
		c0.788-0.293,1.638-0.439,2.547-0.439c0.911,0,1.759,0.146,2.547,0.439c0.788,0.292,1.471,0.707,2.047,1.243
		c0.577,0.537,1.032,1.178,1.365,1.926C78.965,22.888,79.132,23.71,79.132,24.603 M76.449,24.603c0-0.553-0.102-1.061-0.304-1.523
		c-0.203-0.463-0.476-0.852-0.817-1.17c-0.341-0.316-0.739-0.564-1.193-0.742c-0.455-0.18-0.941-0.269-1.463-0.269
		c-0.52,0-1.007,0.089-1.462,0.269c-0.455,0.178-0.854,0.426-1.194,0.742c-0.34,0.318-0.613,0.707-0.815,1.17
		c-0.204,0.463-0.306,0.971-0.306,1.523c0,0.568,0.102,1.08,0.306,1.535c0.202,0.455,0.476,0.84,0.815,1.158
		c0.341,0.316,0.739,0.564,1.194,0.742c0.455,0.18,0.942,0.27,1.462,0.27c0.521,0,1.008-0.09,1.463-0.27
		c0.454-0.178,0.853-0.426,1.193-0.742c0.342-0.318,0.614-0.703,0.817-1.158C76.348,25.683,76.449,25.171,76.449,24.603"/>
	<path style="fill:#3E3A39;" d="M84.589,27.679v-2.104h19.758c0.362,0,0.544,0.354,0.544,1.063c0,0.41-0.047,0.686-0.143,0.828
		c-0.095,0.141-0.229,0.213-0.401,0.213H84.589z M86.786,22.266c0.441-0.158,0.927-0.344,1.453-0.556
		c0.528-0.213,1.061-0.452,1.597-0.72c0.535-0.268,1.039-0.567,1.512-0.899c0.474-0.33,0.866-0.693,1.182-1.087
		c0.253-0.299,0.43-0.615,0.532-0.946c0.102-0.331,0.153-0.685,0.153-1.063V16.31h2.836v0.709c0,0.725,0.213,1.347,0.639,1.867
		c0.3,0.378,0.677,0.732,1.135,1.063c0.457,0.331,0.945,0.638,1.465,0.922s1.043,0.536,1.571,0.757
		c0.528,0.22,1.028,0.417,1.501,0.59c0.173,0.063,0.244,0.17,0.212,0.319c-0.031,0.15-0.109,0.413-0.236,0.792
		c-0.126,0.348-0.231,0.563-0.318,0.65c-0.087,0.086-0.217,0.105-0.39,0.059c-0.631-0.189-1.281-0.408-1.95-0.662
		c-0.67-0.252-1.313-0.55-1.926-0.898c-0.615-0.346-1.185-0.729-1.715-1.146c-0.526-0.418-0.965-0.886-1.311-1.406
		c-0.362,0.52-0.823,1-1.383,1.441c-0.559,0.442-1.162,0.838-1.808,1.194c-0.646,0.354-1.304,0.667-1.973,0.932
		c-0.671,0.27-1.305,0.488-1.903,0.662c-0.174,0.064-0.311,0.041-0.414-0.07c-0.103-0.109-0.232-0.346-0.39-0.709
		c-0.173-0.377-0.271-0.642-0.295-0.791C86.539,22.436,86.613,22.329,86.786,22.266 M101.723,34.979h-11.58v1.018
		c0,0.283,0.149,0.424,0.449,0.424h11.037c0.362,0,0.544,0.355,0.544,1.064c0,0.41-0.048,0.688-0.144,0.84
		c-0.094,0.148-0.228,0.223-0.4,0.223H89.764c-0.221,0-0.452-0.078-0.696-0.236c-0.244-0.156-0.477-0.338-0.696-0.543
		c-0.253-0.236-0.459-0.477-0.615-0.721c-0.157-0.244-0.237-0.469-0.237-0.674v-3.473h11.582v-1.467H87.519v-2.127h13.495
		c0.268,0,0.452,0.047,0.557,0.143c0.102,0.096,0.152,0.275,0.152,0.543V34.979z"/>
	<polygon style="fill:#EE7A1B;" points="26.129,1.516 28.334,1.516 27.23,3.426 26.129,5.336 25.025,3.426 23.921,1.516 	"/>
	<polygon style="fill:#EE7A1B;" points="26.129,38.517 23.921,38.517 25.025,36.606 26.129,34.696 27.23,36.606 28.334,38.517 	"/>
	<path style="fill:#EE7A1B;" d="M50.011,36.247H39.625h-0.696h-0.651h-1.322h-2.292c-0.964,0-1.745-0.781-1.745-1.746
		s0.78-1.746,1.745-1.746h3.614h8.851c1.592,0,2.964-0.928,3.615-2.271c0.255-0.527,0.403-1.117,0.403-1.744
		s-0.148-1.217-0.403-1.746c-0.65-1.344-2.022-2.271-3.615-2.271h-3.559H31.782c-0.628,0-1.137,0.508-1.137,1.137
		c0,0.627,0.508,1.135,1.137,1.135h10.651h0.431h0.651h3.613c0.963,0,1.747,0.781,1.747,1.746c0,0.963-0.783,1.744-1.747,1.744
		h-3.613h-8.852c-1.592,0-2.964,0.93-3.613,2.271c-0.258,0.529-0.404,1.119-0.404,1.746s0.146,1.217,0.404,1.746
		c0.649,1.342,2.021,2.27,3.613,2.27h4.962h10.386c0.627,0,1.136-0.508,1.136-1.135S50.638,36.247,50.011,36.247"/>
	<path style="fill:#EE7A1B;" d="M50.95,21.872H30.843c-0.109,0-0.197-0.087-0.197-0.195v-1.852c0-0.108,0.088-0.195,0.197-0.195
		H50.95c0.108,0,0.196,0.086,0.196,0.195v1.852C51.146,21.785,51.059,21.872,50.95,21.872"/>
	<path style="fill:#EE7A1B;" d="M40.896,1.483c-4.223,0-7.647,3.425-7.647,7.648c0,4.224,3.424,7.648,7.647,7.648
		c4.224,0,7.648-3.424,7.648-7.648C48.544,4.908,45.12,1.483,40.896,1.483 M40.896,14.837c-3.15,0-5.705-2.554-5.705-5.706
		s2.555-5.706,5.705-5.706c3.152,0,5.706,2.555,5.706,5.706S44.048,14.837,40.896,14.837"/>
	<path style="fill:#EE7A1B;" d="M20.588,36.636l-8.417-8.418c-0.223-0.225-0.518-0.33-0.812-0.326
		c-0.292-0.004-0.587,0.102-0.812,0.326l-8.417,8.418c-0.437,0.436-0.437,1.148,0,1.584c0.439,0.438,1.149,0.438,1.587,0
		l7.641-7.641l7.643,7.641c0.438,0.438,1.148,0.438,1.585,0C21.026,37.784,21.026,37.071,20.588,36.636"/>
	<path style="fill:#EE7A1B;" d="M11.359,1.483c-4.223,0-7.647,3.425-7.647,7.648c0,4.224,3.425,7.648,7.647,7.648
		c4.225,0,7.648-3.424,7.648-7.648C19.007,4.908,15.584,1.483,11.359,1.483 M11.359,14.837c-3.151,0-5.706-2.554-5.706-5.706
		s2.555-5.706,5.706-5.706c3.152,0,5.706,2.555,5.706,5.706S14.511,14.837,11.359,14.837"/>
	<path style="fill:#EE7A1B;" d="M21.414,23.411h-8.932v-3.273c0-0.62-0.502-1.123-1.122-1.123s-1.122,0.503-1.122,1.123v3.273H1.305
		c-0.108,0-0.196,0.088-0.196,0.197v1.852c0,0.107,0.088,0.195,0.196,0.195h8.932h2.244h8.932c0.108,0,0.196-0.088,0.196-0.195
		v-1.852C21.61,23.499,21.522,23.411,21.414,23.411"/>
</g>
</svg>
