<?xml version="1.0" encoding="utf-8"?>
<!-- Generator: Adobe Illustrator 25.4.1, SVG Export Plug-In . SVG Version: 6.00 Build 0)  -->
<svg version="1.1" id="레이어_1" xmlns="http://www.w3.org/2000/svg" xmlns:xlink="http://www.w3.org/1999/xlink" x="0px"
	 y="0px" viewBox="0 0 39.83 40" style="enable-background:new 0 0 39.83 40;" xml:space="preserve">
<style type="text/css">
	.st0{clip-path:url(#SVGID_00000170991794536318992290000003381481178480087450_);fill:#FF7E00;}
	.st1{clip-path:url(#SVGID_00000170991794536318992290000003381481178480087450_);fill:#555555;}
</style>
<g>
	<defs>
		<rect id="SVGID_1_" width="39.83" height="40"/>
	</defs>
	<clipPath id="SVGID_00000121252227237030915120000005708958626705399459_">
		<use xlink:href="#SVGID_1_"  style="overflow:visible;"/>
	</clipPath>
	<path style="clip-path:url(#SVGID_00000121252227237030915120000005708958626705399459_);fill:#FF7E00;" d="M21.55,30.45
		c0-4.82,3.91-8.73,8.73-8.73S39,25.63,39,30.45s-3.91,8.73-8.73,8.73S21.55,35.26,21.55,30.45"/>
	<path style="clip-path:url(#SVGID_00000121252227237030915120000005708958626705399459_);fill:#555555;" d="M21.29,39.81H3.45
		c-1.9,0-3.45-1.55-3.45-3.45V3.45C0,1.55,1.55,0,3.45,0h20.43c1.9,0,3.45,1.55,3.45,3.45v14.65c0,0.35-0.28,0.64-0.64,0.64
		c-0.35,0-0.64-0.29-0.64-0.64V3.45c0-1.2-0.98-2.18-2.18-2.18H3.45c-1.2,0-2.18,0.98-2.18,2.18v32.9c0,1.2,0.98,2.18,2.18,2.18
		h17.84c0.35,0,0.64,0.28,0.64,0.64C21.93,39.52,21.64,39.81,21.29,39.81"/>
	<path style="clip-path:url(#SVGID_00000121252227237030915120000005708958626705399459_);fill:#555555;" d="M26.7,6.46H0.64
		C0.29,6.46,0,6.18,0,5.83c0-0.35,0.28-0.64,0.64-0.64H26.7c0.35,0,0.64,0.28,0.64,0.64C27.34,6.18,27.06,6.46,26.7,6.46"/>
	<path style="clip-path:url(#SVGID_00000121252227237030915120000005708958626705399459_);fill:#555555;" d="M17.41,34.65H0.64
		C0.28,34.65,0,34.36,0,34.01c0-0.35,0.28-0.64,0.64-0.64h16.77c0.35,0,0.64,0.28,0.64,0.64C18.04,34.36,17.76,34.65,17.41,34.65"/>
	<path style="clip-path:url(#SVGID_00000121252227237030915120000005708958626705399459_);fill:#555555;" d="M30.27,40
		c-5.27,0-9.55-4.29-9.55-9.55s4.29-9.55,9.55-9.55s9.55,4.29,9.55,9.55S35.54,40,30.27,40 M30.27,22.17
		c-4.57,0-8.28,3.72-8.28,8.28c0,4.57,3.71,8.28,8.28,8.28s8.28-3.72,8.28-8.28C38.55,25.88,34.84,22.17,30.27,22.17"/>
	<path style="clip-path:url(#SVGID_00000121252227237030915120000005708958626705399459_);fill:#555555;" d="M27.43,33.92
		c-0.16,0-0.33-0.06-0.45-0.19c-0.25-0.25-0.25-0.65,0-0.9l5.67-5.67c0.25-0.25,0.65-0.25,0.9,0c0.25,0.25,0.25,0.65,0,0.9
		l-5.68,5.67C27.76,33.86,27.6,33.92,27.43,33.92"/>
	<path style="clip-path:url(#SVGID_00000121252227237030915120000005708958626705399459_);fill:#555555;" d="M33.11,33.92
		c-0.16,0-0.33-0.06-0.45-0.19l-5.67-5.67c-0.25-0.25-0.25-0.65,0-0.9c0.25-0.25,0.65-0.25,0.9,0l5.67,5.67
		c0.25,0.25,0.25,0.65,0,0.9C33.43,33.86,33.27,33.92,33.11,33.92"/>
</g>
</svg>
