<?xml version="1.0" encoding="utf-8"?>
<!-- Generator: Adobe Illustrator 25.4.1, SVG Export Plug-In . SVG Version: 6.00 Build 0)  -->
<svg version="1.1" id="레이어_1" xmlns="http://www.w3.org/2000/svg" xmlns:xlink="http://www.w3.org/1999/xlink" x="0px"
	 y="0px" viewBox="0 0 23.94 40" style="enable-background:new 0 0 23.94 40;" xml:space="preserve">
<style type="text/css">
	.st0{clip-path:url(#SVGID_00000158011065574344527880000018120789603292275617_);fill:#FF7E00;}
	.st1{clip-path:url(#SVGID_00000158011065574344527880000018120789603292275617_);fill:#555555;}
</style>
<g>
	<defs>
		<rect id="SVGID_1_" width="23.94" height="40"/>
	</defs>
	<clipPath id="SVGID_00000090276297148316600380000003820054549872941217_">
		<use xlink:href="#SVGID_1_"  style="overflow:visible;"/>
	</clipPath>
	<path style="clip-path:url(#SVGID_00000090276297148316600380000003820054549872941217_);fill:#FF7E00;" d="M7.3,13.48
		c0-2.68,2.17-4.86,4.86-4.86s4.86,2.17,4.86,4.86s-2.17,4.86-4.86,4.86S7.3,16.16,7.3,13.48"/>
	<path style="clip-path:url(#SVGID_00000090276297148316600380000003820054549872941217_);fill:#555555;" d="M5.63,40
		c-0.23,0-0.41-0.18-0.41-0.41v-2.16c0-0.64-0.23-1.26-0.65-1.74l-3.47-4c-0.77-0.89-1.16-2.03-1.09-3.21l0.53-9.05
		c0.05-0.87,0.43-1.67,1.06-2.27l2.26-2.15V2.74C3.86,1.23,5.09,0,6.6,0h10.33c1.51,0,2.74,1.23,2.74,2.74v3.86
		c0,0.23-0.18,0.41-0.41,0.41c-0.23,0-0.41-0.19-0.41-0.41V2.74c0-1.06-0.86-1.91-1.91-1.91H6.6c-1.06,0-1.91,0.86-1.91,1.91v12.62
		l-2.52,2.39c-0.48,0.45-0.76,1.07-0.8,1.72l-0.53,9.05c-0.06,0.96,0.26,1.9,0.89,2.62l3.47,4c0.55,0.63,0.85,1.44,0.85,2.28v2.16
		C6.04,39.82,5.86,40,5.63,40"/>
	<path style="clip-path:url(#SVGID_00000090276297148316600380000003820054549872941217_);fill:#555555;" d="M4.27,20.19
		c-0.23,0-0.41-0.18-0.41-0.41v-4.6c0-0.23,0.18-0.41,0.41-0.41c0.23,0,0.41,0.18,0.41,0.41v4.6C4.68,20.01,4.5,20.19,4.27,20.19"/>
	<path style="clip-path:url(#SVGID_00000090276297148316600380000003820054549872941217_);fill:#555555;" d="M12.36,32.12
		c-0.12,0-0.24-0.05-0.32-0.15c-1.98-2.48-4.28-3.16-5.48-3.35c-0.42-0.06-0.78-0.29-1.02-0.64C5.3,27.63,5.22,27.21,5.3,26.8
		l1-4.79L6.62,22c1.4-0.06,2.58-0.64,3.25-1.62c0.45-0.66,0.53-1.31,0.41-1.66c-0.08-0.23-0.18-0.37-0.31-0.42
		c-0.18-0.07-0.44,0.05-0.52,0.1l-0.03,0.02c-0.1,0.05-2.41,1.26-4.34,1.77c-1.63,0.43-2.07,2.3-2.08,2.32
		c-0.05,0.22-0.27,0.36-0.49,0.31c-0.22-0.05-0.36-0.27-0.31-0.49c0.02-0.1,0.55-2.37,2.67-2.93c1.77-0.47,3.97-1.6,4.15-1.7
		c0.12-0.07,0.65-0.36,1.21-0.17c0.26,0.09,0.62,0.33,0.82,0.93c0.23,0.68,0.04,1.6-0.51,2.4c-0.76,1.11-2.05,1.81-3.57,1.95
		l-0.87,4.17c-0.04,0.19,0,0.38,0.11,0.54c0.11,0.16,0.28,0.26,0.47,0.29c0.94,0.15,1.87,0.46,2.75,0.92
		c1.22,0.64,2.31,1.56,3.24,2.73c0.14,0.18,0.11,0.44-0.06,0.58C12.54,32.09,12.45,32.12,12.36,32.12"/>
	<path style="clip-path:url(#SVGID_00000090276297148316600380000003820054549872941217_);fill:#555555;" d="M16.96,29.43H9.12
		c-0.23,0-0.41-0.18-0.41-0.41c0-0.23,0.18-0.41,0.41-0.41h7.84c1.04,0,1.88-0.84,1.88-1.88v-0.77c0-0.23,0.18-0.41,0.41-0.41
		c0.23,0,0.41,0.18,0.41,0.41v0.77C19.66,28.22,18.45,29.43,16.96,29.43"/>
	<path style="clip-path:url(#SVGID_00000090276297148316600380000003820054549872941217_);fill:#555555;" d="M16.39,40
		c-0.23,0-0.41-0.18-0.41-0.41v-2.31c0-0.77,0.34-1.51,0.92-2.03c1.01-0.89,1.64-2.03,1.88-3.39c0.18-1.03,0.06-1.81,0.06-1.82
		c-0.04-0.22,0.12-0.43,0.34-0.47c0.22-0.04,0.44,0.12,0.47,0.34c0.01,0.04,0.14,0.9-0.06,2.06c-0.27,1.54-1.01,2.89-2.15,3.9
		c-0.41,0.36-0.64,0.88-0.64,1.41v2.31C16.8,39.82,16.62,40,16.39,40"/>
	<path style="clip-path:url(#SVGID_00000090276297148316600380000003820054549872941217_);fill:#555555;" d="M18.67,13.47
		c-0.14,0-0.28-0.01-0.42-0.04c-0.6-0.11-1.12-0.45-1.47-0.95c-0.71-1.04-0.45-2.46,0.59-3.18l2.79-1.91
		c1.04-0.71,2.46-0.45,3.18,0.59c0.34,0.5,0.47,1.11,0.36,1.71c-0.11,0.6-0.45,1.12-0.95,1.47l-2.79,1.91
		C19.57,13.34,19.13,13.47,18.67,13.47 M21.45,7.82c-0.29,0-0.57,0.08-0.82,0.26l-2.79,1.91c-0.67,0.46-0.84,1.37-0.38,2.03
		c0.22,0.32,0.55,0.54,0.94,0.61c0.38,0.07,0.77-0.01,1.09-0.23l2.79-1.91c0.32-0.22,0.54-0.55,0.61-0.94
		c0.07-0.38-0.01-0.77-0.23-1.09C22.37,8.04,21.92,7.82,21.45,7.82"/>
	<path style="clip-path:url(#SVGID_00000090276297148316600380000003820054549872941217_);fill:#555555;" d="M18.87,17.83
		c-0.14,0-0.28-0.01-0.42-0.04c-0.6-0.11-1.12-0.45-1.47-0.95c-0.71-1.04-0.45-2.46,0.59-3.18l2.79-1.91
		c1.04-0.71,2.46-0.45,3.18,0.59c0.34,0.5,0.47,1.11,0.36,1.71c-0.11,0.6-0.45,1.12-0.95,1.47l-2.79,1.91
		C19.78,17.7,19.33,17.83,18.87,17.83 M21.65,12.18c-0.29,0-0.57,0.08-0.82,0.26l-2.79,1.91c-0.67,0.46-0.84,1.37-0.38,2.03
		c0.22,0.32,0.55,0.54,0.94,0.61c0.38,0.07,0.77-0.01,1.09-0.23l2.79-1.91c0.32-0.22,0.54-0.55,0.61-0.94
		c0.07-0.38-0.01-0.77-0.23-1.09C22.58,12.4,22.12,12.18,21.65,12.18"/>
	<path style="clip-path:url(#SVGID_00000090276297148316600380000003820054549872941217_);fill:#555555;" d="M18.46,22.49
		c-0.14,0-0.28-0.01-0.42-0.04c-0.6-0.11-1.12-0.45-1.47-0.95c-0.71-1.04-0.45-2.46,0.59-3.18l2.79-1.91
		c1.04-0.71,2.46-0.45,3.18,0.59c0.34,0.5,0.47,1.11,0.36,1.71c-0.11,0.6-0.45,1.12-0.95,1.47l-2.79,1.91
		C19.37,22.35,18.92,22.49,18.46,22.49 M21.24,16.83c-0.29,0-0.57,0.08-0.82,0.26L17.63,19c-0.67,0.46-0.84,1.37-0.38,2.03
		c0.22,0.32,0.55,0.54,0.94,0.61c0.38,0.07,0.77-0.01,1.09-0.23l2.79-1.91c0.32-0.22,0.54-0.55,0.61-0.94
		c0.07-0.38-0.01-0.77-0.23-1.09C22.17,17.05,21.71,16.83,21.24,16.83"/>
	<path style="clip-path:url(#SVGID_00000090276297148316600380000003820054549872941217_);fill:#555555;" d="M18.46,26.93
		c-0.14,0-0.28-0.01-0.42-0.04c-0.6-0.11-1.12-0.45-1.47-0.95c-0.71-1.04-0.45-2.46,0.59-3.18l2.79-1.91
		c1.04-0.71,2.46-0.45,3.18,0.59c0.34,0.5,0.47,1.11,0.36,1.71c-0.11,0.6-0.45,1.12-0.95,1.47l-2.79,1.91
		C19.37,26.79,18.92,26.93,18.46,26.93 M21.24,21.27c-0.29,0-0.57,0.08-0.82,0.26l-2.79,1.91c-0.67,0.46-0.84,1.37-0.38,2.03
		c0.22,0.32,0.55,0.54,0.94,0.61c0.38,0.07,0.77-0.01,1.09-0.23l2.79-1.91c0.32-0.22,0.54-0.55,0.61-0.94
		c0.07-0.38-0.01-0.77-0.23-1.09C22.17,21.49,21.71,21.27,21.24,21.27"/>
	<path style="clip-path:url(#SVGID_00000090276297148316600380000003820054549872941217_);fill:#555555;" d="M10.6,16.08L8.9,14.36
		c-0.11-0.11-0.11-0.3,0-0.41c0.11-0.11,0.3-0.11,0.41,0l1.29,1.31l4.39-4.31c0.11-0.11,0.3-0.11,0.41,0c0.11,0.11,0.11,0.3,0,0.41
		L10.6,16.08z"/>
</g>
</svg>
