<?xml version="1.0" encoding="utf-8"?>
<!-- Generator: Adobe Illustrator 25.4.1, SVG Export Plug-In . SVG Version: 6.00 Build 0)  -->
<svg version="1.1" id="Layer_1" xmlns="http://www.w3.org/2000/svg" xmlns:xlink="http://www.w3.org/1999/xlink" x="0px" y="0px"
	 viewBox="0 0 211.5 180" style="enable-background:new 0 0 211.5 180;" xml:space="preserve">
<style type="text/css">
	.st0{fill:#FF667C;}
	.st1{opacity:0.1;enable-background:new    ;}
	.st2{fill:#CDA8DD;}
	.st3{fill:#FFFFFF;}
	.st4{opacity:0.1;}
	.st5{fill:#E6E6E6;}
	.st6{fill:#CCCCCC;}
	.st7{opacity:0.4;}
	.st8{opacity:5.000000e-02;}
	.st9{fill:#FCDE60;}
	.st10{opacity:0.5;}
	.st11{fill:#EFD35B;}
	.st12{fill:#E2C447;}
	.st13{opacity:0.6;}
	.st14{fill:#66CCFF;}
</style>
<g>
	<path class="st0" d="M70.9,150.5c0,0-23.2,5-39.5-21.6c-0.3-0.4-0.2-1,0.3-1.3c0.1-0.1,0.3-0.1,0.5-0.2
		C39.9,127.2,72.1,127.7,70.9,150.5z"/>
	<path class="st1" d="M45.2,128.1c5.5,10.6,13.7,20.6,25.7,21.4C71.1,134.8,56.8,129.8,45.2,128.1z"/>
	<path class="st2" d="M84,148.3c0,0-1.3-33.2-42.8-45.9c-0.6-0.2-1.2,0.2-1.4,0.7c-0.1,0.2-0.1,0.4,0,0.6
		C41.9,113.5,53.5,157.9,84,148.3z"/>
	<path class="st3" d="M79,138.8c0,0,0.1,0,0.1-0.1c0.2-0.1,0.3-0.4,0.1-0.6c0,0,0,0,0,0c-11.4-16.9-32.9-31.4-33.2-31.5
		c-0.2-0.1-0.5,0-0.6,0.2c-0.1,0.2,0,0.4,0.1,0.5c0.2,0.1,21.6,14.5,32.9,31.3C78.6,138.8,78.8,138.8,79,138.8z"/>
	<path class="st1" d="M84,148.3c0,0-0.9-22.9-25-37.9v32.4C65.4,148.6,73.6,151.6,84,148.3z"/>
	<path class="st2" d="M139.5,169.5c0,0,20-34,70.7-24.1c0.9,0.2,1.4,1,1.3,1.9c-0.1,0.3-0.2,0.5-0.4,0.8
		C202.7,157.7,165.9,196.5,139.5,169.5z"/>
	<g class="st4">
		<path d="M194.3,143.6c-17.5-0.4-30.3,4.8-39.1,10.6c-1.7,7.9-2,16-0.8,24c4,0.9,8.1,0.9,12,0.2
			C182.2,173.8,190.3,159.2,194.3,143.6z"/>
	</g>
	<path class="st0" d="M149.9,179.8c0,0-11.3-45.9,40.5-79.9c0.7-0.5,1.7-0.3,2.2,0.5c0.1,0.2,0.2,0.5,0.3,0.8
		C193.7,115.4,195.3,180.8,149.9,179.8z"/>
	<path class="st3" d="M153,164.7c-0.1,0-0.1,0-0.2,0c-0.3-0.1-0.5-0.5-0.4-0.8c0,0,0,0,0,0c8.9-27.7,32.8-56,33-56.3
		c0.2-0.3,0.6-0.3,0.9-0.1s0.3,0.6,0.1,0.9l0,0c-0.2,0.3-23.9,28.4-32.8,55.8C153.5,164.5,153.3,164.7,153,164.7z"/>
	<path class="st0" d="M180.6,89.5c-0.3-0.2-0.7-0.1-0.9,0.2c-5.2,7.6-10,17.4-14.2,27.7c2.5-15.6,6.3-32.3,11.8-44.4
		c0.1-0.3-0.1-0.7-0.4-0.8c-0.3-0.1-0.6,0-0.8,0.3c-6.2,13.6-10.2,33-12.7,50.2c-6.3,16.8-11.5,34-15.7,51.4
		c-0.1,0.3,0.1,0.7,0.5,0.8h0.1c0.3,0,0.6-0.2,0.6-0.5c3.7-15.5,8.3-30.8,13.6-45.8c-2.4,18.1-3.1,32.4-3.1,32.7
		c0,0.4,0.3,0.7,0.6,0.7l0,0c0.3,0,0.6-0.3,0.6-0.6c0-0.3,0.9-17.7,3.8-38.3c4.6-12,10.1-23.9,16.1-32.6
		C181,90.1,180.9,89.7,180.6,89.5z"/>
	<g class="st4">
		<path d="M169.1,165.5v-47.6c-27.1,30.2-19.3,61.9-19.3,61.9c3.7,0.1,7.4-0.3,11-1.2C165.9,176.2,169.1,171.1,169.1,165.5z"/>
	</g>
	<g class="st4">
		<path d="M165.5,117.4c1-6.2,2.2-12.5,3.6-18.7v-5.4c-2.4,9.7-4.3,19.5-5.7,29.5c-6.3,16.8-11.5,34-15.7,51.4
			c-0.1,0.3,0.1,0.7,0.5,0.8h0.1c0.3,0,0.6-0.2,0.6-0.5c3.7-15.5,8.3-30.8,13.6-45.8c-2.4,18.1-3.1,32.4-3.1,32.7
			c0,0.4,0.3,0.7,0.6,0.7l0,0c0.3,0,0.6-0.3,0.6-0.6c0-0.3,0.9-17.7,3.8-38.3c1.4-3.7,2.9-7.4,4.5-10.9v-3.2
			C167.9,111.7,166.7,114.5,165.5,117.4z"/>
	</g>
	<path class="st2" d="M76.7,180c-8,0-14.4-6.5-14.4-14.4v-144c0-8,6.5-14.4,14.4-14.4h73.2c8,0,14.4,6.5,14.4,14.4v144
		c0,8-6.4,14.4-14.4,14.4H76.7z"/>
	<path class="st3" d="M149.9,175.2H76.7c-5.3,0-9.6-4.3-9.6-9.6c0,0,0,0,0,0v-144c0-5.3,4.3-9.6,9.6-9.6h73.2c5.3,0,9.6,4.3,9.6,9.6
		v144C159.5,170.8,155.2,175.2,149.9,175.2L149.9,175.2z"/>
	<path class="st5" d="M87.7,163H91c0.4,0,0.6,0.3,0.6,0.6v3.3c0,0.4-0.3,0.6-0.6,0.6h-3.3c-0.4,0-0.6-0.3-0.6-0.6v-3.3
		C87,163.3,87.3,163,87.7,163z"/>
	<path class="st5" d="M136.4,163.4l-2,3.3c-0.2,0.3-0.1,0.7,0.2,0.9c0.1,0.1,0.2,0.1,0.3,0.1h4c0.4,0,0.6-0.3,0.6-0.7
		c0-0.1,0-0.2-0.1-0.3l-2-3.3c-0.2-0.3-0.6-0.4-0.9-0.2C136.5,163.2,136.4,163.3,136.4,163.4z"/>
	<ellipse class="st2" cx="113.3" cy="165.3" rx="2.3" ry="2.3"/>
	<circle class="st2" cx="113.3" cy="170.1" r="0.5"/>
	<path class="st0" d="M131.7,141.6H94.8c-3.5,0-6.4-2.9-6.4-6.4c0,0,0,0,0,0l0,0c0-3.5,2.9-6.4,6.4-6.4c0,0,0,0,0,0h36.9
		c3.5,0,6.4,2.9,6.4,6.4v0l0,0C138.1,138.7,135.3,141.6,131.7,141.6z"/>
	<path class="st5" d="M144.8,111.5h-63c-0.9-0.1-1.5-1-1.3-1.8c0.1-0.7,0.6-1.2,1.3-1.3h63c0.9,0.1,1.5,1,1.3,1.8
		C146,110.9,145.5,111.4,144.8,111.5z"/>
	<path class="st5" d="M132,120.1h-2.1c-0.9,0.1-1.7-0.5-1.8-1.3c-0.1-0.9,0.5-1.7,1.3-1.8c0.2,0,0.3,0,0.5,0h2.1
		c0.9-0.1,1.7,0.5,1.8,1.3c0.1,0.9-0.5,1.7-1.3,1.8C132.3,120.1,132.1,120.1,132,120.1z"/>
	<path class="st5" d="M120.3,120.1H81.8c-0.9-0.1-1.5-1-1.3-1.8c0.1-0.7,0.6-1.2,1.3-1.3h38.5c0.9-0.1,1.7,0.5,1.8,1.3
		c0.1,0.9-0.5,1.7-1.3,1.8C120.6,120.1,120.4,120.1,120.3,120.1z"/>
	<path class="st5" d="M155.1,157.2c2.5-6.3,9.6-9.3,15.8-6.8c0.1,0,0.1,0.1,0.2,0.1c4.3,1.7,8.5,3.8,12.5,6.2c4.1,2.6,7,6.6,11,9.2
		c2.7,1.8,6.1,3,8.2,5.5s2.9,7.6-1.1,8.6h-51c-1.8,0-3.2-1.4-3.2-3.1c0-0.4,0.1-0.9,0.3-1.3L155.1,157.2z"/>
	<path class="st6" d="M162.3,157.2c0.5,0,1.1,0,1.6-0.1c5-0.5,7.9-2.8,10.7-5.2l-1-0.4c-2.5,2.1-5.3,4.2-9.8,4.6
		c-3,0.3-5.2-0.3-6.5-1.7c-0.1-0.2-0.3-0.3-0.4-0.5c-0.2,0.3-0.4,0.5-0.6,0.8c0.1,0.1,0.2,0.2,0.3,0.3
		C157.8,156.5,159.7,157.2,162.3,157.2z"/>
	<path class="st6" d="M157.1,166.3c3.6,2.5,8.3,3.1,13.9,1.8c11.3-2.6,17.1-3.5,25.7-0.9c-0.7-0.4-1.5-0.8-2.2-1.3l-0.8-0.5
		c-7.1-1.5-12.9-0.6-23,1.8c-5.3,1.2-9.8,0.7-13.2-1.7c-1.7-1.2-3.1-2.8-4.1-4.6l-0.5,1.1C154.2,163.7,155.5,165.2,157.1,166.3z"/>
	<path class="st6" d="M180.2,176c-12.7,1.8-24.5-2-30.8-4.6l-0.4,0.9c6.4,2.6,18.4,6.5,31.3,4.7c4.9-0.7,9,0.3,12.1,3l0,0h1.4
		c-0.3-0.3-0.5-0.5-0.8-0.8C189.7,176.3,185.4,175.3,180.2,176z"/>
	<g class="st7">
		<path class="st6" d="M202.9,171.4c-2.1-2.5-5.5-3.7-8.2-5.5c-4.1-2.6-7-6.6-11-9.2c-4-2.4-8.2-4.5-12.5-6.2
			c-2.3-1-4.9-1.2-7.4-0.7c3.6,1.5,7,3.2,10.3,5.3c4,2.7,7,6.6,11,9.2c2.7,1.8,6.1,3,8.2,5.5c2.2,2.5,2.9,7.6-1.1,8.6h-44.2
			c0.6,1,1.6,1.6,2.8,1.6h51C205.8,179,205,173.9,202.9,171.4z"/>
	</g>
	<g class="st8">
		<path d="M83.1,156.8c0-1.2-0.1-2.5-0.3-3.7l0,0c0-0.4-0.1-0.7-0.2-1.1l0,0c-0.8-3.9-2.6-7.4-5.2-10.4l0,0l-0.6-0.7l0,0l-0.6-0.6
			l0,0c-0.9-0.9-1.8-1.7-2.9-2.4l0,0c-0.3-0.2-0.5-0.4-0.8-0.5l0,0c-1.6-1-3.3-1.8-5.1-2.4l0,0l-0.9-0.3l0,0
			c-1.4-0.4-2.8-0.7-4.2-0.8v31.7c0,5.1,2.7,9.8,7.1,12.4C77.8,174.3,83.2,166,83.1,156.8z"/>
	</g>
	<path class="st9" d="M48.9,167.5H8.5c-1.6,0-2.8-1.3-2.8-2.8c0,0,0,0,0,0v-6.8c0-1.6,1.3-2.8,2.8-2.8c0,0,0,0,0,0h40.4
		c1.6,0,2.8,1.3,2.8,2.8v6.8C51.7,166.2,50.5,167.5,48.9,167.5C48.9,167.5,48.9,167.5,48.9,167.5z"/>
	<g class="st10">
		<path class="st3" d="M8.5,155c-1.6,0-2.8,1.3-2.8,2.8c0,0,0,0,0,0v6.8c0,1.6,1.2,2.8,2.8,2.8c0,0,0,0,0,0h8.6V155H8.5z"/>
	</g>
	<rect x="17.1" y="155" class="st9" width="15.3" height="12.5"/>
	<path class="st11" d="M48.9,155H32.4v12.5h16.5c1.6,0,2.8-1.3,2.8-2.8c0,0,0,0,0,0v-6.8C51.7,156.3,50.4,155,48.9,155z"/>
	<path class="st12" d="M9.6,164.7c-0.3,0-0.6-0.3-0.6-0.6v-5.8c0-0.3,0.2-0.6,0.5-0.6c0.3,0,0.6,0.2,0.6,0.5c0,0.1,0,0.1,0,0.2v5.8
		C10.2,164.4,9.9,164.7,9.6,164.7C9.6,164.7,9.6,164.7,9.6,164.7z"/>
	<path class="st12" d="M15,164.7c-0.3,0-0.6-0.3-0.6-0.6v-5.8c0-0.3,0.2-0.6,0.5-0.6c0.3,0,0.6,0.2,0.6,0.5c0,0.1,0,0.1,0,0.2v5.8
		C15.6,164.4,15.4,164.7,15,164.7C15.1,164.7,15.1,164.7,15,164.7z"/>
	<path class="st12" d="M20.5,164.7c-0.3,0-0.6-0.3-0.6-0.6v-5.8c0-0.3,0.2-0.6,0.5-0.6c0.3,0,0.6,0.2,0.6,0.5c0,0.1,0,0.1,0,0.2v5.8
		C21.1,164.4,20.8,164.7,20.5,164.7C20.5,164.7,20.5,164.7,20.5,164.7z"/>
	<path class="st12" d="M26,164.7c-0.3,0-0.6-0.2-0.6-0.6c0,0,0,0,0,0v-5.8c0-0.3,0.2-0.6,0.5-0.6c0.3,0,0.6,0.2,0.6,0.5
		c0,0.1,0,0.1,0,0.2v5.8C26.5,164.4,26.3,164.7,26,164.7C26,164.7,26,164.7,26,164.7z"/>
	<path class="st12" d="M31.4,164.7c-0.3,0-0.6-0.3-0.6-0.6v-5.8c0-0.3,0.2-0.6,0.5-0.6c0.3,0,0.6,0.2,0.6,0.5c0,0.1,0,0.1,0,0.2v5.8
		C32,164.4,31.7,164.7,31.4,164.7C31.4,164.7,31.4,164.7,31.4,164.7z"/>
	<path class="st12" d="M36.9,164.7c-0.3,0-0.6-0.3-0.6-0.6v-5.8c0-0.3,0.2-0.6,0.5-0.6c0.3,0,0.6,0.2,0.6,0.5c0,0.1,0,0.1,0,0.2v5.8
		C37.4,164.4,37.2,164.7,36.9,164.7C36.9,164.7,36.9,164.7,36.9,164.7z"/>
	<path class="st12" d="M42.3,164.7c-0.3,0-0.6-0.3-0.6-0.6v-5.8c0-0.3,0.2-0.6,0.5-0.6c0.3,0,0.6,0.2,0.6,0.5c0,0.1,0,0.1,0,0.2v5.8
		C42.9,164.4,42.6,164.7,42.3,164.7C42.3,164.7,42.3,164.7,42.3,164.7z"/>
	<path class="st12" d="M47.8,164.7c-0.3,0-0.6-0.3-0.6-0.6v-5.8c0-0.3,0.2-0.6,0.5-0.6c0.3,0,0.6,0.2,0.6,0.5c0,0.1,0,0.1,0,0.2v5.8
		C48.4,164.4,48.1,164.7,47.8,164.7C47.8,164.7,47.8,164.7,47.8,164.7z"/>
	<path class="st9" d="M43.2,180H2.8c-1.6,0-2.8-1.3-2.8-2.8v-6.8c0-1.6,1.3-2.8,2.8-2.8h40.4c1.6,0,2.8,1.3,2.8,2.8v6.8
		C46.1,178.7,44.8,180,43.2,180z"/>
	<g class="st10">
		<path class="st3" d="M2.8,167.5c-1.6,0-2.8,1.3-2.8,2.8v6.8c0,1.6,1.3,2.8,2.8,2.8c0,0,0,0,0,0h8.6v-12.5H2.8z"/>
	</g>
	<rect x="11.5" y="167.5" class="st9" width="15.3" height="12.5"/>
	<path class="st11" d="M43.2,167.5H26.7V180h16.5c1.6,0,2.8-1.3,2.8-2.8v-6.8C46.1,168.7,44.8,167.5,43.2,167.5
		C43.2,167.5,43.2,167.5,43.2,167.5z"/>
	<path class="st12" d="M3.9,177.2c-0.3,0-0.6-0.3-0.6-0.6v-5.8c0-0.3,0.3-0.6,0.6-0.6s0.6,0.3,0.6,0.6v5.8
		C4.5,176.9,4.2,177.2,3.9,177.2z"/>
	<path class="st12" d="M9.4,177.2c-0.3,0-0.6-0.3-0.6-0.6v-5.8c0-0.3,0.3-0.5,0.6-0.5c0.3,0,0.5,0.2,0.5,0.5v5.8
		C10,176.9,9.7,177.2,9.4,177.2z"/>
	<path class="st12" d="M14.8,177.2c-0.3,0-0.6-0.3-0.6-0.6v-5.8c0-0.3,0.3-0.5,0.6-0.5c0.3,0,0.5,0.2,0.5,0.5v5.8
		C15.4,176.9,15.1,177.2,14.8,177.2z"/>
	<path class="st12" d="M20.3,177.2c-0.3,0-0.6-0.3-0.6-0.6v-5.8c0-0.3,0.3-0.5,0.6-0.5c0.3,0,0.5,0.2,0.5,0.5v5.8
		C20.9,176.9,20.6,177.2,20.3,177.2z"/>
	<path class="st12" d="M25.8,177.2c-0.3,0-0.6-0.3-0.6-0.6v-5.8c0-0.3,0.3-0.5,0.6-0.5c0.3,0,0.5,0.2,0.5,0.5v5.8
		C26.3,176.9,26.1,177.2,25.8,177.2z"/>
	<path class="st12" d="M31.2,177.2c-0.3,0-0.6-0.3-0.6-0.6v-5.8c0-0.3,0.3-0.6,0.6-0.6c0.3,0,0.6,0.3,0.6,0.6v5.8
		C31.8,176.9,31.5,177.2,31.2,177.2z"/>
	<path class="st12" d="M36.7,177.2c-0.3,0-0.6-0.3-0.6-0.6v-5.8c0-0.3,0.3-0.5,0.6-0.5c0.3,0,0.5,0.2,0.5,0.5v5.8
		C37.2,176.9,37,177.2,36.7,177.2z"/>
	<path class="st12" d="M42.1,177.2c-0.3,0-0.6-0.3-0.6-0.6v-5.8c0-0.3,0.3-0.5,0.6-0.5c0.3,0,0.5,0.2,0.5,0.5v5.8
		C42.7,176.9,42.4,177.2,42.1,177.2z"/>
	<g class="st4">
		<path d="M46.1,177.1v-6.8c0-1.6-1.3-2.8-2.8-2.8H26.7L39.1,180h4.1C44.7,180,46,178.7,46.1,177.1
			C46.1,177.2,46.1,177.1,46.1,177.1z"/>
	</g>
	<ellipse class="st9" cx="55.2" cy="156.8" rx="23.1" ry="23.1"/>
	<g class="st13">
		<path class="st3" d="M61.6,134.6L33,163.3c0.7,2.4,1.8,4.7,3.3,6.8l32.2-32.2C66.3,136.4,64,135.3,61.6,134.6z"/>
	</g>
	<g class="st13">
		<path class="st3" d="M69.9,139l-32.5,32.6c0.8,0.9,1.6,1.8,2.5,2.6l32.6-32.7C71.7,140.7,70.9,139.8,69.9,139z"/>
	</g>
	<g class="st13">
		<path class="st3" d="M77.7,152l-27.4,27.5c0.7,0.2,1.5,0.3,2.2,0.4l25.5-25.6C78,153.5,77.9,152.7,77.7,152z"/>
	</g>
	<ellipse class="st12" cx="55.2" cy="156.8" rx="20.2" ry="20.2"/>
	<path class="st9" d="M63,161.7c0,1.7-0.7,3.3-1.9,4.4c-1.4,1.3-3.2,2.1-5.1,2.2v2.6h-1.8v-2.6c-1.8-0.1-3.6-0.7-5-1.9
		c-1.3-1.1-2-2.7-1.9-4.3h4c0,1.7,1.3,3.1,3,3.2v-7.1c-1.4-0.3-2.8-0.7-4.1-1.4c-0.8-0.4-1.5-1.1-2-1.8c-0.5-1-0.8-2-0.8-3.1
		c-0.1-1.7,0.6-3.4,1.9-4.5c1.4-1.2,3.2-1.9,5-2v-2.6H56v2.6c1.7,0.1,3.4,0.7,4.7,1.8c1.2,1.1,1.9,2.6,2,4.2h-3.9
		c-0.1-0.7-0.4-1.3-0.8-1.9c-0.5-0.5-1.2-0.9-1.9-1.1v7c1.4,0.3,2.8,0.7,4.1,1.3c0.8,0.4,1.4,1,1.9,1.6
		C62.7,159.4,63,160.5,63,161.7z M51.9,149.4c-0.6,0.6-0.9,1.4-0.9,2.2c0,0.8,0.3,1.6,0.8,2.1c0.7,0.6,1.5,1,2.3,1.2v-6.6
		C53.4,148.4,52.6,148.8,51.9,149.4z M58.4,164.2c0.6-0.6,0.9-1.4,0.8-2.2c0.1-0.8-0.2-1.6-0.8-2.1c-0.7-0.6-1.5-0.9-2.4-1.1v6.7
		C57,165.2,57.8,164.8,58.4,164.2z"/>
	<g class="st13">
		<path class="st3" d="M56,148.8l-1.9,1.9v4.3c-0.9-0.2-1.7-0.6-2.3-1.2c-0.1-0.1-0.3-0.3-0.4-0.4l-2.6,2.6c0.4,0.3,0.8,0.6,1.2,0.8
			c0.8,0.4,1.7,0.8,2.6,1l3.4-3.4V148.8z"/>
		<path class="st3" d="M60.8,147.1c-0.6-0.5-1.2-0.9-1.9-1.1l-2.5,2.6c0.6,0.2,1.2,0.5,1.6,1c0.5,0.5,0.8,1.2,0.8,1.9h0.2l2.9-2.9
			C61.6,147.9,61.2,147.5,60.8,147.1z"/>
		<path class="st3" d="M47.3,162.1c0,0.3,0,0.6,0.1,0.9l0.9-0.9H47.3z"/>
		<path class="st3" d="M50,162.1l-2.3,2.3c0.3,0.7,0.7,1.3,1.2,1.8l2.7-2.7c-0.2-0.4-0.3-0.9-0.3-1.4L50,162.1z"/>
		<path class="st3" d="M54,158.1h0.2v2.8l1.8-1.9v-0.4l0.3,0.1l2.5-2.5c-0.6-0.2-1.4-0.4-2.3-0.7L54,158.1z"/>
		<path class="st3" d="M62.4,149.7l-1.7,1.7h2C62.7,150.8,62.6,150.2,62.4,149.7z"/>
	</g>
	<g>
		<path class="st3" d="M94.9,132.7h-1.8v-0.8h4.6v0.8h-1.8v5.4h-1V132.7z"/>
		<path class="st3" d="M102.2,138.1l-1.4-2.5h-1v2.5h-1v-6.2h2c1.3,0,2.2,0.5,2.2,1.8c0,1-0.5,1.5-1.3,1.8l1.5,2.6H102.2z
			 M99.8,134.8h0.9c0.9,0,1.4-0.4,1.4-1.1c0-0.8-0.5-1-1.4-1h-0.9V134.8z"/>
		<path class="st3" d="M105.3,135.8l-1.9-3.9h1l0.7,1.6c0.2,0.5,0.4,0.9,0.6,1.4h0c0.2-0.5,0.4-0.9,0.6-1.4l0.7-1.6h1l-1.9,3.9v2.4
			h-1V135.8z"/>
		<path class="st3" d="M113.7,136.3h-2.2l-0.5,1.8h-1l2.1-6.2h1.1l2.1,6.2h-1L113.7,136.3z M113.5,135.6l-0.2-0.8
			c-0.2-0.7-0.4-1.4-0.6-2.1h0c-0.2,0.7-0.4,1.4-0.6,2.1l-0.3,0.8H113.5z"/>
		<path class="st3" d="M115.7,135c0-2,1.3-3.2,2.9-3.2c0.9,0,1.5,0.4,1.9,0.8l-0.5,0.6c-0.3-0.3-0.7-0.6-1.3-0.6
			c-1.2,0-1.9,0.9-1.9,2.4c0,1.5,0.7,2.4,2,2.4c0.4,0,0.8-0.1,1-0.3v-1.5h-1.2v-0.8h2.1v2.7c-0.4,0.4-1.1,0.7-2,0.7
			C116.9,138.2,115.7,137.1,115.7,135z"/>
		<path class="st3" d="M124.8,136.3h-2.2l-0.5,1.8h-1l2.1-6.2h1.1l2.1,6.2h-1L124.8,136.3z M124.5,135.6l-0.2-0.8
			c-0.2-0.7-0.4-1.4-0.6-2.1h0c-0.2,0.7-0.4,1.4-0.6,2.1l-0.3,0.8H124.5z"/>
		<path class="st3" d="M127.2,131.9h1v6.2h-1V131.9z"/>
		<path class="st3" d="M129.8,131.9h1l2.1,3.7l0.7,1.3h0c-0.1-0.6-0.1-1.4-0.1-2.1v-2.9h0.9v6.2h-1l-2.1-3.7l-0.7-1.3h0
			c0.1,0.6,0.1,1.4,0.1,2v2.9h-0.9V131.9z"/>
	</g>
	<path class="st0" d="M130.6,82.1c-1.3,0-2.3-0.9-2.3-2.1c0-7.5-6.7-13.6-14.9-13.6S98.6,72.5,98.6,80c0,1.2-1,2.1-2.3,2.1
		c-1.3,0-2.3-0.9-2.3-2.1c0-9.8,8.7-17.8,19.4-17.8s19.4,8,19.4,17.8C132.9,81.2,131.9,82.1,130.6,82.1z"/>
	<circle class="st0" cx="92.6" cy="49.6" r="5.2"/>
	<circle class="st0" cx="133.9" cy="49.6" r="5.2"/>
	<path class="st14" d="M159.5,0c-17.4,35.5,0,34.1,0,34.1S176.9,35.5,159.5,0z"/>
</g>
</svg>
