<?xml version="1.0" encoding="iso-8859-1"?>
<!-- Generator: Adobe Illustrator 16.0.0, SVG Export Plug-In . SVG Version: 6.00 Build 0)  -->
<!DOCTYPE svg PUBLIC "-//W3C//DTD SVG 1.1//EN" "http://www.w3.org/Graphics/SVG/1.1/DTD/svg11.dtd">
<svg version="1.1" id="&#xB808;&#xC774;&#xC5B4;_1" xmlns="http://www.w3.org/2000/svg" xmlns:xlink="http://www.w3.org/1999/xlink"
	 x="0px" y="0px" width="404.474px" height="53px" viewBox="0 0 404.474 53" style="enable-background:new 0 0 404.474 53;"
	 xml:space="preserve">
<polygon style="fill:#333333;" points="220.368,0 220.368,8.368 220.368,22.316 220.368,30.685 220.368,44.632 220.368,53 
	228.736,53 253.843,53 253.843,44.632 228.736,44.632 228.736,30.685 248.264,30.685 248.264,22.316 228.736,22.316 228.736,8.368 
	252.447,8.368 252.447,0 "/>
<polygon style="fill:#FF7E00;" points="64.158,0 64.158,8.368 64.158,22.316 64.158,30.685 64.158,44.632 64.158,53 72.526,53 
	97.632,53 97.632,44.632 72.526,44.632 72.526,30.685 92.053,30.685 92.053,22.316 72.526,22.316 72.526,8.368 96.237,8.368 
	96.237,0 "/>
<polygon style="fill:#333333;" points="371,0 371,8.368 371,22.316 371,30.685 371,44.632 371,53 379.368,53 404.474,53 
	404.474,44.632 379.368,44.632 379.368,30.685 398.895,30.685 398.895,22.316 379.368,22.316 379.368,8.368 403.079,8.368 
	403.079,0 "/>
<polygon style="fill:#FF7E00;" points="44.632,0 44.632,44.632 30.685,44.632 30.685,25.105 22.316,25.105 22.316,44.632 
	8.368,44.632 8.368,1.395 0,1.395 0,44.632 0,53 8.368,53 22.316,53 30.685,53 44.632,53 53,53 53,44.632 53,0 "/>
<path style="fill:#333333;" d="M142.263,8.834l6.019,19.061h-12.038L142.263,8.834z M136.684,0l-16.736,53h8.368l5.285-16.737
	h17.325L156.21,53h8.369L147.842,0H136.684z"/>
<polygon style="fill:#333333;" points="270.579,0 270.579,8.368 285.921,8.368 285.921,53 294.289,53 294.289,8.368 309.632,8.368 
	309.632,0 "/>
<polygon style="fill:#333333;" points="351.474,0 351.474,22.316 329.158,22.316 329.158,0 320.789,0 320.789,22.316 
	320.789,30.685 320.789,53 329.158,53 329.158,30.685 351.474,30.685 351.474,53 359.842,53 359.842,30.685 359.842,22.316 
	359.842,0 "/>
<g>
	<defs>
		<rect id="SVGID_1_" width="404.474" height="53"/>
	</defs>
	<clipPath id="SVGID_2_">
		<use xlink:href="#SVGID_1_"  style="overflow:visible;"/>
	</clipPath>
	<path style="clip-path:url(#SVGID_2_);fill:#333333;" d="M200.322,29.255c3.104-1.447,5.644-3.898,7.2-6.939
		c1.072-2.094,1.688-4.46,1.688-6.974s-0.615-4.879-1.688-6.973C204.981,3.405,199.827,0,193.868,0h-9.763h-8.369v8.369v13.947
		v8.368V53h8.369V30.684h8.368L200.842,53h8.368L200.322,29.255z M193.868,22.316h-9.763V8.369h9.763
		c3.851,0,6.974,3.122,6.974,6.973C200.842,19.194,197.719,22.316,193.868,22.316"/>
</g>
</svg>
