<?xml version="1.0" encoding="utf-8"?>
<!-- Generator: Adobe Illustrator 25.4.1, SVG Export Plug-In . SVG Version: 6.00 Build 0)  -->
<svg version="1.1" id="레이어_1" xmlns="http://www.w3.org/2000/svg" xmlns:xlink="http://www.w3.org/1999/xlink" x="0px"
	 y="0px" viewBox="0 0 214 160" style="enable-background:new 0 0 214 160;" xml:space="preserve">
<style type="text/css">
	.st0{fill:#F0EBFF;}
	.st1{opacity:0.5;fill:url(#SVGID_1_);}
	.st2{fill:#FFFFFF;}
	.st3{fill:#95B0FF;}
	.st4{fill:#4976FF;}
	.st5{opacity:0.26;fill:url(#SVGID_00000026867699672548533490000003682230600056141753_);}
	.st6{fill:#FFC305;}
	.st7{clip-path:url(#SVGID_00000142882343771482861410000003667469389693835454_);}
	.st8{fill:#7598FF;}
	.st9{fill:#5D5576;}
	.st10{fill:#AA7485;}
	.st11{fill:#B7808F;}
	.st12{fill:#46506B;}
	.st13{opacity:0.26;}
	.st14{fill:url(#SVGID_00000010292055277348682230000014012154636046174137_);}
	.st15{opacity:0.26;fill:url(#SVGID_00000075131523362906762150000014988855009892736898_);}
	.st16{clip-path:url(#SVGID_00000014627285779135317990000008685317036971544720_);}
	.st17{fill:#F8BDFF;}
	.st18{fill:#FEB0AA;}
	.st19{fill:#9991A6;}
	.st20{fill:#FEC1BC;}
	.st21{fill:#F67A86;}
	.st22{opacity:0.26;fill:url(#SVGID_00000030479364897746909900000001392020857663851166_);}
	.st23{fill:#DFE7FF;}
	.st24{clip-path:url(#SVGID_00000044879808907542572980000015477509212193971645_);}
	.st25{fill:#F2F2F2;}
	.st26{fill:#FAD0FF;}
	.st27{fill:#8EC2E9;}
	.st28{fill:url(#SVGID_00000111879143834808280410000009349416164000448131_);}
	.st29{opacity:0.26;fill:url(#SVGID_00000145776075519101168220000013067956250058837903_);}
	.st30{opacity:0.5;fill:url(#SVGID_00000103974677084141524020000004233815191119598770_);}
	.st31{opacity:0.5;fill:#FFFFFF;}
	.st32{fill:url(#SVGID_00000170999727097109829510000016258938188557322632_);}
	.st33{fill:#FFD85E;}
</style>
<g>
	
		<ellipse transform="matrix(0.9998 -1.814723e-02 1.814723e-02 0.9998 -2.7467 2.4242)" class="st0" cx="132.2" cy="152.6" rx="62" ry="7.4"/>
	<ellipse class="st0" cx="26.2" cy="147" rx="26.2" ry="2.3"/>
	<ellipse class="st0" cx="126" cy="132.2" rx="88" ry="2.9"/>
	
		<linearGradient id="SVGID_1_" gradientUnits="userSpaceOnUse" x1="143.1433" y1="87.8177" x2="143.1433" y2="11.1089" gradientTransform="matrix(0.9961 8.830000e-02 -8.830000e-02 0.9961 -32.1805 -20.6458)">
		<stop  offset="0" style="stop-color:#FFFFFF"/>
		<stop  offset="1" style="stop-color:#F0EBFF"/>
	</linearGradient>
	<path class="st1" d="M24,86.9c5.1-5.4,8.1-12.7,8.2-20.1c0.1-8.4-3.3-16.9-1.6-25.1c1.6-7.8,8.2-14.3,16-15.9
		c5.9-1.2,11.9,0.3,17.9,0.9c10.7,1.2,22-0.3,31.5-5.4c7.5-4,13.6-10.1,20.6-14.8c7.1-4.7,15.8-8.1,24-5.6
		c7.1,2.1,12.4,8.4,15.2,15.4c2.3,5.8,3.1,12.2,6.4,17.5c2.4,3.8,5.9,6.7,9,10c4.1,4.4,7.6,9.5,9.3,15.3c1.7,5.8,1.6,12.2-1.1,17.6
		c-2.3,4.6-6.4,8.2-9.2,12.5c-3.6,5.4-5.2,12-4.5,18.4L24,86.9z"/>
	<g>
		<g>
			<path class="st2" d="M133.6,19.2v105.9c0,3.2-2.6,5.8-5.8,5.8H80.3c-0.1,0-0.2,0-0.4,0c-1.3-0.1-2.6-0.6-3.5-1.5
				c-1.2-1.1-1.9-2.6-1.9-4.3V19.2c0-3.2,2.6-5.8,5.8-5.8h47.4C130.9,13.4,133.6,16,133.6,19.2z"/>
			<g>
				<path class="st3" d="M97.8,127.8l11.8,0c0.6,0,1-0.4,1-1v-0.6c0-0.6-0.4-1-1-1l-11.8,0c-0.6,0-1,0.4-1,1v0.6
					C96.8,127.4,97.3,127.8,97.8,127.8z"/>
				<path class="st3" d="M97.3,18.5l12.9,0c0.3,0,0.5-0.2,0.5-0.5v0c0-0.3-0.2-0.5-0.5-0.5l-12.9,0c-0.3,0-0.5,0.2-0.5,0.5v0
					C96.8,18.3,97,18.5,97.3,18.5z"/>
				<circle class="st3" cx="113.3" cy="18" r="0.5"/>
			</g>
			<g>
				<path class="st4" d="M73.4,19.4v106.1c0,3.7,3,6.7,6.7,6.7l47.5,0.1c3.7,0,6.7-3,6.7-6.7V19.5c0-3.4-2.5-6.2-5.8-6.7l-43.5-0.1
					l-5,0C76.4,12.7,73.4,15.7,73.4,19.4z M75.2,19.4c0-2.7,2.2-4.9,4.9-4.9l5,0l43.3,0.1c2.4,0.3,4.3,2.4,4.3,4.9v106.1
					c0,2.7-2.2,4.9-4.9,4.9l-47.5-0.1c-2.7,0-4.9-2.2-4.9-4.9V19.4z"/>
				<path class="st4" d="M134.3,44.2L134.3,44.2l0-16.1l0,0c0.6,0,1.1,0.5,1.1,1.1v14C135.4,43.7,134.9,44.2,134.3,44.2z"/>
				<path class="st4" d="M134.3,56.2L134.3,56.2l0-9l0,0c0.6,0,1.1,0.5,1.1,1.1v6.8C135.4,55.7,134.9,56.2,134.3,56.2z"/>
			</g>
		</g>
		<g>
			<path class="st0" d="M88.7,99.8l-32.6,8.7c-2.5,0.7-5.1-0.8-5.8-3.4L36.9,55.1c-0.7-2.5,0.8-5.1,3.4-5.8l32.6-8.7
				c2.5-0.7,5.1,0.8,5.8,3.4L92.1,94C92.8,96.5,91.2,99.1,88.7,99.8z"/>
			<g>
				<g>
					<g>
						
							<linearGradient id="SVGID_00000008141338809951046360000009004968165626904764_" gradientUnits="userSpaceOnUse" x1="77.5177" y1="81.8431" x2="82.2294" y2="81.8431">
							<stop  offset="0" style="stop-color:#7598FF"/>
							<stop  offset="1" style="stop-color:#95B0FF"/>
						</linearGradient>
						<path style="opacity:0.26;fill:url(#SVGID_00000008141338809951046360000009004968165626904764_);" d="M77.6,82
							c0.3,0.3,0.6,0.5,1,0.7c0.1,0,0.1,0.1,0.1,0.2c0.1,0.5,0.2,0.9,0.2,1.1c0.1,0.2,0.3,0.3,0.4,0.2c0.4-0.2,0.7-0.4,1-0.7
							c0.1-0.1,0.2-0.1,0.3-0.1c0.3,0.1,0.6,0.1,0.8,0.1c0.1,0,0.2,0,0.3,0c0.2,0,0.3-0.2,0.3-0.4c0,0,0,0,0,0
							c-0.1-0.4-0.2-0.7-0.3-1.1c0-0.1,0-0.2,0-0.3c0.2-0.4,0.4-0.8,0.5-1.1c0.1-0.2-0.1-0.4-0.2-0.4c-0.4-0.1-0.8-0.1-1.2,0
							c-0.1,0-0.2,0-0.2-0.1c-0.3-0.3-0.6-0.6-0.8-0.7c-0.2-0.1-0.4-0.1-0.5,0.1c-0.2,0.4-0.3,0.7-0.4,1.1c0,0.1-0.1,0.2-0.2,0.2
							c-0.5,0.2-0.8,0.5-1,0.6C77.5,81.6,77.5,81.8,77.6,82z"/>
					</g>
					<g>
						<path class="st6" d="M71.3,83.6c0.3,0.3,0.6,0.5,1,0.7c0.1,0,0.1,0.1,0.1,0.2c0.1,0.5,0.2,0.9,0.2,1.1
							c0.1,0.2,0.3,0.3,0.4,0.2c0.4-0.2,0.7-0.4,1-0.7c0.1-0.1,0.2-0.1,0.3-0.1c0.3,0.1,0.6,0.1,0.8,0.1c0.1,0,0.2,0,0.3,0
							c0.2,0,0.3-0.2,0.3-0.4c0,0,0,0,0,0c-0.1-0.4-0.2-0.7-0.3-1.1c0-0.1,0-0.2,0-0.3c0.2-0.4,0.4-0.8,0.5-1.1
							c0.1-0.2-0.1-0.4-0.2-0.4c-0.4-0.1-0.8-0.1-1.2,0c-0.1,0-0.2,0-0.2-0.1c-0.3-0.3-0.6-0.6-0.8-0.7c-0.2-0.1-0.4-0.1-0.5,0.1
							c-0.2,0.4-0.3,0.7-0.4,1.1c0,0.1-0.1,0.2-0.2,0.2c-0.5,0.2-0.8,0.5-1,0.6C71.2,83.3,71.2,83.5,71.3,83.6z"/>
					</g>
					<g>
						<path class="st6" d="M65,85.3c0.3,0.3,0.6,0.5,1,0.7c0.1,0,0.1,0.1,0.1,0.2c0.1,0.5,0.2,0.9,0.2,1.1c0.1,0.2,0.3,0.3,0.4,0.2
							c0.4-0.2,0.7-0.4,1-0.7c0.1-0.1,0.2-0.1,0.3-0.1c0.3,0.1,0.6,0.1,0.8,0.1c0.1,0,0.2,0,0.3,0c0.2,0,0.3-0.2,0.3-0.4
							c0,0,0,0,0,0c-0.1-0.4-0.2-0.7-0.3-1.1c0-0.1,0-0.2,0-0.3c0.2-0.4,0.4-0.8,0.5-1.1c0.1-0.2-0.1-0.4-0.2-0.4
							c-0.4-0.1-0.8-0.1-1.2,0c-0.1,0-0.2,0-0.2-0.1c-0.3-0.3-0.6-0.6-0.8-0.7c-0.2-0.1-0.4-0.1-0.5,0.1c-0.2,0.4-0.3,0.7-0.4,1.1
							c0,0.1-0.1,0.2-0.2,0.2c-0.5,0.2-0.8,0.5-1,0.6C64.9,85,64.9,85.2,65,85.3z"/>
					</g>
					<g>
						<path class="st6" d="M58.7,87c0.3,0.3,0.6,0.5,1,0.7c0.1,0,0.1,0.1,0.1,0.2c0.1,0.5,0.2,0.9,0.2,1.1c0.1,0.2,0.3,0.3,0.4,0.2
							c0.4-0.2,0.7-0.4,1-0.7c0.1-0.1,0.2-0.1,0.3-0.1c0.3,0.1,0.6,0.1,0.8,0.1c0.1,0,0.2,0,0.3,0c0.2,0,0.3-0.2,0.3-0.4
							c0,0,0,0,0,0c-0.1-0.4-0.2-0.7-0.3-1.1c0-0.1,0-0.2,0-0.3c0.2-0.4,0.4-0.8,0.5-1.1c0.1-0.2-0.1-0.4-0.2-0.4
							c-0.4-0.1-0.8-0.1-1.2,0c-0.1,0-0.2,0-0.2-0.1c-0.3-0.3-0.6-0.6-0.8-0.7c-0.2-0.1-0.4-0.1-0.5,0.1C60.2,85,60,85.4,60,85.7
							c0,0.1-0.1,0.2-0.2,0.2c-0.5,0.2-0.8,0.5-1,0.6C58.6,86.7,58.6,86.9,58.7,87z"/>
					</g>
					<g>
						<path class="st6" d="M52.4,88.7c0.3,0.3,0.6,0.5,1,0.7c0.1,0,0.1,0.1,0.1,0.2c0.1,0.5,0.2,0.9,0.2,1.1
							c0.1,0.2,0.3,0.3,0.4,0.2c0.4-0.2,0.7-0.4,1-0.7c0.1-0.1,0.2-0.1,0.3-0.1c0.3,0.1,0.6,0.1,0.8,0.1c0.1,0,0.2,0,0.3,0
							c0.2,0,0.3-0.2,0.3-0.4c0,0,0,0,0,0c-0.1-0.4-0.2-0.7-0.3-1.1c0-0.1,0-0.2,0-0.3c0.2-0.4,0.4-0.8,0.5-1.1
							c0.1-0.2-0.1-0.4-0.2-0.4c-0.4-0.1-0.8-0.1-1.2,0c-0.1,0-0.2,0-0.2-0.1c-0.3-0.3-0.6-0.6-0.8-0.7c-0.2-0.1-0.4-0.1-0.5,0.1
							c-0.2,0.4-0.3,0.7-0.4,1.1c0,0.1-0.1,0.2-0.2,0.2c-0.5,0.2-0.8,0.5-1,0.6C52.3,88.4,52.3,88.6,52.4,88.7z"/>
					</g>
				</g>
			</g>
			<g>
				<path class="st3" d="M81.5,89.7l-24.1,6.4c-0.2,0-0.3-0.1-0.4-0.2l0,0c0-0.2,0.1-0.3,0.2-0.4l24.1-6.4c0.2,0,0.3,0.1,0.4,0.2
					l0,0C81.8,89.5,81.7,89.6,81.5,89.7z"/>
				<path class="st3" d="M82.2,92.1l-24.1,6.4c-0.2,0-0.3-0.1-0.4-0.2l0,0c0-0.2,0.1-0.3,0.2-0.4L82,91.5c0.2,0,0.3,0.1,0.4,0.2l0,0
					C82.4,91.8,82.3,92,82.2,92.1z"/>
				<path class="st3" d="M77,96l-12.5,3.3c-0.2,0-0.3-0.1-0.4-0.2l0,0c0-0.2,0.1-0.3,0.2-0.4l12.5-3.3c0.2,0,0.3,0.1,0.4,0.2l0,0
					C77.3,95.8,77.2,96,77,96z"/>
			</g>
			<g>
				<g>
					<circle class="st2" cx="61.6" cy="63.5" r="14.7"/>
					<path class="st0" d="M61.6,78.4c-3.2,0-6.4-1.1-9-3c-1.3-1-2.4-2.1-3.3-3.5c-0.9-1.4-1.6-2.9-2.1-4.5c-1-3.8-0.5-7.8,1.5-11.3
						c2-3.4,5.2-5.9,9-6.9c1.3-0.3,2.6-0.5,3.9-0.5c3.2,0,6.4,1.1,9,3c1.3,1,2.4,2.1,3.3,3.5c0.9,1.4,1.6,2.9,2.1,4.5
						c1,3.8,0.5,7.8-1.5,11.3c-2,3.4-5.2,5.9-9,6.9C64.2,78.2,62.9,78.4,61.6,78.4z M61.6,49c-1.3,0-2.5,0.2-3.8,0.5
						c-7.7,2.1-12.3,10-10.3,17.8c1.7,6.3,7.5,10.8,14,10.8c1.3,0,2.5-0.2,3.8-0.5c7.7-2.1,12.3-10,10.3-17.8
						C74,53.4,68.2,49,61.6,49z"/>
				</g>
				<g>
					<defs>
						<circle id="SVGID_00000049921647198409428570000000518762469703422867_" cx="61.6" cy="63.5" r="14.7"/>
					</defs>
					<clipPath id="SVGID_00000030477430658097580520000008726060452177349533_">
						<use xlink:href="#SVGID_00000049921647198409428570000000518762469703422867_"  style="overflow:visible;"/>
					</clipPath>
					<g style="clip-path:url(#SVGID_00000030477430658097580520000008726060452177349533_);">
						<path class="st3" d="M60.3,90c0.5-0.1,0.9-0.5,1.1-0.9c1.4-2.2,0.8-5,1.1-7.6c0.1-1.1,0.3-2.1,0.4-3.2
							c0.1-0.4,0.1-0.9,0.1-1.3c0,0,0-0.1,0-0.1c0,0,0,0,0,0c0-0.6,0-1.1,0-1.7c-0.1-1.2-0.3-2.5-0.9-3.7c-0.4-0.9-1.2-1.7-2.1-1.8
							c-0.7,0-1.2,0.4-1.6,1c-0.3,0.6-0.5,1.3-0.6,2c-0.7,4.7-0.5,9.4-0.2,13.8c0,0.4,0.1,0.7,0.1,1.1c0.2,0.7,0.5,1.3,1,1.8
							C59.3,89.7,59.8,90,60.3,90z"/>
						<g>
							<g>
								<g>
									<path class="st3" d="M59,76.2c0.4,0.8,0.8,1.6,1.5,2.5c0,0,2.8,4.4,4.1,8.7l11-2.5l-1.9-6.1c0,0,3-3.9-1-7.6l-3.2-3.1
										c-0.5-0.5-1.3-0.8-2-0.8c-0.1,0-0.2,0-0.3,0c-0.2,0-0.5,0.1-0.7,0.1l-6.8,2.2c0,0,0,0,0,0C59.2,69.8,56.7,71.4,59,76.2z"/>
									<path class="st8" d="M59.5,77.5l0.9,1.2c0,0,2.8,4.4,4.1,8.7l3.1-1c0,0,0,0,0,0c-0.2-0.3-0.5-0.5-0.8-0.8
										c-0.8-0.8-1.1-2.2-0.7-3.3c0.2-0.5,0.5-1.1,0.1-1.5c-0.2-0.2-0.4-0.3-0.7-0.4c-0.1,0-0.1,0-0.2,0c-2.1-0.7-3.8-2.2-4.8-4.2
										l-0.1-0.2C60.2,76.6,59.9,77.1,59.5,77.5z"/>
								</g>
							</g>
						</g>
						<g>
							<g>
								<path class="st9" d="M67.2,57c0.4,1.2,0.2,2.5-0.6,3.8c-0.8,1.2-2.4,2.3-3.8,2c-2-0.5-2.7-2.5-2.8-4.3
									c-0.1-1.1-0.3-4.5,1.5-5.1c0.3-0.1,0.6-0.1,0.8-0.1C64.6,53.3,66.6,54.9,67.2,57z"/>
								<path class="st9" d="M54.4,62.7c0.7,1.9,2.8,3.6,5.5,3.9c0.7,0.1,1.3,0,2-0.1c1.4-0.2,2.8-0.6,3.7-1.4
									c0.8-0.7,1.2-1.7,1.3-2.6c0.3-1.9-0.2-3.9-1.1-5.7c-0.5-1-1-1.9-2-2.7c-0.5-0.4-1.2-0.8-2-0.9c-0.8,0-1.5,0.3-2.2,0.6
									c-0.9,0.4-1.7,0.9-2.5,1.4C54.5,57.2,53.4,60.1,54.4,62.7z"/>
								<path class="st9" d="M55.7,55.8c-0.8-0.4-2-0.3-2.7,0.4c-0.7,0.6-1,1.5-1,2.4c0,1,0.4,2.1,1.4,2.3c0.9,0.2,1.8-0.3,2.3-1
									c0.7-0.8,1.1-2.2,0.7-3.2C56.3,56.3,56,56,55.7,55.8z"/>
								<path class="st10" d="M64.5,65.2c0.1,0.4,0.4,1.4,0.6,1.8c0.2,0.6,0.4,1.2,0.3,1.8s-0.4,1.2-1,1.4c-0.8,0.3-1.7-0.1-2.1-0.7
									c-0.2-0.3-0.3-0.7-0.4-1.1c-0.3-0.9-0.8-2.4-1.2-3.2c-0.1-0.2-0.2-0.4-0.2-0.6c0-0.5,0.5-1,1-1.1c0.7-0.2,1.4-0.1,2,0.2
									C64,64,64.3,64.5,64.5,65.2z"/>
								<path class="st3" d="M61.8,69.9c-0.1-0.1-0.1-0.3-0.2-0.5c-0.1-0.2-0.1-0.5-0.2-0.7c-0.1-0.3-0.1-0.7,0.1-0.9
									c0.1-0.1,0.2-0.1,0.3-0.2c1.1-0.4,2.3-0.7,3.5-1c0.1,0,0.2,0,0.2,0c0.1,0,0.3,0.1,0.3,0.2s0.1,0.3,0.2,0.4
									c0.1,0.3,0.1,0.5,0.2,0.8c0.2,0.6,0.3,1.3,0.1,1.8c-0.2,0.5-0.7,0.9-1.3,1s-1.1,0.1-1.7,0c-0.1,0-0.3-0.1-0.4-0.1
									c-0.4-0.1-0.6-0.4-0.9-0.6C62,70.1,61.8,70,61.8,69.9z"/>
								<path class="st11" d="M57.7,62.6c-0.3,0.3-0.5,0.8-0.2,1.5c0.7,1.3,1.9,1.3,2.8,1.3c1.2-0.1,1.1-1.3,0.3-2.2
									C60,62.5,58.5,61.8,57.7,62.6z"/>
								<path class="st11" d="M58.2,59.8c0.3,1.3,0.7,2.6,1.5,3.6c0.8,1.1,1.9,1.9,3.2,2.2c1.4,0.3,3-0.1,4.1-1
									c0.3-0.3,0.6-0.6,0.7-1c0.3-0.8,0.1-1.7-0.3-2.5c-0.1-0.2-0.3-0.5-0.4-0.7c-0.3-0.4-0.5-0.9-0.8-1.3
									c-0.5-0.8-0.9-1.7-1.4-2.5c-0.5-0.9-1-1.8-1.9-2.2c-1.2-0.6-2.7,0-3.7,1c-0.7,0.7-1.2,1.7-1.2,2.8
									C58.1,58.7,58.1,59.3,58.2,59.8z"/>
								<path class="st12" d="M64.1,58.2c0.1,0.2,0.5,0.1,1-0.1s0.6-0.4,0.5-0.5c-0.1-0.1-0.2-0.2-0.8,0C64.3,57.8,64,58,64.1,58.2z
									"/>
								<path class="st12" d="M60.9,59.8c0.1,0.1,0.7,0,1.2-0.3c0.5-0.3,0.6-0.5,0.6-0.7s-0.4-0.1-0.9,0.1
									C61.2,59.3,60.8,59.7,60.9,59.8z"/>
								<path class="st12" d="M61.9,60.9c0.1,0.2,0.3,0.3,0.4,0.2c0.1-0.1,0.2-0.3,0.1-0.4c-0.1-0.2-0.3-0.3-0.4-0.2
									C61.9,60.5,61.9,60.7,61.9,60.9z"/>
								<path class="st12" d="M64.9,59.5c0.1,0.2,0.3,0.3,0.4,0.2c0.1-0.1,0.2-0.3,0.1-0.4c-0.1-0.2-0.3-0.3-0.4-0.2
									C64.9,59.1,64.8,59.3,64.9,59.5z"/>
								<g>
									<path class="st12" d="M65.4,61.5C65.3,61.5,65.3,61.5,65.4,61.5c-0.1-0.1-0.1-0.1,0-0.1c0.2-0.1,0.3-0.3,0.3-0.4
										c0-0.1,0-0.3-0.1-0.4c-0.1,0-0.2-0.1-0.2-0.1c0,0,0,0-0.1,0c-0.3-0.1-0.6-0.2-0.8-0.4c0,0,0-0.1,0-0.1c0,0,0.1,0,0.1,0
										c0.2,0.2,0.5,0.3,0.8,0.4c0,0,0,0,0.1,0c0.1,0,0.2,0,0.3,0.1c0.2,0.1,0.2,0.3,0.2,0.6C65.7,61.1,65.6,61.4,65.4,61.5
										C65.4,61.5,65.4,61.5,65.4,61.5z"/>
								</g>
								<g>
									<path class="st12" d="M59.3,63.9c-0.3,0-0.6-0.1-0.8-0.3c0,0,0-0.1,0-0.1c0,0,0.1,0,0.1,0c0.3,0.2,0.6,0.3,1,0.2
										c0,0,0.1,0,0.1,0.1c0,0,0,0.1-0.1,0.1C59.5,63.9,59.4,63.9,59.3,63.9z"/>
								</g>
								<g>
									<path class="st10" d="M65.6,62.5c0.1-0.3-0.4-0.4-0.6-0.4c-0.3,0-0.6,0.1-0.9,0.2c-0.2,0.1-0.5,0.3-0.4,0.6
										c0.1,0.2,0.5,0.1,0.6,0.1c0.3,0,0.5-0.1,0.7-0.1C65.2,62.8,65.5,62.7,65.6,62.5C65.5,62.5,65.5,62.5,65.6,62.5z"/>
									<g>
										<path class="st12" d="M64.2,63.1c-0.2,0-0.3,0-0.5-0.1c0,0-0.1,0-0.1-0.1c0,0,0-0.1,0.1-0.1c0.6,0.1,1.3,0,1.8-0.4
											c0,0,0.1,0,0.1,0c0,0,0,0.1,0,0.1C65.2,62.9,64.7,63.1,64.2,63.1z"/>
									</g>
									<g>
										<path class="st12" d="M64.6,63.7C64.6,63.7,64.5,63.7,64.6,63.7c-0.1-0.1-0.1-0.1,0-0.1l0.4-0.1c0,0,0.1,0,0.1,0.1
											c0,0,0,0.1-0.1,0.1L64.6,63.7C64.6,63.7,64.6,63.7,64.6,63.7z"/>
									</g>
								</g>
							</g>
							<path class="st9" d="M61.6,58c-0.5-0.5-0.6-1.4-0.6-2.1c0-0.8,0.2-1.6,0.7-2.2c0.4-0.5,1-0.6,1.4,0c0.5,0.7,0.6,1.6,0.5,2.4
								c-0.1,0.6-0.2,1.2-0.5,1.7C62.7,58.2,62.1,58.5,61.6,58C61.6,58,61.6,58,61.6,58z"/>
							<path class="st9" d="M65.2,56.2c-0.4,0.1-0.9-0.3-1.4-0.6c-0.5-0.4-1-0.9-1.4-1.5c-0.3-0.5-0.4-0.9,0-0.9
								c0.5,0,1,0.4,1.6,0.8c0.4,0.3,0.8,0.7,1.1,1.1C65.3,55.6,65.5,56.1,65.2,56.2C65.2,56.2,65.2,56.2,65.2,56.2z"/>
							<path class="st9" d="M58.1,60.9c-0.1,0-0.3-0.1-0.4-0.3c-0.2-0.2-0.3-0.5-0.3-0.8c-0.1-0.5,0.1-1.1,0.2-1.7
								c0.4-1.7,1.7-3.2,3.1-4.2c0.3-0.2,0.7-0.5,1.1-0.4c0.7,0,0.7,0.8,0.6,1.3c-0.3,1.6-0.9,3.3-1.9,4.6
								C60,59.9,58.9,61.2,58.1,60.9z"/>
						</g>
					</g>
				</g>
			</g>
		</g>
		<g>
			<path class="st0" d="M152.2,108.5l-32.6-8.7c-2.5-0.7-4-3.3-3.4-5.8l13.4-50.1c0.7-2.5,3.3-4,5.8-3.4l32.6,8.7
				c2.5,0.7,4,3.3,3.4,5.8L158,105.2C157.3,107.7,154.7,109.2,152.2,108.5z"/>
			<g>
				<g>
					<g class="st13">
						
							<linearGradient id="SVGID_00000177461401200528340050000017674478164060296875_" gradientUnits="userSpaceOnUse" x1="151.4522" y1="88.6518" x2="156.1436" y2="88.6518">
							<stop  offset="0" style="stop-color:#7598FF"/>
							<stop  offset="1" style="stop-color:#95B0FF"/>
						</linearGradient>
						<path style="fill:url(#SVGID_00000177461401200528340050000017674478164060296875_);" d="M151.5,87.5c0.1,0.4,0.3,0.8,0.5,1.1
							c0,0.1,0,0.2,0,0.3c-0.2,0.4-0.3,0.8-0.4,1.1c0,0.2,0.1,0.4,0.3,0.4c0.4,0,0.8,0,1.2-0.1c0.1,0,0.2,0,0.3,0.1
							c0.2,0.2,0.5,0.4,0.7,0.5c0.1,0.1,0.2,0.1,0.3,0.2c0.2,0.1,0.4,0,0.4-0.2c0,0,0,0,0,0c0.1-0.4,0.2-0.7,0.3-1.1
							c0-0.1,0.1-0.2,0.1-0.2c0.4-0.3,0.7-0.5,0.9-0.7c0.1-0.1,0.1-0.3,0-0.5c-0.3-0.3-0.7-0.5-1-0.7c-0.1,0-0.1-0.1-0.2-0.2
							c-0.1-0.5-0.2-0.8-0.3-1.1c-0.1-0.2-0.3-0.2-0.5-0.1c-0.3,0.2-0.6,0.5-0.9,0.7c-0.1,0.1-0.2,0.1-0.2,0.1c-0.5,0-0.9,0-1.2,0
							C151.5,87.2,151.4,87.3,151.5,87.5z"/>
					</g>
					<g>
						
							<linearGradient id="SVGID_00000102538297413903469910000004966159091427229336_" gradientUnits="userSpaceOnUse" x1="145.157" y1="86.965" x2="149.8484" y2="86.965">
							<stop  offset="0" style="stop-color:#7598FF"/>
							<stop  offset="1" style="stop-color:#95B0FF"/>
						</linearGradient>
						<path style="opacity:0.26;fill:url(#SVGID_00000102538297413903469910000004966159091427229336_);" d="M145.2,85.8
							c0.1,0.4,0.3,0.8,0.5,1.1c0,0.1,0,0.2,0,0.3c-0.2,0.4-0.3,0.8-0.4,1.1c0,0.2,0.1,0.4,0.3,0.4c0.4,0,0.8,0,1.2-0.1
							c0.1,0,0.2,0,0.3,0.1c0.2,0.2,0.5,0.4,0.7,0.5c0.1,0.1,0.2,0.1,0.3,0.2c0.2,0.1,0.4,0,0.4-0.2c0,0,0,0,0,0
							c0.1-0.4,0.2-0.7,0.3-1.1c0-0.1,0.1-0.2,0.1-0.2c0.4-0.3,0.7-0.5,0.9-0.7c0.1-0.1,0.1-0.3,0-0.5c-0.3-0.3-0.7-0.5-1-0.7
							c-0.1,0-0.1-0.1-0.2-0.2c-0.1-0.5-0.2-0.8-0.3-1.1c-0.1-0.2-0.3-0.2-0.5-0.1c-0.3,0.2-0.6,0.5-0.9,0.7
							c-0.1,0.1-0.2,0.1-0.2,0.1c-0.5,0-0.9,0-1.2,0C145.2,85.5,145.1,85.7,145.2,85.8z"/>
					</g>
					<g>
						<path class="st6" d="M138.9,84.2c0.1,0.4,0.3,0.8,0.5,1.1c0,0.1,0,0.2,0,0.3c-0.2,0.4-0.3,0.8-0.4,1.1c0,0.2,0.1,0.4,0.3,0.4
							c0.4,0,0.8,0,1.2-0.1c0.1,0,0.2,0,0.3,0.1c0.2,0.2,0.5,0.4,0.7,0.5c0.1,0.1,0.2,0.1,0.3,0.2c0.2,0.1,0.4,0,0.4-0.2
							c0,0,0,0,0,0c0.1-0.4,0.2-0.7,0.3-1.1c0-0.1,0.1-0.2,0.1-0.2c0.4-0.3,0.7-0.5,0.9-0.7c0.1-0.1,0.1-0.3,0-0.5
							c-0.3-0.3-0.7-0.5-1-0.7c-0.1,0-0.1-0.1-0.2-0.2c-0.1-0.5-0.2-0.8-0.3-1.1c-0.1-0.2-0.3-0.2-0.5-0.1c-0.3,0.2-0.6,0.5-0.9,0.7
							c-0.1,0.1-0.2,0.1-0.2,0.1c-0.5,0-0.9,0-1.2,0C138.9,83.8,138.8,84,138.9,84.2z"/>
					</g>
					<g>
						<path class="st6" d="M132.6,82.5c0.1,0.4,0.3,0.8,0.5,1.1c0,0.1,0,0.2,0,0.3c-0.2,0.4-0.3,0.8-0.4,1.1c0,0.2,0.1,0.4,0.3,0.4
							c0.4,0,0.8,0,1.2-0.1c0.1,0,0.2,0,0.3,0.1c0.2,0.2,0.5,0.4,0.7,0.5c0.1,0.1,0.2,0.1,0.3,0.2c0.2,0.1,0.4,0,0.4-0.2
							c0,0,0,0,0,0c0.1-0.4,0.2-0.7,0.3-1.1c0-0.1,0.1-0.2,0.1-0.2c0.4-0.3,0.7-0.5,0.9-0.7c0.1-0.1,0.1-0.3,0-0.5
							c-0.3-0.3-0.7-0.5-1-0.7c-0.1,0-0.1-0.1-0.2-0.2c-0.1-0.5-0.2-0.8-0.3-1.1c-0.1-0.2-0.3-0.2-0.5-0.1c-0.3,0.2-0.6,0.5-0.9,0.7
							c-0.1,0.1-0.2,0.1-0.2,0.1c-0.5,0-0.9,0-1.2,0C132.6,82.1,132.5,82.3,132.6,82.5z"/>
					</g>
					<g>
						<path class="st6" d="M126.3,80.8c0.1,0.4,0.3,0.8,0.5,1.1c0,0.1,0,0.2,0,0.3c-0.2,0.4-0.3,0.8-0.4,1.1c0,0.2,0.1,0.4,0.3,0.4
							c0.4,0,0.8,0,1.2-0.1c0.1,0,0.2,0,0.3,0.1c0.2,0.2,0.5,0.4,0.7,0.5c0.1,0.1,0.2,0.1,0.3,0.2c0.2,0.1,0.4,0,0.4-0.2
							c0,0,0,0,0,0c0.1-0.4,0.2-0.7,0.3-1.1c0-0.1,0.1-0.2,0.1-0.2c0.4-0.3,0.7-0.5,0.9-0.7c0.1-0.1,0.1-0.3,0-0.5
							c-0.3-0.3-0.7-0.5-1-0.7c-0.1,0-0.1-0.1-0.2-0.2c-0.1-0.5-0.2-0.8-0.3-1.1c-0.1-0.2-0.3-0.2-0.5-0.1c-0.3,0.2-0.6,0.5-0.9,0.7
							c-0.1,0.1-0.2,0.1-0.2,0.1c-0.5,0-0.9,0-1.2,0C126.4,80.4,126.2,80.6,126.3,80.8z"/>
					</g>
				</g>
			</g>
			<g>
				<path class="st3" d="M151,96.2L127,89.7c-0.2,0-0.3-0.2-0.2-0.4l0,0c0-0.2,0.2-0.3,0.4-0.2l24.1,6.4c0.2,0,0.3,0.2,0.2,0.4l0,0
					C151.3,96.1,151.2,96.2,151,96.2z"/>
				<path class="st3" d="M150.4,98.6l-24.1-6.4c-0.2,0-0.3-0.2-0.2-0.4l0,0c0-0.2,0.2-0.3,0.4-0.2l24.1,6.4c0.2,0,0.3,0.2,0.2,0.4
					l0,0C150.7,98.5,150.5,98.6,150.4,98.6z"/>
				<path class="st3" d="M144,99.4l-12.5-3.3c-0.2,0-0.3-0.2-0.2-0.4l0,0c0-0.2,0.2-0.3,0.4-0.2l12.5,3.3c0.2,0,0.3,0.2,0.2,0.4l0,0
					C144.3,99.3,144.1,99.4,144,99.4z"/>
			</g>
			<g>
				<g>
					<circle class="st2" cx="146.9" cy="63.6" r="14.7"/>
					<path class="st0" d="M146.9,78.4c-1.3,0-2.6-0.2-3.9-0.5c-3.8-1-7-3.5-9-6.9c-2-3.4-2.5-7.4-1.5-11.3c0.4-1.6,1.1-3.1,2.1-4.5
						c0.9-1.3,2-2.5,3.3-3.5c2.6-1.9,5.8-3,9-3c1.3,0,2.6,0.2,3.9,0.5c3.8,1,7,3.5,9,6.9c2,3.4,2.5,7.4,1.5,11.3
						c-0.4,1.6-1.1,3.1-2.1,4.5c-0.9,1.3-2,2.5-3.3,3.5C153.3,77.3,150.1,78.4,146.9,78.4z M146.9,49c-6.6,0-12.3,4.4-14,10.8
						c-1,3.7-0.5,7.7,1.5,11c1.9,3.4,5.1,5.8,8.8,6.8c1.2,0.3,2.5,0.5,3.8,0.5c6.6,0,12.3-4.4,14-10.8c2.1-7.7-2.5-15.7-10.3-17.8
						C149.4,49.2,148.1,49,146.9,49z"/>
				</g>
				<g>
					<defs>
						<circle id="SVGID_00000104708024747319782990000010647095396515937418_" cx="146.9" cy="63.6" r="14.7"/>
					</defs>
					<clipPath id="SVGID_00000149342030772116470260000010795649873251893901_">
						<use xlink:href="#SVGID_00000104708024747319782990000010647095396515937418_"  style="overflow:visible;"/>
					</clipPath>
					<g style="clip-path:url(#SVGID_00000149342030772116470260000010795649873251893901_);">
						<g>
							<path class="st3" d="M151.2,72.3c0.5,0.6,0.7,1.3,0.9,2c0.5,1.7,1,3.5,1.3,5.3c0.4,2.2,0.7,4.4,1,6.5c0,0.2,0,0.4,0.1,0.6
								c0.1,0.9,0,0.1,0.1,1c0,0.4,0.1,0.8,0,1.2c-0.1,0.8-0.3,1.6-0.8,2.2c-0.3,0.5-0.8,0.9-1.4,1c-0.5,0-1.4-0.3-1.7-0.7
								c-1.8-2.1-1.5-3.3-2.2-6.1c-0.4-1.6-0.7-3.5-1.1-5.2c-0.5-2-0.7-4.2,0-6.3c0.3-1,0.9-2,1.7-2.4c0.1,0,0.1,0,0.2-0.1
								C150,71.3,150.7,71.7,151.2,72.3z"/>
						</g>
						<g>
							<g>
								<path class="st3" d="M135.5,70.5l-0.5,2.2l-0.2,0.7l-0.4,1.6l-0.1,0.2l-2.2,9l-1.2,4.8c-0.1,0.4-0.2,0.8-0.3,1.2l-0.1,0.8
									l15.3,4.1l0,0c0.3-0.8,0.8-2.3,1-3.2l4.7-17.5c0.3-1-0.1-2.1-1-2.7c0,0-0.1,0-0.1-0.1l-0.1,0c-0.6-0.3-1.2-0.6-1.8-0.9
									c-0.1,0-0.1-0.1-0.2-0.1c-0.3-0.1-0.6-0.3-0.8-0.4c-0.1,0-0.1-0.1-0.2-0.1c0,0-0.1,0-0.1,0c0,0,0,0,0,0
									c-0.1-0.1-0.3-0.1-0.4-0.2c-1.7-0.7-3.4-1.1-5.2-1.5c-0.1,0-0.3,0-0.4-0.1c0,0-0.1,0-0.1,0c0,0-0.1,0-0.1,0
									c-0.1,0-0.3,0-0.4-0.1c0,0,0,0-0.1,0c-0.7-0.1-1.4-0.2-2.1-0.2l-0.1,0c-0.1,0-0.1,0-0.2,0C137,68.2,135.9,69.2,135.5,70.5z"
									/>
								<path class="st17" d="M134.4,75l-0.1,0.2l-2.2,9l-1.2,4.8c-0.1,0.4-0.2,0.8-0.3,1.2l-0.1,0.8l4.1,1.1c0-0.1,0-0.2,0-0.3
									c-0.1-0.7-0.4-1.3-0.6-2c-0.8-2.4-0.2-5.8,0.1-8.3c0.3-2,0.6-4,0.9-6c0-0.2,0-0.3,0-0.4C134.9,74.9,134.7,74.9,134.4,75z"/>
							</g>
						</g>
						<path class="st2" d="M141.5,69.2c-0.4,1.4,0.7,2.8,2.3,3.3c1.6,0.4,3.2-0.3,3.6-1.7c0-0.2,0.1-0.4,0.1-0.5c0,0-0.1,0-0.1,0
							c0,0,0,0,0,0c-0.1-0.1-0.3-0.1-0.4-0.2c-1.7-0.7-3.4-1.1-5.2-1.5C141.6,68.7,141.6,68.9,141.5,69.2z"/>
						<path class="st18" d="M146.9,69l-0.4,1.4c-0.3,1.1-1.3,1.4-2.4,1.1l0,0c-1.1-0.3-1.8-1-1.6-2.1l0.6-2.8
							c0.1-0.4,0.2-0.8,0.2-1.1l0.3-2.2l4.5,1.2L146.9,69z"/>
						<g>
							<g>
								<path class="st19" d="M142.2,61.8c0,0-1.1-2.8-0.3-5.4c0,0,9.4-1.7,10.5,1.7C152.4,58,149.4,63.4,142.2,61.8z"/>
								<path class="st20" d="M142.5,60.4c-0.4,0-1,0.3-1.2,1.1c-0.3,1.4,0.6,2.3,1.3,2.9c1,0.8,1.8-0.3,1.7-1.5
									C144.4,61.9,143.7,60.4,142.5,60.4z"/>
								<path class="st9" d="M144.5,55.5c0,0,3.9-4.8,5-1.6c0,0,5.4-2.2,4,1.5c0,0,3.1,1.5-0.9,4.2
									C152.5,59.5,145.9,62.7,144.5,55.5z"/>
								<path class="st20" d="M144.8,59.3c-0.4,0.7-0.7,1.6-0.9,2.4c-0.4,1.8-0.9,4.8,1,6c0.6,0.3,1.2,0.6,1.8,0.8
									c1,0.2,2,0.2,2.8-0.2c0.5-0.3,1-0.7,1.4-1.3c0.2-0.3,0.3-0.6,0.4-0.9c0-0.1,0-0.1,0.1-0.2c0.2-0.7,0.3-1.3,0.3-2
									c0,0,0-0.1,0-0.1c0-0.1,0-0.1,0-0.2c0-0.3,0-0.6,0.1-0.9c0.1-0.8,0.3-1.5,0.4-2.3c0.1-0.6,0.4-1.4,0.2-2
									c-0.5-1.2-2.9-1.1-4-1.1c-0.8,0.1-1.7,0.3-2.4,0.7C145.5,58.4,145.1,58.8,144.8,59.3z"/>
								<path class="st9" d="M144.5,55.5c0,0-3.6-0.2-2.8,2c0,0,1.3,1.6,3.5-1.5L144.5,55.5z"/>
								<path class="st19" d="M145.5,58.3c0,0,0,3.1-1.1,3.4c-0.2,0-0.5-0.1-0.5-0.4l-0.5-2.2L145.5,58.3z"/>
							</g>
							<path class="st9" d="M150.5,61.1c-0.1,0.2,0.3,0.6,0.9,0.8c0.6,0.2,0.7,0,0.8-0.2c0.1-0.2,0-0.5-0.5-0.7
								C151.1,60.9,150.6,60.9,150.5,61.1z"/>
							<path class="st9" d="M146.7,60.6c0,0.2,0.4,0.5,1,0.6c0.6,0.1,1.1-0.1,1.1-0.3c0-0.2-0.4-0.5-1-0.6
								C147.3,60.2,146.7,60.4,146.7,60.6z"/>
							<path class="st9" d="M147,62.2c-0.1,0.2,0,0.4,0.1,0.4c0.1,0,0.3-0.1,0.4-0.3s0-0.4-0.1-0.4C147.3,61.9,147.1,62,147,62.2z"
								/>
							<path class="st9" d="M150.3,62.9c-0.1,0.2,0,0.4,0.1,0.4c0.1,0,0.3-0.1,0.4-0.3c0.1-0.2,0-0.4-0.1-0.4
								C150.5,62.6,150.4,62.7,150.3,62.9z"/>
							<g>
								<path class="st21" d="M149.4,64.9C149.4,64.9,149.4,64.9,149.4,64.9c-0.1-0.1-0.1-0.2,0-0.2c0.2-0.1,0.4-0.1,0.5-0.2
									c0.1-0.1,0.2-0.3,0.2-0.4c0-0.1-0.1-0.2-0.1-0.2c0,0,0,0,0,0c-0.2-0.3-0.4-0.7-0.4-1.1c0-0.1,0-0.1,0.1-0.1
									c0.1,0,0.1,0,0.1,0.1c0,0.4,0.2,0.7,0.4,1c0,0,0,0,0,0c0.1,0.1,0.1,0.2,0.2,0.3c0.1,0.2,0,0.4-0.2,0.6
									C149.9,64.8,149.7,64.9,149.4,64.9C149.5,64.9,149.5,64.9,149.4,64.9z"/>
							</g>
							<g>
								<path class="st21" d="M148.6,65.9c-0.8,0-1.6-0.4-2-1.1c0,0,0-0.1,0-0.1c0,0,0.1,0,0.1,0c0.4,0.6,1.1,1,1.9,1c0,0,0,0,0,0
									c0.1,0,0.1,0,0.1,0.1C148.8,65.8,148.7,65.9,148.6,65.9C148.7,65.9,148.7,65.9,148.6,65.9z"/>
							</g>
							<g>
								<path class="st21" d="M143.2,62.9C143.2,62.9,143.2,62.9,143.2,62.9c-0.5-0.2-0.8-0.6-1-1.1c0-0.1,0-0.1,0.1-0.1
									c0.1,0,0.1,0,0.1,0.1c0.1,0.4,0.5,0.8,0.8,0.9C143.3,62.7,143.3,62.8,143.2,62.9C143.3,62.8,143.2,62.9,143.2,62.9z"/>
							</g>
							<g>
								<path class="st21" d="M147.4,66.3C147.3,66.3,147.3,66.3,147.4,66.3l-0.4-0.2c0,0-0.1-0.1,0-0.1c0,0,0.1-0.1,0.1,0l0.4,0.2
									C147.5,66.1,147.5,66.2,147.4,66.3C147.4,66.3,147.4,66.3,147.4,66.3z"/>
							</g>
						</g>
						<g>
							<path class="st3" d="M123.9,86.3c0.5,0.3,1.1,0.3,1.7,0.1c2.9-0.9,4.6-3.7,6.8-5.8c0.9-0.8,1.9-1.6,2.8-2.5
								c0.4-0.3,0.7-0.7,1.1-1c0,0,0,0,0.1-0.1c0,0,0,0,0,0c0.5-0.5,0.9-1,1.3-1.5c0.9-1.1,1.7-2.4,2-3.9c0.3-1.1,0.3-2.4-0.5-3.2
								c-0.6-0.5-1.4-0.6-2.2-0.3c-0.7,0.2-1.4,0.8-2,1.3c-4.2,3.5-7.7,7.8-10.8,11.9c-0.3,0.3-0.5,0.7-0.7,1.1
								c-0.4,0.7-0.6,1.5-0.5,2.3C123.2,85.3,123.4,85.9,123.9,86.3z"/>
						</g>
					</g>
				</g>
			</g>
		</g>
		<g>
			<path class="st4" d="M112.9,118.4H94.6c-2.4,0-4.4-2-4.4-4.4v-0.1c0-2.4,2-4.4,4.4-4.4h18.3c2.4,0,4.4,2,4.4,4.4v0.1
				C117.3,116.4,115.3,118.4,112.9,118.4z"/>
			<g>
				<path class="st2" d="M102.1,115.5C102.1,115.5,102.1,115.5,102.1,115.5C102.1,115.5,102.1,115.5,102.1,115.5
					c-0.1,0.1-0.1,0.1-0.1,0.1c0,0-0.1,0-0.1,0c0,0-0.1,0-0.1,0c0,0,0,0-0.1,0c0,0,0,0,0,0c0,0,0,0,0,0V114h-1.4v1.4c0,0,0,0,0,0
					c0,0,0,0,0,0c0,0,0,0-0.1,0c0,0-0.1,0-0.1,0c0,0-0.1,0-0.1,0c0,0-0.1,0-0.1,0c0,0,0,0,0,0c0,0,0,0,0,0v-3.1c0,0,0,0,0,0
					c0,0,0,0,0,0c0,0,0,0,0.1,0c0,0,0.1,0,0.1,0c0,0,0.1,0,0.1,0c0,0,0,0,0.1,0c0,0,0,0,0,0c0,0,0,0,0,0v1.3h1.4v-1.3c0,0,0,0,0,0
					c0,0,0,0,0,0c0,0,0,0,0.1,0c0,0,0.1,0,0.1,0c0,0,0.1,0,0.1,0c0,0,0,0,0.1,0c0,0,0,0,0,0c0,0,0,0,0,0V115.5z"/>
				<path class="st2" d="M103.3,112.5c0,0.1,0,0.2-0.1,0.2c0,0-0.1,0.1-0.2,0.1c-0.1,0-0.2,0-0.2-0.1c0,0-0.1-0.1-0.1-0.2
					c0-0.1,0-0.2,0.1-0.2c0,0,0.1-0.1,0.2-0.1c0.1,0,0.2,0,0.2,0.1C103.3,112.3,103.3,112.4,103.3,112.5z M103.3,115.5
					C103.3,115.5,103.3,115.5,103.3,115.5C103.3,115.5,103.3,115.5,103.3,115.5c-0.1,0.1-0.1,0.1-0.1,0.1c0,0-0.1,0-0.1,0
					c0,0-0.1,0-0.1,0c0,0,0,0-0.1,0c0,0,0,0,0,0c0,0,0,0,0,0v-2.2c0,0,0,0,0,0c0,0,0,0,0,0c0,0,0,0,0.1,0c0,0,0.1,0,0.1,0
					c0,0,0.1,0,0.1,0c0,0,0,0,0.1,0c0,0,0,0,0,0c0,0,0,0,0,0V115.5z"/>
				<path class="st2" d="M105.3,113.4C105.3,113.4,105.3,113.5,105.3,113.4c0,0.1,0,0.1,0,0.1c0,0,0,0,0,0c0,0,0,0,0,0c0,0,0,0,0,0
					c0,0,0,0-0.1,0c0,0-0.1,0-0.1,0c0,0-0.1,0-0.1,0c0,0-0.1,0-0.1,0c0,0-0.1,0-0.1,0.1c0,0-0.1,0.1-0.1,0.1c0,0.1-0.1,0.1-0.2,0.2
					v1.5c0,0,0,0,0,0c0,0,0,0,0,0c0,0,0,0-0.1,0c0,0-0.1,0-0.1,0c0,0-0.1,0-0.1,0c0,0,0,0-0.1,0c0,0,0,0,0,0c0,0,0,0,0,0v-2.2
					c0,0,0,0,0,0c0,0,0,0,0,0c0,0,0,0,0.1,0c0,0,0.1,0,0.1,0c0,0,0.1,0,0.1,0s0,0,0.1,0c0,0,0,0,0,0c0,0,0,0,0,0v0.3
					c0.1-0.1,0.1-0.2,0.2-0.2c0.1-0.1,0.1-0.1,0.2-0.1c0,0,0.1-0.1,0.1-0.1c0,0,0.1,0,0.1,0c0,0,0,0,0.1,0c0,0,0.1,0,0.1,0
					c0,0,0.1,0,0.1,0c0,0,0,0,0.1,0c0,0,0,0,0,0c0,0,0,0,0,0C105.3,113.3,105.3,113.3,105.3,113.4
					C105.3,113.3,105.3,113.4,105.3,113.4z"/>
				<path class="st2" d="M107.6,114.3c0,0.1,0,0.1,0,0.1c0,0-0.1,0-0.1,0H106c0,0.1,0,0.2,0,0.3c0,0.1,0.1,0.2,0.1,0.3
					c0.1,0.1,0.1,0.1,0.2,0.2c0.1,0,0.2,0.1,0.3,0.1c0.1,0,0.2,0,0.3,0c0.1,0,0.2,0,0.2-0.1c0.1,0,0.1,0,0.1-0.1c0,0,0.1,0,0.1,0
					c0,0,0,0,0,0c0,0,0,0,0,0c0,0,0,0,0,0c0,0,0,0,0,0.1c0,0,0,0,0,0.1c0,0,0,0,0,0c0,0,0,0,0,0c0,0,0,0,0,0c0,0,0,0-0.1,0
					c0,0-0.1,0-0.2,0.1c-0.1,0-0.2,0-0.2,0.1c-0.1,0-0.2,0-0.3,0c-0.2,0-0.3,0-0.5-0.1c-0.1-0.1-0.3-0.1-0.3-0.2
					c-0.1-0.1-0.2-0.2-0.2-0.4c0-0.2-0.1-0.3-0.1-0.5c0-0.2,0-0.4,0.1-0.5c0-0.2,0.1-0.3,0.2-0.4c0.1-0.1,0.2-0.2,0.3-0.2
					c0.1-0.1,0.3-0.1,0.4-0.1c0.2,0,0.3,0,0.4,0.1c0.1,0.1,0.2,0.1,0.3,0.2c0.1,0.1,0.1,0.2,0.2,0.3
					C107.6,113.9,107.6,114,107.6,114.3L107.6,114.3z M107.2,114.1c0-0.2,0-0.4-0.1-0.5c-0.1-0.1-0.2-0.2-0.4-0.2
					c-0.1,0-0.2,0-0.3,0.1c-0.1,0-0.1,0.1-0.2,0.1c-0.1,0.1-0.1,0.1-0.1,0.2c0,0.1,0,0.2,0,0.3H107.2z"/>
			</g>
		</g>
		
			<linearGradient id="SVGID_00000096058241372274050780000012852341909409253785_" gradientUnits="userSpaceOnUse" x1="78.3966" y1="68.6107" x2="129.6653" y2="68.6107">
			<stop  offset="0" style="stop-color:#7598FF"/>
			<stop  offset="1" style="stop-color:#95B0FF"/>
		</linearGradient>
		<path style="opacity:0.26;fill:url(#SVGID_00000096058241372274050780000012852341909409253785_);" d="M124,105H84
			c-3.1,0-5.6-2.5-5.6-5.6V37.9c0-3.1,2.5-5.6,5.6-5.6h40c3.1,0,5.6,2.5,5.6,5.6v61.5C129.7,102.5,127.1,105,124,105z"/>
		<g>
			<g>
				<path class="st2" d="M122.9,98.1H85.2c-2.9,0-5.3-2.4-5.3-5.3v-58c0-2.9,2.4-5.3,5.3-5.3h37.7c2.9,0,5.3,2.4,5.3,5.3v58
					C128.2,95.7,125.8,98.1,122.9,98.1z"/>
				<path class="st23" d="M122.9,98.2H85.2c-3,0-5.5-2.5-5.5-5.5v-58c0-3,2.5-5.5,5.5-5.5h37.7c3,0,5.5,2.5,5.5,5.5v58
					C128.4,95.8,125.9,98.2,122.9,98.2z M85.2,29.6c-2.8,0-5.1,2.3-5.1,5.1v58c0,2.8,2.3,5.1,5.1,5.1h37.7c2.8,0,5.1-2.3,5.1-5.1
					v-58c0-2.8-2.3-5.1-5.1-5.1H85.2z"/>
			</g>
			<g>
				<g>
					<defs>
						<circle id="SVGID_00000123423811111827197510000004063445052982749097_" cx="104.1" cy="51" r="16.4"/>
					</defs>
					<use xlink:href="#SVGID_00000123423811111827197510000004063445052982749097_"  style="overflow:visible;fill:#F0EBFF;"/>
					<clipPath id="SVGID_00000056428913319608990690000002679329679681409431_">
						<use xlink:href="#SVGID_00000123423811111827197510000004063445052982749097_"  style="overflow:visible;"/>
					</clipPath>
					<g style="clip-path:url(#SVGID_00000056428913319608990690000002679329679681409431_);">
						<g>
							<path class="st9" d="M115.6,46.5c0.5,1.8-0.3,3.8,0.5,5.8c0.6,1.5,2,2.8,3.3,4.2c1.3,1.4,2.6,3.2,2.5,5
								c-0.1,1.8-1.5,3.3-2,5.1c-0.2,0.8-0.3,1.6-0.5,2.4c-1,3.6-5.3,5.7-9.3,5.3c-4-0.4-7.5-2.8-9.9-5.5c-1.7-1.8-3-3.9-3-6.2
								C97,59,99.8,56,101.2,53c0.9-2,1.1-4.1,0.6-6c-0.2-0.6-0.4-1.2-0.2-1.7c0.2-0.8,1.2-1.4,2.2-1.8c1-0.3,2.1-0.4,3.2-0.5
								c1.7-0.1,3.5-0.2,5.1,0.2C113.8,43.8,115.1,45,115.6,46.5z"/>
							<path class="st3" d="M106.3,59.8c-0.2,0.6-0.7,1.2-1.1,1.8c-1.1,1.3-2.3,2.5-3.5,3.7c-1.5,1.4-3.1,2.8-4.7,4.1
								c-0.1,0.1-0.3,0.2-0.4,0.3c-0.7,0.6-1.4,1.1-2.1,1.6c-0.3,0.2-0.6,0.5-1,0.7c-0.6,0.4-1.4,0.5-2.2,0.5
								c-0.5,0-1.1-0.2-1.4-0.6c-0.3-0.4-0.2-1-0.1-1.5c0.8-2.5,3.4-4.1,5.2-6.1c1.1-1.1,2-2.4,3.1-3.5c1.3-1.4,3-2.6,5-3.2
								c0.9-0.3,2.1-0.3,2.8,0.2c0.1,0,0.1,0.1,0.2,0.1C106.5,58.4,106.5,59.2,106.3,59.8z"/>
							<path class="st8" d="M101.7,65.1c0,0,0,0.1,0,0.1c-1.5,1.4-3.1,2.8-4.7,4.1c-0.3-0.4-0.5-0.8-0.6-1.3c-0.2-1.1,0.5-2.1,1.2-3
								c0.6-0.8,1.3-1.6,1.9-2.5c0.3-0.4,0.7-0.9,1.3-0.8c0.5,0,0.9,0.6,1,1.2C101.9,63.7,101.8,64.4,101.7,65.1z"/>
							<path class="st3" d="M93.9,69.4c0-0.4,0.1-0.7,0.1-1.1c0.2-1.7,0.5-3.3,0.8-4.9c0.6-3,0.2-2.4,0.8-5c0.1-0.4,0.1-0.8,0-1.1
								c-0.2-0.3-0.6-0.5-1-0.6c0,0,0,0,0,0c-1.2-0.4-2.5,0.4-2.9,1.6c0,0.1,0,0.1-0.1,0.2c-1.2,4.2-1.7,5.4-2.3,10.5
								c-0.1,0.4-0.1,0.8-0.1,1.2c0.1,0.9,0.5,1.7,1.2,2c0.7,0.4,1.7,0.3,2.4-0.3C93.5,71.2,93.8,70.3,93.9,69.4z"/>
							<g>
								<g>
									<g>
										<path class="st3" d="M114.9,63.9c-0.1,0.9-0.3,1.9-0.7,3c0,0-1.4,5.4-1.4,10.2h-12.1l0-5.8c0,0-4.3-3-1.4-8l2.3-4.2
											c0.4-0.7,1-1.2,1.7-1.5c0.1,0,0.2-0.1,0.4-0.1c0.2-0.1,0.5-0.1,0.8-0.1h7.6c0,0,0,0,0,0C112.6,57.5,115.7,58.2,114.9,63.9
											z"/>
										<path class="st17" d="M114.8,65.4l-0.6,1.5c0,0-1.4,5.4-1.4,10.2h-3.4c0,0,0,0,0,0c0.2-0.4,0.4-0.7,0.6-1
											c0.6-1.1,0.4-2.5-0.3-3.6c-0.3-0.5-0.8-1-0.6-1.5c0.1-0.3,0.4-0.4,0.6-0.6c0,0,0.1-0.1,0.1-0.1c1.9-1.4,3.2-3.5,3.5-5.8
											l0-0.2C113.8,64.7,114.3,65.1,114.8,65.4z"/>
										<g>
											<path class="st3" d="M123.4,72.5c-0.1,0.5-0.3,1-0.7,1.2c-0.4,0.2-1,0.1-1.4-0.1c-2.3-1-3.5-3.5-5.2-5.3
												c-0.7-0.8-1.4-1.5-2.1-2.3c-0.3-0.3-0.6-0.6-0.8-0.9c0,0,0,0-0.1-0.1c-1.1-1.3-2.1-2.9-2.4-4.7c-0.2-0.9-0.1-2,0.7-2.6
												c0.5-0.4,1.2-0.4,1.8-0.1c0.6,0.3,1.1,0.7,1.6,1.2c3.2,3.3,5.7,7.1,8,10.7c0.2,0.3,0.4,0.6,0.5,0.9
												C123.4,71.1,123.5,71.8,123.4,72.5z"/>
										</g>
										<path class="st18" d="M111.9,57.4c-2.8,6.3-6.5,5.7-6.5,5.7c-3.2,0-2.1-4.7-1.9-5.5c0.1,0,0.2-0.1,0.4-0.1
											c0.2-0.1,0.5-0.1,0.8-0.1L111.9,57.4C111.8,57.4,111.9,57.4,111.9,57.4z"/>
									</g>
								</g>
							</g>
							<g>
								<g>
									<path class="st9" d="M100.4,47c0,1.3,0.6,2.6,1.8,3.7c1.2,1,3.2,1.6,4.5,0.8c1.9-1.2,1.9-3.4,1.4-5.3
										c-0.3-1.1-1.1-4.6-3.1-4.7c-0.3,0-0.6,0.1-0.9,0.2C101.8,42.5,100.3,44.7,100.4,47z"/>
									<path class="st9" d="M115.2,48.7c-0.1,2.1-1.6,4.6-4.3,5.7c-0.7,0.3-1.4,0.5-2.1,0.6c-1.5,0.3-3,0.3-4.2-0.2
										c-1.1-0.5-1.7-1.3-2.2-2.2c-0.9-1.9-1.1-4-0.8-6.1c0.2-1.1,0.4-2.3,1.1-3.4c0.4-0.6,0.9-1.2,1.7-1.5
										c0.8-0.3,1.7-0.2,2.4-0.1c1,0.2,2.1,0.3,3,0.6C113.4,43.1,115.4,45.8,115.2,48.7z"/>
									<path class="st18" d="M105.7,54.5c0,0.5,0,1.5,0,2c0,0.6,0,1.3,0.3,1.9c0.2,0.6,0.8,1.1,1.4,1.1c0.8,0,1.7-0.6,1.9-1.4
										c0.1-0.4,0.1-0.8,0.1-1.3c0-1,0.1-2.7,0.2-3.7c0-0.2,0.1-0.4,0-0.7c-0.1-0.6-0.8-0.8-1.3-0.8c-0.7,0-1.5,0.3-2,0.9
										C105.9,53.1,105.7,53.8,105.7,54.5z"/>
									<path class="st20" d="M111.9,49.6c0.4,0.2,0.8,0.7,0.7,1.5c-0.3,1.5-1.5,1.9-2.4,2.2c-1.3,0.3-1.5-1-1-2.1
										C109.5,50.3,110.8,49.1,111.9,49.6z"/>
									<path class="st20" d="M110.4,47c0.2,1.4,0.1,2.8-0.4,4.2c-0.5,1.3-1.3,2.6-2.5,3.3c-1.4,0.8-3.1,0.9-4.5,0.3
										c-0.4-0.2-0.8-0.4-1.1-0.7c-0.6-0.7-0.7-1.6-0.5-2.6c0-0.3,0.1-0.6,0.2-0.9c0.1-0.5,0.3-1.1,0.4-1.6c0.2-1,0.4-2,0.6-3
										c0.2-1,0.5-2.1,1.3-2.9c1.1-1,2.8-0.9,4-0.2c1,0.5,1.7,1.4,2.1,2.4C110.2,45.8,110.3,46.4,110.4,47z"/>
									<path class="st12" d="M103.9,47.2c0,0.2-0.5,0.3-1.1,0.2c-0.6-0.1-0.7-0.2-0.7-0.4c0-0.2,0.1-0.3,0.8-0.2
										C103.5,46.9,103.9,47.1,103.9,47.2z"/>
									<path class="st12" d="M107.7,47.9c0,0.2-0.7,0.2-1.3,0.1c-0.6-0.1-0.8-0.3-0.8-0.5c0-0.2,0.4-0.3,0.9-0.1
										C107.2,47.4,107.8,47.7,107.7,47.9z"/>
									
										<ellipse transform="matrix(0.1215 -0.9926 0.9926 0.1215 44.8734 149.1949)" class="st12" cx="106.7" cy="49.2" rx="0.4" ry="0.3"/>
									<path class="st12" d="M103.5,48.9c0,0.2-0.2,0.4-0.3,0.4c-0.1,0-0.2-0.2-0.2-0.4c0-0.2,0.2-0.4,0.3-0.4
										C103.5,48.5,103.5,48.7,103.5,48.9z"/>
									<g>
										<path class="st21" d="M103.7,51C103.7,51,103.7,51,103.7,51c-0.3,0-0.5-0.2-0.6-0.4c-0.1-0.2-0.1-0.5,0-0.6
											c0.1-0.1,0.2-0.2,0.3-0.2c0,0,0,0,0,0c0.3-0.2,0.5-0.4,0.6-0.6c0,0,0.1,0,0.1,0c0,0,0,0.1,0,0.1c-0.2,0.3-0.4,0.5-0.7,0.7
											c0,0,0,0,0,0c-0.1,0.1-0.2,0.1-0.2,0.2c-0.1,0.1-0.1,0.3,0,0.5c0.1,0.2,0.3,0.3,0.5,0.3C103.7,50.9,103.8,50.9,103.7,51
											C103.8,51,103.7,51,103.7,51z"/>
									</g>
									<g>
										<path class="st21" d="M110.3,51.5C110.3,51.5,110.3,51.5,110.3,51.5c-0.1-0.1-0.1-0.2,0-0.2c0.4,0,0.7-0.2,0.9-0.5
											c0,0,0.1,0,0.1,0c0,0,0,0.1,0,0.1C111.1,51.3,110.7,51.5,110.3,51.5C110.3,51.5,110.3,51.5,110.3,51.5z"/>
									</g>
									<g>
										<path class="st18" d="M103.8,52.1c-0.2-0.3,0.3-0.5,0.5-0.6c0.3-0.1,0.6-0.1,1-0.1c0.2,0,0.6,0.1,0.5,0.4
											c-0.1,0.2-0.4,0.3-0.6,0.3c-0.3,0.1-0.5,0.1-0.8,0.1C104.2,52.3,104,52.3,103.8,52.1C103.8,52.1,103.8,52.1,103.8,52.1z"
											/>
										<g>
											<path class="st21" d="M104.6,52.3c-0.3,0-0.5,0-0.8-0.1c0,0-0.1-0.1,0-0.1c0,0,0.1-0.1,0.1,0c0.6,0.2,1.3,0.1,1.9-0.2
												c0,0,0.1,0,0.1,0c0,0,0,0.1,0,0.1C105.5,52.2,105,52.3,104.6,52.3z"/>
										</g>
										<g>
											<path class="st21" d="M104.7,53.1C104.7,53.1,104.7,53,104.7,53.1c-0.1-0.1-0.1-0.2,0-0.2l0.4-0.1c0,0,0.1,0,0.1,0.1
												c0,0,0,0.1-0.1,0.1L104.7,53.1C104.7,53.1,104.7,53.1,104.7,53.1z"/>
										</g>
									</g>
								</g>
								<path class="st9" d="M106.4,46.2c0.3-0.7,0.2-1.7,0-2.4c-0.2-0.8-0.7-1.5-1.4-2c-0.5-0.4-1.2-0.3-1.4,0.4
									c-0.3,0.9-0.1,1.8,0.2,2.6c0.2,0.6,0.6,1.2,1.1,1.6C105.3,46.8,106.1,46.9,106.4,46.2C106.4,46.2,106.4,46.2,106.4,46.2z"/>
								<path class="st9" d="M102.2,45.5c0.4,0,0.9-0.6,1.2-1c0.4-0.5,0.7-1.2,1-1.9c0.2-0.6,0.1-1-0.3-0.9
									c-0.5,0.2-0.9,0.7-1.3,1.3c-0.3,0.4-0.6,1-0.8,1.5C101.8,45,101.8,45.6,102.2,45.5C102.2,45.5,102.2,45.5,102.2,45.5z"/>
								<path class="st9" d="M110.9,48.1c0.1-0.1,0.2-0.2,0.3-0.4c0.1-0.3,0.1-0.6,0.1-0.9c-0.1-0.6-0.4-1.1-0.7-1.6
									c-1-1.6-2.7-2.7-4.5-3.2c-0.4-0.1-0.9-0.2-1.3-0.1c-0.7,0.3-0.4,1-0.2,1.5c0.9,1.5,2,3,3.4,4
									C108.6,47.7,110.1,48.6,110.9,48.1z"/>
								<circle class="st25" cx="111" cy="53.2" r="0.6"/>
							</g>
						</g>
						<g>
							<g>
								<path class="st18" d="M96.6,54.4c-0.5-0.7-1.3-1-2-1.3c-0.3-0.1-0.5-0.2-0.8-0.1c-0.4,0.1-0.7,0.6-0.9,1
									c-0.1,0.2-0.1,0.3-0.2,0.5c0,0-0.1-0.1-0.1-0.1c-0.1-0.1-0.3-0.2-0.5-0.2c-0.1,0-0.2,0.2-0.3,0.3c-0.1,0.2-0.1,0.3-0.1,0.5
									c0,0.4,0.1,0.7,0.3,1c0,0,0,0.1,0.1,0.1c0,0.1,0.1,0.2,0.1,0.3c0.2,0.3,0.3,0.8,0.4,1.1c0,0.1,0.1,0.2,0.2,0.2
									c0.8,0.3,1.6,0.2,2.4,0.2c0.1,0,0.2-0.1,0.2-0.2c0-0.4,0.1-0.8,0.3-1.1c0.2-0.4,0.6-0.8,0.9-1.1c0.1-0.1,0.2-0.3,0.2-0.4
									C96.9,54.8,96.8,54.6,96.6,54.4z"/>
								<path class="st20" d="M92.3,54.1c0.2,0.1,0.4,0.3,0.6,0.4c0.3,0.3,0.6,0.5,0.8,0.8c0,0.1,0.1,0.1,0.1,0.2c0,0.1,0,0.2,0,0.2
									c0,0-0.1,0.1-0.1,0.1c-0.2,0.1-0.4,0-0.6-0.1c-0.3-0.1-0.7-0.2-0.9-0.4c-0.3-0.2-0.4-0.6-0.4-0.9c0-0.2,0.2-0.4,0.4-0.4
									C92.2,54.1,92.2,54.1,92.3,54.1z"/>
								<path class="st20" d="M92.3,54.2c0,0-0.1-0.1-0.1-0.1c-0.1-0.2-0.1-0.4-0.1-0.5c0-0.1,0.1-0.2,0.1-0.3
									c0.1-0.1,0.2-0.2,0.3-0.2c0.1,0,0.2,0,0.3,0.1c0.6,0.3,0.9,0.9,1.3,1.5c0.1,0.1,0.1,0.2,0.1,0.3c0,0.2-0.2,0.3-0.3,0.3
									c-0.1,0-0.3,0-0.4-0.1c-0.4-0.2-0.7-0.5-1-0.8c0,0-0.1-0.1-0.1-0.1C92.4,54.2,92.3,54.2,92.3,54.2z"/>
								<path class="st20" d="M93.4,51.4c-0.1,0-0.1,0-0.2,0.1c-0.2,0.2-0.2,0.5-0.2,0.7c0,0.4,0.1,0.7,0.2,1.1
									c0.1,0.2,0.1,0.5,0.3,0.6c0.1,0.2,0.4,0.3,0.6,0.2c0.2-0.1,0.3-0.3,0.4-0.5c0-0.2,0-0.4-0.1-0.6c-0.1-0.4-0.2-0.7-0.4-1
									c-0.1-0.2-0.2-0.4-0.4-0.6C93.5,51.4,93.5,51.3,93.4,51.4z"/>
								<path class="st20" d="M95.5,51.5c0.1,0.2,0.1,0.4,0.1,0.6c0,0.1,0,0.2,0,0.3c0,0.2,0,0.3,0,0.5c0,0.2,0,0.3,0,0.5
									c0,0.2-0.1,0.3-0.3,0.4c-0.1,0.1-0.3,0.1-0.4,0.1c-0.2-0.1-0.4-0.3-0.4-0.5c-0.1-0.2,0-0.4,0-0.7c0-0.4,0.1-0.8,0.2-1.1
									c0-0.1,0.1-0.2,0.1-0.3s0.2-0.2,0.3-0.2c0.1,0,0.2,0.1,0.2,0.2C95.5,51.4,95.5,51.5,95.5,51.5z"/>
								<path class="st20" d="M97,54.2c0-0.1,0-0.2-0.1-0.3c-0.1-0.2-0.4-0.4-0.7-0.3c-0.3,0-0.5,0.2-0.7,0.4
									c-0.2,0.2-0.3,0.5-0.3,0.8c0,0.1,0,0.2,0,0.3c0,0.3,0.1,0.5,0.1,0.7c0.1,0.2,0.1,0.4,0.3,0.5c0.1,0.1,0.2,0.1,0.2,0.1
									c0.1,0,0.1-0.1,0.2-0.2c0.2-0.3,0.5-0.6,0.7-0.9c0.1-0.2,0.3-0.4,0.3-0.6C97,54.6,97,54.4,97,54.2z"/>
								<path class="st20" d="M94.1,53.7c0.1,0.2,0.2,0.4,0.5,0.4c0.1,0,0.3,0,0.4,0c0.3,0,0.5,0,0.8,0c0.3,0,0.6,0.1,0.8,0
									c0.1,0,0.2-0.1,0.4-0.1c-0.1-0.4-0.2-0.8-0.5-1.1c0,0-0.1-0.1-0.1-0.1c0,0-0.1-0.1-0.1-0.1c-0.2-0.1-0.4-0.1-0.6,0
									c-0.2,0-0.4,0.1-0.6,0.2c-0.3,0.1-0.5,0.2-0.8,0.3c-0.1,0-0.1,0-0.1,0.1C94,53.3,94,53.4,94,53.4C94,53.5,94,53.6,94.1,53.7
									z"/>
							</g>
							<path class="st20" d="M95.2,52.5c0.1,0,0.3-0.2,0.3-0.3s0.1-0.3,0.1-0.5c0-0.3,0-0.6,0-0.9c0-0.3,0-0.5,0-0.8
								c0-0.3,0-0.6-0.1-0.9c0-0.1-0.1-0.2-0.1-0.3c-0.1-0.1-0.2-0.1-0.3-0.1c-0.1,0.1-0.2,0.3-0.2,0.4c-0.1,0.8-0.3,1.6-0.3,2.4
								c0,0.2,0,0.4,0.1,0.6C94.8,52.4,95,52.5,95.2,52.5z"/>
							<path class="st20" d="M93.7,52.8c0.1-0.1,0.2-0.2,0.2-0.4s0-0.3-0.1-0.5c-0.1-0.3-0.2-0.6-0.2-0.9c-0.1-0.3-0.2-0.5-0.2-0.8
								c-0.1-0.3-0.2-0.6-0.3-0.8c-0.1-0.1-0.1-0.2-0.2-0.2c-0.1,0-0.2-0.1-0.3,0c-0.1,0.1-0.1,0.3-0.1,0.5c0.1,0.8,0.2,1.6,0.5,2.4
								c0.1,0.2,0.1,0.4,0.3,0.5C93.3,52.8,93.5,52.9,93.7,52.8z"/>
						</g>
					</g>
				</g>
			</g>
			<g>
				<g>
					<g>
						<path class="st6" d="M116.1,75.6c0.2,0.4,0.5,0.8,0.8,1.1c0.1,0.1,0.1,0.2,0.1,0.3c-0.1,0.5-0.1,1-0.1,1.3
							c0,0.2,0.2,0.4,0.4,0.3c0.5-0.1,0.9-0.3,1.3-0.4c0.1,0,0.2,0,0.3,0c0.3,0.2,0.6,0.3,0.9,0.4c0.1,0,0.2,0.1,0.4,0.1
							c0.2,0.1,0.4-0.1,0.4-0.3c0,0,0,0,0-0.1c0-0.4,0-0.9,0-1.3c0-0.1,0-0.2,0.1-0.3c0.4-0.4,0.7-0.8,0.8-1c0.1-0.2,0-0.4-0.1-0.5
							c-0.5-0.2-0.9-0.3-1.3-0.4c-0.1,0-0.2-0.1-0.2-0.2c-0.2-0.5-0.5-0.8-0.7-1c-0.1-0.2-0.4-0.2-0.5,0c-0.3,0.3-0.5,0.7-0.7,1
							c0,0.1-0.1,0.2-0.2,0.2c-0.6,0.1-1,0.3-1.3,0.4C116,75.2,116,75.4,116.1,75.6z"/>
					</g>
					<g>
						<path class="st6" d="M108.8,75.6c0.2,0.4,0.5,0.8,0.8,1.1c0.1,0.1,0.1,0.2,0.1,0.3c-0.1,0.5-0.1,1-0.1,1.3
							c0,0.2,0.2,0.4,0.4,0.3c0.5-0.1,0.9-0.3,1.3-0.4c0.1,0,0.2,0,0.3,0c0.3,0.2,0.6,0.3,0.9,0.4c0.1,0,0.2,0.1,0.4,0.1
							c0.2,0.1,0.4-0.1,0.4-0.3c0,0,0,0,0-0.1c0-0.4,0-0.9,0-1.3c0-0.1,0-0.2,0.1-0.3c0.4-0.4,0.7-0.8,0.8-1c0.1-0.2,0-0.4-0.1-0.5
							c-0.5-0.2-0.9-0.3-1.3-0.4c-0.1,0-0.2-0.1-0.2-0.2c-0.2-0.5-0.5-0.8-0.7-1c-0.1-0.2-0.4-0.2-0.5,0c-0.3,0.3-0.5,0.7-0.7,1
							c0,0.1-0.1,0.2-0.2,0.2c-0.6,0.1-1,0.3-1.3,0.4C108.7,75.2,108.7,75.4,108.8,75.6z"/>
					</g>
					<g>
						<path class="st6" d="M101.5,75.6c0.2,0.4,0.5,0.8,0.8,1.1c0.1,0.1,0.1,0.2,0.1,0.3c-0.1,0.5-0.1,1-0.1,1.3
							c0,0.2,0.2,0.4,0.4,0.3c0.5-0.1,0.9-0.3,1.3-0.4c0.1,0,0.2,0,0.3,0c0.3,0.2,0.6,0.3,0.9,0.4c0.1,0,0.2,0.1,0.4,0.1
							c0.2,0.1,0.4-0.1,0.4-0.3c0,0,0,0,0-0.1c0-0.4,0-0.9,0-1.3c0-0.1,0-0.2,0.1-0.3c0.4-0.4,0.7-0.8,0.8-1c0.1-0.2,0-0.4-0.1-0.5
							c-0.5-0.2-0.9-0.3-1.3-0.4c-0.1,0-0.2-0.1-0.2-0.2c-0.2-0.5-0.5-0.8-0.7-1c-0.1-0.2-0.4-0.2-0.5,0c-0.3,0.3-0.5,0.7-0.7,1
							c0,0.1-0.1,0.2-0.2,0.2c-0.6,0.1-1,0.3-1.3,0.4C101.5,75.2,101.4,75.4,101.5,75.6z"/>
					</g>
					<g>
						<path class="st6" d="M94.2,75.6c0.2,0.4,0.5,0.8,0.8,1.1c0.1,0.1,0.1,0.2,0.1,0.3c-0.1,0.5-0.1,1-0.1,1.3
							c0,0.2,0.2,0.4,0.4,0.3c0.5-0.1,0.9-0.3,1.3-0.4c0.1,0,0.2,0,0.3,0c0.3,0.2,0.6,0.3,0.9,0.4c0.1,0,0.2,0.1,0.4,0.1
							c0.2,0.1,0.4-0.1,0.4-0.3c0,0,0,0,0-0.1c0-0.4,0-0.9,0-1.3c0-0.1,0-0.2,0.1-0.3c0.4-0.4,0.7-0.8,0.8-1c0.1-0.2,0-0.4-0.1-0.5
							c-0.5-0.2-0.9-0.3-1.3-0.4c-0.1,0-0.2-0.1-0.2-0.2c-0.2-0.5-0.5-0.8-0.7-1c-0.1-0.2-0.4-0.2-0.5,0c-0.3,0.3-0.5,0.7-0.7,1
							c0,0.1-0.1,0.2-0.2,0.2c-0.6,0.1-1,0.3-1.3,0.4C94.2,75.2,94.1,75.4,94.2,75.6z"/>
					</g>
					<g>
						<path class="st6" d="M86.9,75.6c0.2,0.4,0.5,0.8,0.8,1.1c0.1,0.1,0.1,0.2,0.1,0.3c-0.1,0.5-0.1,1-0.1,1.3
							c0,0.2,0.2,0.4,0.4,0.3c0.5-0.1,0.9-0.3,1.3-0.4c0.1,0,0.2,0,0.3,0c0.3,0.2,0.6,0.3,0.9,0.4c0.1,0,0.2,0.1,0.4,0.1
							c0.2,0.1,0.4-0.1,0.4-0.3c0,0,0,0,0-0.1c0-0.4,0-0.9,0-1.3c0-0.1,0-0.2,0.1-0.3c0.4-0.4,0.7-0.8,0.8-1c0.1-0.2,0-0.4-0.1-0.5
							c-0.5-0.2-0.9-0.3-1.3-0.4c-0.1,0-0.2-0.1-0.2-0.2c-0.2-0.5-0.5-0.8-0.7-1c-0.1-0.2-0.4-0.2-0.5,0c-0.3,0.3-0.5,0.7-0.7,1
							c0,0.1-0.1,0.2-0.2,0.2c-0.6,0.1-1,0.3-1.3,0.4C86.9,75.2,86.8,75.4,86.9,75.6z"/>
					</g>
				</g>
			</g>
			<g>
				<path class="st3" d="M118.1,85H90.2c-0.2,0-0.3-0.2-0.3-0.3v0c0-0.2,0.2-0.3,0.3-0.3h27.9c0.2,0,0.3,0.2,0.3,0.3v0
					C118.4,84.9,118.3,85,118.1,85z"/>
				<path class="st3" d="M118.1,87.8H90.2c-0.2,0-0.3-0.2-0.3-0.3v0c0-0.2,0.2-0.3,0.3-0.3h27.9c0.2,0,0.3,0.2,0.3,0.3v0
					C118.4,87.6,118.3,87.8,118.1,87.8z"/>
				<path class="st3" d="M111.4,90.6H96.9c-0.2,0-0.3-0.2-0.3-0.3v0c0-0.2,0.2-0.3,0.3-0.3h14.5c0.2,0,0.3,0.2,0.3,0.3v0
					C111.7,90.4,111.6,90.6,111.4,90.6z"/>
			</g>
		</g>
	</g>
	<g>
		<path class="st26" d="M182,87.7c-0.2-0.4-0.5-0.7-0.8-0.9c-0.8-0.7-1.9-1-2.9-1.3c-0.3-0.1-0.7-0.2-1-0.2c-0.4,0-0.6,0.1-1,0.1
			c-0.2,0-0.4-0.1-0.6,0c-0.3,0.1-0.2,0.5-0.1,0.9c0.1,0.3,0.3,0.5,0.6,0.7c1.2,0.7,2.4,1.1,3.8,1.6c0.3,0.1,0.5,0.2,0.9,0.2
			c0.4,0.1,0.7,0,1-0.2c0.1-0.1,0.3-0.2,0.3-0.4C182.1,88,182.1,87.8,182,87.7z"/>
		<path class="st2" d="M176,86.8c0.4,0.1,0.8,0.1,1.1,0.1c0.1,0,0.2,0,0.3-0.1c0.3-0.1,0.4-0.5,0.2-0.8c-0.1-0.3-0.4-0.5-0.6-0.6
			c-0.3-0.1-0.5-0.2-0.8-0.3c-0.3,0-0.6,0-0.8,0.2c-0.1,0.1-0.2,0.2-0.3,0.4c0,0.1,0,0.2,0,0.3c0,0.2,0.1,0.3,0.1,0.5
			C175.4,86.7,175.7,86.8,176,86.8z"/>
		<path class="st18" d="M172.6,83.5C172.5,83.5,172.5,83.5,172.6,83.5c-0.1-0.2,0.1-0.3,0.2-0.3c0.2,0,0.4,0.2,0.5,0.3
			c0.4,0.5,0.8,1.1,1,1.7c0,0,0,0.1,0,0.1c0,0-0.1,0-0.1,0c-0.3-0.2-0.6-0.5-0.9-0.7c-0.1-0.1-0.2-0.1-0.2-0.2
			c-0.1-0.1-0.1-0.2-0.2-0.2C172.8,84,172.7,83.8,172.6,83.5z"/>
		<g>
			<path class="st26" d="M189.4,77.1c0,0.4-0.2,0.9-0.4,1.3c-1.1,2.3-2.5,4.4-3.9,6.3c-0.3,0.4-0.7,0.9-1,1.3
				c-0.1,0.2-0.3,0.4-0.5,0.5c-0.3,0.3-0.8,0.5-1.2,0.6c-0.3,0.1-0.7,0-1-0.2c-0.2-0.2-0.3-0.6-0.3-0.9c0.1-1.7,1.4-3.1,2.2-4.6
				c0.5-0.9,0.8-1.8,1.3-2.6c0.6-1,1.4-2.1,2.5-2.7c0.5-0.3,1.2-0.5,1.7-0.3c0,0,0.1,0,0.1,0.1C189.3,76.2,189.4,76.7,189.4,77.1z"
				/>
			<path class="st26" d="M181.2,83.6c-0.2-0.1-0.5-0.2-0.7-0.2c-1-0.4-2-0.8-3-1.2c-1.8-0.8-1.5-0.5-3.1-1.2
				c-0.2-0.1-0.5-0.2-0.7-0.1c-0.2,0.1-0.4,0.3-0.6,0.5c0,0,0,0,0,0c-0.4,0.7-0.2,1.6,0.5,2c0,0,0.1,0,0.1,0.1
				c2.4,1.4,3.1,1.8,6.2,3c0.2,0.1,0.5,0.2,0.8,0.2c0.6,0.1,1.2,0,1.5-0.4c0.4-0.4,0.5-0.9,0.2-1.5
				C182.3,84.2,181.7,83.8,181.2,83.6z"/>
			<path class="st17" d="M189.4,77.3c-0.1,0.4-0.3,0.8-0.5,1.2c-1.3,2.2-2.9,4.1-4.6,5.8c-0.5-0.6-0.6-1.5-0.5-2.2
				c0.2-1,0.8-1.9,1.5-2.7c0.9-1.1,2-2.2,3.1-3.1c0.1-0.1,0.2-0.2,0.4-0.3c0.1,0,0.1,0,0.2,0c0,0,0.1,0,0.1,0.1
				C189.3,76.4,189.4,76.9,189.4,77.3z"/>
			<path class="st26" d="M201.2,86.1c-0.1,0.3-0.2,0.7-0.5,0.8c-0.3,0.2-0.7,0.1-1,0c-1.6-0.7-2.4-2.3-3.5-3.6c-0.5-0.5-1-1-1.5-1.5
				c-0.2-0.2-0.4-0.4-0.6-0.6c0,0,0,0,0,0c-0.8-0.9-1.4-2-1.6-3.2c-0.1-0.6,0-1.4,0.4-1.8c0.3-0.3,0.8-0.2,1.2-0.1
				c0.4,0.2,0.7,0.5,1.1,0.8c2.2,2.2,3.9,4.8,5.4,7.3c0.1,0.2,0.3,0.4,0.3,0.6C201.2,85.2,201.3,85.7,201.2,86.1z"/>
			<g>
				<g>
					<path class="st3" d="M195.8,126.5c0,0,0.1,2,0.2,3.8l2.2,0.1c0,0-0.5-1.9-0.7-4"/>
					<path class="st9" d="M194.8,132.3l-0.1-0.8c0,0,1.3-0.7,1.1-2.8c0,0,1.1-0.4,1.7,0.6l0.7,0.1c0,0,0.7,1.4,0.4,2.9H194.8z"/>
				</g>
				<g>
					<path class="st3" d="M187.6,126.4c0,0,0.2,3.6-0.9,3.9l3.1,0.8c0,0-0.5-1.1-0.5-4.7H187.6z"/>
					<path class="st9" d="M187.2,128.6l-0.7,1.3l-3.4,1.5l0.3,0.9h6.4c0,0,0.4-0.4,0-2.5C189.9,129.7,188.6,128.8,187.2,128.6z"/>
				</g>
				<g>
					<g>
						<path class="st4" d="M197.9,127.2h-2.5c-0.2-4-2-14.4-2-14.4c-0.9-2-3-11.2-3-11.2l-0.1,7.4c0.5,11.9-0.8,18.2-0.8,18.2h-2.2
							c-1-10-1.7-17.5-1.7-17.5c-0.2-2.3-0.7-12.2-0.7-12.2c0-4.6,0.7-7,1.2-8.8c0.1-0.4,0.3-0.5,0.3-0.5l0,0h7.4
							c0.1,0.2,0.3,0.3,0.4,0.5c0.6,0.8,1,1.8,1.4,2.9c0,0.1,0,0.1,0.1,0.2c0.1,0.2,0.1,0.4,0.2,0.6c0,0.1,0.1,0.2,0.1,0.3
							c1.7,6.4,1,15.5,1,15.5l0.3,2.2C199,119,197.9,127.2,197.9,127.2z"/>
						<g>
							<path class="st27" d="M190.4,101.6C190.4,101.6,190.4,101.6,190.4,101.6l-1.2-5.9l-1-0.5c0,0,0-0.1,0-0.1c0,0,0.1,0,0.1,0
								l1,0.5c0,0,0,0,0,0L190.4,101.6C190.5,101.6,190.5,101.6,190.4,101.6C190.4,101.6,190.4,101.6,190.4,101.6z"/>
						</g>
						<path class="st26" d="M195.2,79.9c-0.1,0.5-0.2,1.2-0.4,1.9c0,0-0.8,3.3-0.8,6.3h-7.4l0-3.6c0,0-2.6-1.9-0.9-4.9L187,77
							c0.2-0.4,0.6-0.8,1.1-0.9c0.1,0,0.1,0,0.2-0.1c0.2,0,0.3-0.1,0.5-0.1h4.7c0,0,0,0,0,0C193.8,76,195.7,76.4,195.2,79.9z"/>
						<path class="st17" d="M194.8,81.8C194.8,81.8,194.8,81.8,194.8,81.8c0,0-0.9,3.3-0.9,6.3h-2.1c0,0,0,0,0,0
							c0.1-0.2,0.2-0.4,0.3-0.6c0.3-0.7,0.3-1.6-0.2-2.2c-0.2-0.3-0.5-0.6-0.4-0.9c0.1-0.2,0.2-0.3,0.4-0.4c1-0.7,1.8-1.7,2.2-2.9
							c0,0,0,0,0,0C194.4,81.3,194.6,81.5,194.8,81.8z"/>
						<path class="st18" d="M193.3,75.9c-1.7,3.9-4,3.5-4,3.5c-2,0-1.3-2.9-1.2-3.4c0.1,0,0.1,0,0.2-0.1c0.2,0,0.3-0.1,0.5-0.1
							L193.3,75.9C193.3,75.9,193.3,75.9,193.3,75.9z"/>
					</g>
					<path class="st4" d="M194.3,88.6h-8.1c0.2-0.3,0.3-0.5,0.3-0.5l0,0h7.4C194,88.2,194.2,88.4,194.3,88.6z"/>
				</g>
			</g>
			<g>
				<path class="st2" d="M174.1,81.4c0.1,0.4,0,0.9-0.2,1.3c-0.1,0.2-0.3,0.4-0.5,0.3c-0.2-0.1-0.4-0.3-0.6-0.5
					c-0.1-0.1-0.1-0.3-0.2-0.4c-0.1-0.5,0-1,0.2-1.4c0-0.1,0.1-0.1,0.1-0.2c0.1-0.1,0.3,0,0.4,0.1c0.2,0.1,0.3,0.2,0.4,0.4
					C174,81.1,174.1,81.3,174.1,81.4z"/>
				<g>
					<path class="st18" d="M172.2,80.1c-0.1-0.2-0.3-0.3-0.5-0.4c-0.6-0.2-1.8-0.8-2.5-1.1c-0.1,0-0.1,0-0.2,0
						c-0.1,0-0.1,0.1-0.1,0.2c0,0.1,0.1,0.1,0.1,0.2c0.6,0.6,1.4,1.1,2.2,1.4c0.2,0.1,0.3,0.1,0.5,0.1c0.2,0,0.4-0.1,0.4-0.2
						C172.2,80.2,172.2,80.1,172.2,80.1z"/>
					<path class="st20" d="M172.5,80.1c-0.1,0-0.2-0.1-0.2-0.1c-0.2,0-0.3,0.2-0.3,0.3c-0.2,0.5-0.1,1.1,0.2,1.5
						c0.1,0.2,0.3,0.3,0.5,0.4c0.1,0.1,0.3,0.2,0.5,0.2c0.1,0,0.3-0.1,0.3-0.3c0.1-0.1,0.1-0.3,0.1-0.4c0-0.4-0.1-0.7-0.3-1.1
						c0-0.1-0.1-0.2-0.1-0.2C172.9,80.3,172.7,80.2,172.5,80.1z"/>
					<path class="st20" d="M171.9,79.4c-0.1,0-0.2,0.1-0.3,0.1c-0.3,0.1-0.5,0.3-0.7,0.5c-0.1,0.1-0.1,0.1-0.2,0.2
						c-0.1,0.2,0,0.4,0.1,0.6c0.1,0.2,0.2,0.3,0.3,0.5c0,0.1,0.1,0.1,0.1,0.2c0.2,0.1,0.4,0,0.5-0.2c0.1-0.2,0-0.4,0-0.6
						c0.2,0.3,0.5,0.5,0.8,0.5c0.1,0,0.3,0,0.4,0c0.3-0.1,0.3-0.5,0.2-0.8c-0.1-0.3-0.4-0.5-0.6-0.7
						C172.3,79.6,172.1,79.5,171.9,79.4z"/>
				</g>
			</g>
			<g>
				<g>
					<path class="st9" d="M186.2,69.5c0,0.8,0.3,1.6,1.1,2.3c0.7,0.6,2,1,2.8,0.5c1.1-0.7,1.2-2.1,0.9-3.3c-0.2-0.7-0.7-2.9-1.9-2.9
						c-0.2,0-0.4,0-0.5,0.1C187.1,66.7,186.2,68.1,186.2,69.5z"/>
					<path class="st9" d="M195.4,70.5c-0.1,1.3-1,2.8-2.6,3.5c-0.4,0.2-0.8,0.3-1.3,0.4c-0.9,0.2-1.9,0.2-2.6-0.1
						c-0.7-0.3-1.1-0.8-1.3-1.4c-0.6-1.1-0.7-2.5-0.5-3.8c0.1-0.7,0.3-1.4,0.7-2.1c0.2-0.4,0.6-0.8,1.1-0.9c0.5-0.2,1-0.1,1.5,0
						c0.6,0.1,1.3,0.2,1.9,0.4C194.2,67.1,195.5,68.7,195.4,70.5z"/>
					<path class="st9" d="M193.2,66.5c0.4-0.4,1.2-0.6,1.7-0.3c0.5,0.2,0.9,0.7,1.1,1.3c0.2,0.6,0.2,1.4-0.4,1.7
						c-0.5,0.3-1.2,0.1-1.7-0.1c-0.6-0.4-1.1-1.1-1.1-1.9C192.9,66.9,193,66.7,193.2,66.5z"/>
					<path class="st18" d="M189.5,74.1c0,0.3,0,0.9,0,1.2c0,0.4,0,0.8,0.2,1.2c0.2,0.4,0.5,0.7,0.9,0.7c0.5,0,1-0.4,1.2-0.9
						c0.1-0.3,0.1-0.5,0.1-0.8c0-0.6,0-1.6,0.1-2.3c0-0.1,0-0.3,0-0.4c-0.1-0.3-0.5-0.5-0.8-0.5c-0.5,0-0.9,0.2-1.2,0.5
						S189.5,73.7,189.5,74.1z"/>
					<path class="st20" d="M193.3,71.1c0.2,0.1,0.5,0.4,0.4,0.9c-0.2,0.9-0.9,1.2-1.5,1.3c-0.8,0.2-1-0.6-0.6-1.3
						C191.8,71.5,192.6,70.8,193.3,71.1z"/>
					<path class="st20" d="M192.4,69.5c0.1,0.9,0.1,1.8-0.2,2.6c-0.3,0.8-0.8,1.6-1.6,2c-0.8,0.5-1.9,0.6-2.8,0.2
						c-0.2-0.1-0.5-0.2-0.7-0.5c-0.4-0.4-0.4-1-0.3-1.6c0-0.2,0.1-0.4,0.1-0.5c0.1-0.3,0.2-0.7,0.2-1c0.1-0.6,0.2-1.2,0.4-1.8
						c0.1-0.6,0.3-1.3,0.8-1.8c0.7-0.6,1.7-0.6,2.5-0.1c0.6,0.3,1.1,0.9,1.3,1.5C192.3,68.8,192.4,69.1,192.4,69.5z"/>
					<path class="st9" d="M188.4,69.6c0,0.1-0.3,0.2-0.7,0.1c-0.4,0-0.4-0.1-0.4-0.2c0-0.1,0.1-0.2,0.5-0.1
						C188.2,69.4,188.4,69.5,188.4,69.6z"/>
					<path class="st9" d="M190.7,70c0,0.1-0.4,0.1-0.8,0c-0.3-0.1-0.5-0.2-0.5-0.3c0-0.1,0.2-0.2,0.6-0.1
						C190.4,69.7,190.8,69.9,190.7,70z"/>
					<path class="st9" d="M190.3,70.8c0,0.1-0.1,0.2-0.2,0.2c-0.1,0-0.1-0.1-0.1-0.3c0-0.1,0.1-0.2,0.2-0.2S190.3,70.7,190.3,70.8z"
						/>
					<path class="st9" d="M188.1,70.6c0,0.1-0.1,0.2-0.2,0.2c-0.1,0-0.1-0.1-0.1-0.3c0-0.1,0.1-0.2,0.2-0.2
						C188.1,70.3,188.2,70.5,188.1,70.6z"/>
					<g>
						<path class="st21" d="M188.3,72C188.2,72,188.2,72,188.3,72c-0.2,0-0.3-0.1-0.4-0.3c-0.1-0.1-0.1-0.3,0-0.4
							c0-0.1,0.1-0.1,0.2-0.1l0,0c0.2-0.1,0.3-0.2,0.4-0.4c0,0,0.1,0,0.1,0c0,0,0,0.1,0,0.1c-0.1,0.2-0.3,0.3-0.4,0.4l0,0
							c-0.1,0-0.1,0.1-0.1,0.1c-0.1,0.1,0,0.2,0,0.3c0,0.1,0.2,0.2,0.3,0.2C188.3,71.9,188.3,71.9,188.3,72
							C188.3,71.9,188.3,72,188.3,72z"/>
					</g>
					<g>
						<path class="st21" d="M192.3,72.3C192.3,72.3,192.3,72.3,192.3,72.3c-0.1-0.1,0-0.1,0-0.1c0.2,0,0.4-0.1,0.5-0.3
							c0,0,0.1,0,0.1,0c0,0,0,0.1,0,0.1C192.8,72.1,192.6,72.3,192.3,72.3C192.3,72.3,192.3,72.3,192.3,72.3z"/>
					</g>
					<g>
						<path class="st18" d="M188.3,72.7c-0.1-0.2,0.2-0.3,0.3-0.4c0.2-0.1,0.4-0.1,0.6-0.1c0.1,0,0.4,0.1,0.3,0.3
							c0,0.1-0.3,0.2-0.4,0.2c-0.2,0-0.3,0.1-0.5,0.1C188.6,72.7,188.4,72.8,188.3,72.7C188.4,72.7,188.4,72.7,188.3,72.7z"/>
						<g>
							<path class="st21" d="M188.8,72.8c-0.2,0-0.3,0-0.5-0.1c0,0,0,0,0-0.1c0,0,0,0,0.1,0c0.4,0.1,0.8,0.1,1.2-0.1
								c0,0,0.1,0,0.1,0c0,0,0,0.1,0,0.1C189.3,72.7,189.1,72.8,188.8,72.8z"/>
						</g>
						<g>
							<path class="st21" d="M188.9,73.2C188.9,73.2,188.8,73.2,188.9,73.2c-0.1-0.1,0-0.1,0-0.1l0.3,0c0,0,0.1,0,0.1,0
								c0,0,0,0.1,0,0.1L188.9,73.2C188.9,73.2,188.9,73.2,188.9,73.2z"/>
						</g>
					</g>
				</g>
				<path class="st9" d="M189.9,69c0.2-0.4,0.1-1,0-1.5c-0.2-0.5-0.5-0.9-0.9-1.2c-0.3-0.3-0.7-0.2-0.9,0.2
					c-0.2,0.5-0.1,1.1,0.2,1.6c0.2,0.4,0.4,0.7,0.7,1C189.3,69.4,189.7,69.4,189.9,69C189.9,69,189.9,69,189.9,69z"/>
				<path class="st9" d="M187.3,68.6c0.2,0,0.5-0.4,0.7-0.6c0.2-0.3,0.5-0.7,0.6-1.2c0.1-0.4,0.1-0.6-0.2-0.5
					c-0.3,0.1-0.6,0.4-0.8,0.8c-0.2,0.3-0.4,0.6-0.5,0.9C187.1,68.2,187.1,68.6,187.3,68.6C187.3,68.6,187.3,68.6,187.3,68.6z"/>
				<path class="st9" d="M192.7,70.1c0.1-0.1,0.1-0.1,0.2-0.2c0.1-0.2,0.1-0.4,0-0.5c-0.1-0.4-0.3-0.7-0.4-1c-0.6-1-1.7-1.7-2.8-2
					c-0.2-0.1-0.5-0.2-0.8-0.1c-0.4,0.2-0.3,0.6-0.1,0.9c0.5,0.9,1.2,1.9,2.1,2.5C191.3,69.9,192.2,70.5,192.7,70.1z"/>
				<path class="st25" d="M193.1,73.2c0,0.2-0.1,0.4-0.3,0.4c-0.2,0-0.4-0.1-0.4-0.3c0-0.2,0.1-0.4,0.3-0.4
					C192.9,72.9,193.1,73,193.1,73.2z"/>
			</g>
			<g>
				<path class="st18" d="M192.2,96.3c-0.1-0.1-0.1-0.2-0.2-0.3c-0.1-0.1-0.1-0.2-0.2-0.3c0-0.1-0.1-0.2,0-0.2c0-0.1,0.2-0.1,0.3,0
					c0.3,0.1,0.4,0.4,0.6,0.6c0,0.1,0.1,0.1,0.1,0.2c0,0.1,0,0.1-0.1,0.2C192.5,96.5,192.4,96.4,192.2,96.3
					C192.3,96.4,192.2,96.3,192.2,96.3z"/>
				<path class="st18" d="M191.5,95.5c0.1,0,0.1,0,0.2,0.1c0.2,0.1,0.4,0.3,0.6,0.6c0,0.1,0.1,0.1,0.2,0.2c0.1,0,0.1,0,0.2,0
					c0.4,0,0.7-0.1,1.1-0.2c0.2-0.1,0.4,0.1,0.5,0.3c0.1,0.2,0.2,0.4,0,0.6c0,0-0.1,0.1-0.1,0.1c-0.2,0.1-0.3,0.2-0.5,0.2
					c-0.1,0-0.2,0-0.3,0c-0.3-0.1-0.7-0.1-1-0.1c0,0,0,0,0,0l0,0c0,0-0.1,0-0.1-0.1c-0.1-0.2-0.2-0.3-0.3-0.5
					c-0.1-0.1-0.1-0.2-0.2-0.3c-0.1-0.2-0.3-0.3-0.4-0.5c0,0,0-0.1,0-0.1C191.3,95.6,191.4,95.6,191.5,95.5z"/>
				<g>
					<g>
						
							<rect x="164.7" y="71.2" transform="matrix(0.4967 -0.8679 0.8679 0.4967 18.9459 182.0545)" class="st4" width="3.6" height="7.1"/>
					</g>
					<g>
						<g>
							<path class="st3" d="M129.4,53.5c-5.5,9.7-2.2,22,7.5,27.5c9.7,5.5,22,2.2,27.5-7.5c5.5-9.7,2.2-22-7.5-27.5
								C147.3,40.5,135,43.9,129.4,53.5z M162.7,72.5c-5,8.7-16,11.7-24.7,6.7c-8.7-5-11.7-16-6.7-24.7c5-8.7,16-11.7,24.7-6.7
								C164.6,52.8,167.6,63.8,162.7,72.5z"/>
						</g>
					</g>
					<g>
						
							<linearGradient id="SVGID_00000018924888224399972370000010054123424886023602_" gradientUnits="userSpaceOnUse" x1="171.3969" y1="77.0559" x2="192.851" y2="89.8618">
							<stop  offset="0" style="stop-color:#FFD85E"/>
							<stop  offset="1" style="stop-color:#FFC305"/>
						</linearGradient>
						<path style="fill:url(#SVGID_00000018924888224399972370000010054123424886023602_);" d="M198.9,88.9l-3.9,6.8
							c-0.4,0.7-1.3,0.9-1.9,0.5l-24.5-15.3c-0.6-0.4-0.8-1.2-0.5-1.9l2.9-5c0.4-0.6,1.2-0.9,1.8-0.5L198.3,87
							C199,87.3,199.3,88.2,198.9,88.9z"/>
					</g>
				</g>
				<g>
					<path class="st20" d="M192.4,94.7c0,0.2,0.3,0.4,0.5,0.5c0.2,0.1,0.5,0.1,0.7,0.1c0.3,0.1,0.6,0.2,0.8,0.4
						c0.1,0.1,0.2,0.1,0.3,0.2c0.3,0.1,0.6,0,0.8-0.2s0.3-0.5,0.2-0.8c-0.3-0.1-0.5-0.1-0.8-0.1c-0.2,0-0.5,0-0.7,0
						c-0.5,0-1-0.1-1.5-0.2c-0.1,0-0.3-0.1-0.4,0C192.4,94.6,192.4,94.7,192.4,94.7z"/>
					<path class="st20" d="M194.4,97.4c-0.1,0-0.2,0.1-0.3,0.1c-0.1,0-0.3-0.1-0.4-0.1c-0.1,0-0.2-0.1-0.2-0.2
						c-0.1-0.2,0-0.4,0.1-0.6c0.2-0.3,0.6-0.5,0.8-0.8c0.2-0.2,0.3-0.4,0.5-0.6c0.2-0.2,0.4-0.3,0.6-0.4c0.2,0,0.4,0,0.5,0.1
						c0.2,0.1,0.5,0.1,0.7,0.3c0.1,0.1,0.1,0.3,0.1,0.4c0,0.1,0,0.3,0,0.4c-0.1,0.3-0.2,0.5-0.4,0.6s-0.4,0.2-0.6,0.3
						C195.3,97.1,194.8,97.2,194.4,97.4z"/>
					<path class="st20" d="M194.7,96.2c0-0.2-0.2-0.3-0.4-0.3s-0.4,0-0.6,0.1c-0.8,0.1-1.6,0-2.3-0.1c-0.1,0-0.2,0-0.2,0.1
						c0,0,0,0,0,0.1c0,0.3,0.4,0.4,0.7,0.5c0.7,0.2,1.6,0.4,2.4,0.2c0.1,0,0.3-0.1,0.4-0.2C194.7,96.5,194.7,96.3,194.7,96.2z"/>
				</g>
			</g>
			<g>
				<path class="st2" d="M195.3,94.8c0,0.1,0,0.1,0,0.2c0,0.1,0.1,0.2,0.1,0.3c0.3,0.3,0.9,0.5,1.3,0.6c0.1,0,0.1,0,0.2,0
					c0.1,0,0.1-0.1,0.1-0.1c0.1-0.2,0.3-0.5,0.4-0.7c0,0,0-0.1,0-0.1c0-0.1-0.2,0-0.3-0.1c-0.5-0.4-1-0.6-1.6-0.7
					C195.4,94.4,195.4,94.6,195.3,94.8z"/>
				<path class="st26" d="M198,85.6c-0.1,0.2-0.1,0.5-0.2,0.7c-0.3,1.1-0.7,2.1-1,3.1c-0.7,1.9-0.8,2.6-1.3,4.3
					c-0.1,0.2-0.2,0.5-0.1,0.7c0.1,0.2,0.3,0.4,0.5,0.5c0.4,0.3,1,0.5,1.4,0.3c0.2-0.3,0.4-0.7,0.6-1c1.2-2.5,1.9-4.3,2.8-7.5
					c0.1-0.3,0.1-0.5,0.2-0.8c0.1-0.6-0.1-1.1-0.5-1.5c-0.4-0.3-1-0.4-1.5-0.1C198.5,84.5,198.2,85.1,198,85.6z"/>
			</g>
		</g>
		<g>
			<g>
				<g>
					<path class="st20" d="M174.7,85.9c-0.2-0.3-0.5-0.5-0.7-0.8c-0.2-0.2-0.4-0.4-0.3-0.6c0.1-0.2,0.4-0.2,0.7-0.1
						c0.7,0.2,1.4,0.5,2,0.8c0.3,0.1,0.6,0.3,0.8,0.5c0.1,0.1,0.2,0.2,0.3,0.4s0,0.3-0.2,0.3c-0.1,0-0.2,0-0.3,0
						c-0.7-0.1-1.3-0.2-2-0.3c-0.1,0-0.2,0-0.2-0.1C174.8,86,174.7,86,174.7,85.9z"/>
					<path class="st20" d="M173.4,83.9c0.1,0.1,0.2,0.1,0.3,0c0.1-0.1,0.1-0.2,0.1-0.3c0-0.1,0-0.2,0-0.3c-0.1-0.3-0.2-0.6-0.4-0.8
						c0-0.1-0.1-0.1-0.2-0.2c-0.1-0.1-0.2-0.1-0.3,0c0,0.1,0,0.1,0,0.2c0.1,0.4,0.2,0.9,0.4,1.3C173.4,83.8,173.4,83.9,173.4,83.9z"
						/>
					<path class="st20" d="M173.3,83.5c0-0.1,0-0.1,0.1-0.2s0.1-0.1,0.2,0c0,0,0.1,0.1,0.1,0.1c0.3,0.4,0.5,0.8,0.7,1.2
						c0.1,0.1,0.1,0.2,0.1,0.4c0,0.1-0.1,0.3-0.2,0.3c-0.1,0-0.2,0-0.2,0c-0.2-0.1-0.3-0.3-0.4-0.5c-0.1-0.2-0.2-0.4-0.2-0.6
						C173.4,83.9,173.3,83.7,173.3,83.5z"/>
					<path class="st18" d="M177.2,84.1c0-0.1,0-0.2-0.1-0.3c-0.1,0-0.1,0-0.2,0s-0.1,0.1-0.1,0.1c-0.2,0.3-0.3,0.5-0.5,0.8
						c0,0,0,0.1,0,0.1c0,0.1,0,0.1,0.1,0.2c0,0,0.1,0.1,0.1,0.1c0,0,0.1,0,0.1,0.1c0.1,0,0.2-0.1,0.2-0.1
						C177.1,84.8,177.2,84.4,177.2,84.1z"/>
					<path class="st18" d="M176.5,83.2c-0.1,0-0.1,0.1-0.2,0.1c-0.3,0.3-0.5,0.6-0.7,0.9c0,0.1-0.1,0.1-0.1,0.2
						c0,0.1,0.1,0.1,0.1,0.2c0.1,0,0.1,0.1,0.2,0.1c0.1,0,0.2,0,0.2,0c0,0,0.1-0.1,0.1-0.1c0.2-0.3,0.4-0.6,0.5-0.9
						c0-0.1,0-0.1,0-0.2C176.6,83.3,176.6,83.2,176.5,83.2z"/>
					<path class="st18" d="M174.7,83.9c0-0.1,0-0.1,0.1-0.2c0.2-0.4,0.4-0.7,0.6-1.1c0-0.1,0.1-0.1,0.1-0.1c0,0,0.1,0,0.2,0
						c0,0,0.1,0.1,0.1,0.2c0,0.4-0.1,0.7-0.2,1.1c0,0.1-0.1,0.2-0.2,0.3s-0.2,0.1-0.3,0.1S174.8,84,174.7,83.9z"/>
					<path class="st20" d="M176.4,84.8c-0.1,0.2-0.2,0.3-0.3,0.5c0,0.1-0.1,0.2-0.1,0.3c0,0.2,0.1,0.4,0.2,0.5c0,0,0.1,0,0.1,0
						c0.1,0,0.1,0,0.2,0c0.2-0.1,0.2-0.3,0.3-0.5c0-0.2,0.1-0.4,0.1-0.6c0-0.1,0-0.2-0.1-0.3c-0.1-0.1-0.2-0.1-0.3,0
						C176.4,84.7,176.4,84.7,176.4,84.8z"/>
					<path class="st20" d="M176,84.2c-0.1-0.1-0.1-0.1-0.2-0.1c-0.1,0-0.1,0.1-0.2,0.2c-0.2,0.3-0.3,0.6-0.4,0.9c0,0.1,0,0.2,0,0.4
						s0.1,0.2,0.2,0.3c0.1,0,0.3,0,0.4-0.2c0.1-0.1,0.1-0.3,0.2-0.4c0-0.2,0.1-0.3,0.1-0.5C176.1,84.5,176.1,84.3,176,84.2z"/>
					<path class="st20" d="M175.3,84c0-0.1,0-0.2,0-0.3c0-0.1-0.1-0.2-0.2-0.2c-0.1,0-0.1,0-0.2,0.1c-0.1,0.1-0.1,0.1-0.1,0.2
						c-0.1,0.2-0.2,0.4-0.3,0.7c-0.1,0.2-0.1,0.6,0,0.8c0.1,0.3,0.4,0.3,0.6,0c0.1-0.2,0.2-0.4,0.2-0.6
						C175.2,84.4,175.3,84.2,175.3,84z"/>
				</g>
			</g>
		</g>
	</g>
	<g>
		<path class="st26" d="M14.5,90.5c0,0.1,0.1,0.2,0.1,0.3c0.4,0.7,1.3,1.2,2.1,1c0.7-0.2,1.1-0.9,1.5-1.5c0.3-0.6,0.6-1.1,0.9-1.6
			c0.1-0.3,0.3-0.5,0.4-0.8c0.6-1.3,1.2-2.6,1.8-4.2c0.5-1.2,1-2.4,1.5-3.6c0.2-0.4,0.4-0.9,0.5-1.3c0.3-0.7,0.6-1.4,0.3-2.1
			c-0.3-0.8-1.3-1.3-2.2-1.2c-1.1,0.1-2.1,0.8-2.8,1.7c-0.7,0.9-1.1,1.9-1.5,3c-0.9,2.2-1.3,3.6-2.2,5.7c-0.3,0.8-0.6,1.6-0.8,2.5
			C14.1,89,14.2,89.8,14.5,90.5z"/>
		<path class="st26" d="M14.5,90.5c0.2,1,1.6,1.5,3.4,1.7c1,0.1,2.1,0.1,3.3,0.1c0.3,0,0.6,0,0.8,0c1,0,2-0.1,3-0.2
			c1.1-0.1,2.1-0.2,2.8-0.3c1-0.1,1.8-0.8,1.7-1.7c0,0,0,0,0,0c0-0.8-0.8-1.5-1.8-1.6c-0.9-0.1-1.8-0.2-2.7-0.3
			c-0.7-0.1-1.5-0.1-2.2-0.2c-0.2,0-0.4,0-0.6-0.1c-0.8-0.1-1.7-0.2-2.7-0.2c-0.3,0-0.6,0-0.9,0c-0.2,0-0.4,0-0.5,0
			c-1.5,0.1-2.8,0.4-3.3,1.3C14.5,89.6,14.4,90.1,14.5,90.5z"/>
		<path class="st17" d="M17.9,91.1c0,0.4,0,0.7,0.1,1.1c1,0.1,2.1,0.1,3.3,0.1c0.3-0.4,0.5-0.8,0.6-1.2c0.3-0.9,0.4-1.8,0.4-2.8
			c0-0.1,0-0.2,0-0.3c0-2.2-0.6-4.4-1.5-6.3c-0.2-0.3-0.4-0.7-0.7-0.7c-0.4,0.3-0.7,0.8-1,1.2c-0.3,0.6-0.3,1.2-0.4,1.8
			c-0.1,0.9-0.3,1.9-0.4,2.8c0,0.3-0.1,0.7-0.1,1C18,88.9,17.9,90,17.9,91.1z"/>
		<g>
			<path class="st20" d="M45.1,72.3c0.1,0,0.2,0.1,0.3,0.1c0,0.1,0,0.2,0,0.3c0,0.4-0.2,0.9-0.4,1.3c-0.1,0.2-0.2,0.5-0.4,0.7
				c-0.1,0.1-0.2,0.2-0.3,0.2c-0.1,0-0.2,0-0.3-0.1c-0.1-0.1-0.2-0.3-0.2-0.5c0-0.1,0-0.1,0.1-0.2c0.1-0.2,0.1-0.3,0.2-0.5
				c0.2-0.5,0.4-1,0.9-1.4C45,72.4,45,72.3,45.1,72.3z"/>
			<path class="st18" d="M44.1,74.3l1.1-1.1c0.1-0.1,0.2-0.1,0.4-0.1l0,0c0.1,0,0.3,0.1,0.3,0.2l1.5,2.2c0.1,0.1,0.1,0.2,0.1,0.3
				v0.1c0,0.1,0,0.2-0.1,0.3l-0.5,0.6c-0.1,0.1-0.1,0.1-0.2,0.1l-0.1,0c-0.1,0-0.2,0-0.3,0l-0.3-0.1c-0.1,0-0.1-0.1-0.1-0.1
				l-1.7-1.7C43.9,74.8,43.9,74.5,44.1,74.3z"/>
			<path class="st20" d="M43.6,78.6c-0.4-0.3-0.7-0.8-0.9-1.3c-0.1-0.2-0.2-0.4-0.2-0.6c-0.2-0.4,0-0.9,0.3-1.2
				c0.4-0.3,0.7-0.7,1-1.1c0.1-0.1,0.1-0.2,0.3-0.2c0.1,0,0.2,0,0.3,0c0.5,0.1,0.6-0.1,1.5,0.7c0.3,0.2,0.5,0.3,0.6,0.6
				c0.2,0.4,0.1,0.7,0,1c-0.3,0.8-0.3,1.3-1,1.9C45.1,78.6,44.1,78.9,43.6,78.6z"/>
			<path class="st20" d="M44.8,73.4c-0.1,0-0.1,0-0.2-0.1c-0.1-0.1-0.1-0.3-0.1-0.4c0-0.2,0.1-0.3,0.2-0.4c0.2-0.4,0.5-0.9,0.7-1.4
				c0.1-0.2,0.2-0.4,0.4-0.3c0.1,0,0.2,0.1,0.2,0.2c0,0.1,0,0.2,0,0.3c0,0.3-0.1,0.5-0.2,0.7c-0.1,0.5-0.3,1-0.8,1.3
				C45,73.3,44.9,73.4,44.8,73.4z"/>
			<path class="st20" d="M43.4,72.9c0.3,0.4,0.2,0.9,0.3,1.3c0,0.1,0.1,0.3,0.2,0.4c0.1,0.2,0.3,0.3,0.4,0.5
				c0.1,0.3,0.1,0.6-0.1,0.8c-0.1,0.2-0.4,0.4-0.6,0.5c-0.1,0.1-0.3,0.2-0.5,0.2c-0.2,0-0.4,0-0.5-0.2c0-0.1-0.1-0.1-0.1-0.2
				c0,0-0.1-0.1-0.1-0.1c0-0.1,0-0.1,0-0.2c0-0.3,0.1-0.5,0.1-0.8c0.1-0.3,0.2-0.6,0.2-0.9c0-0.3,0-0.7,0-1.1c0-0.1,0-0.2,0-0.3
				c0-0.1,0.1-0.2,0.2-0.2C43.2,72.7,43.3,72.8,43.4,72.9z"/>
			<g>
				<path class="st26" d="M39.5,82c0.8-1.4,1.6-2.8,2.3-4.2c0.5-0.8,1.4-1.2,2.3-0.8c0,0,0,0,0,0c0.9,0.4,1.4,1.4,1.1,2.4
					c-1.2,4.2-4.3,14.7-7.8,10.2C35.8,87.7,38.5,83.7,39.5,82z"/>
				<g>
					<path class="st9" d="M19.6,143.5c0-0.3,0-0.6,0-1c0,0-1.5-0.5-2.4,0.9l-0.9,0.1H19.6z"/>
					<path class="st9" d="M27.3,144.1h4.6l-0.8-1.6C29.2,142.7,27.3,144.1,27.3,144.1z"/>
					<g>
						<path class="st9" d="M28.9,67.1c0,0.2,0.4,0.4,0.9,0.4c0.5,0,0.6-0.1,0.6-0.3s-0.1-0.4-0.6-0.4C29.4,66.8,29,66.9,28.9,67.1z"
							/>
						<path class="st20" d="M23.8,69c0,0.7,0.1,1.6,0.3,2.4c0.3,1,0.8,1.9,1.8,2.2c0.5,0.2,1.1,0.2,1.6,0.2c0.8,0,1.6-0.2,2.2-0.8
							c0.1,0,0.1-0.1,0.2-0.1c0.3-0.3,0.5-0.7,0.7-1.2c0.1-0.3,0.1-0.5,0.1-0.8c0-0.1,0-0.1,0-0.2c0-0.6-0.1-1.1-0.2-1.7
							c0,0,0,0,0-0.1c0-0.1,0-0.1,0-0.2c0-0.2-0.1-0.5-0.1-0.7c-0.1-0.6-0.1-1.3-0.2-1.9c0-0.5,0-1.2-0.3-1.6
							c-0.7-0.9-2.6-0.3-3.4,0c-0.7,0.2-1.3,0.6-1.8,1.1c-0.3,0.4-0.6,0.8-0.7,1.3C23.8,67.6,23.7,68.3,23.8,69z"/>
						<path class="st18" d="M27.7,74.4v1.1c0,0.9-0.8,1.4-1.7,1.4h0c-0.9,0-1.7-0.4-1.7-1.3l-0.1-2.4c0-0.3,0-0.6-0.1-0.9l-0.3-1.7
							h3.9L27.7,74.4z"/>
						<g>
							<path class="st3" d="M19.6,139.4c0,0-0.2,2.8-0.3,5.4l-3.1,0.2c0,0,0.7-2.7,1-5.7"/>
							<path class="st9" d="M15.8,147.7h5.3l0.1-1.2c0,0-1.4-0.8-1.6-3h-3.3C16.3,143.5,15.4,145.5,15.8,147.7z"/>
						</g>
						<g>
							<path class="st3" d="M30.6,139.4c0,0-0.3,5.1,1.2,5.6l-4.4,1.1c0,0,0.7-1.6,0.7-6.6H30.6z"/>
							<path class="st9" d="M27.3,147.7h9.1l0.4-1.3l-4.8-2.1l-0.1-0.2h-4.6C26.8,147.1,27.3,147.7,27.3,147.7z"/>
						</g>
						<path class="st26" d="M19.1,78l0,1.8l0,0.6l0,1.3l0,0.2l0.2,7.5l0.1,4c0,0.3,0,0.6,0,1l0.1,0.7h12.9l0,0
							c0.1-0.7,0.1-2,0.1-2.7l0-14.7c0-0.8-0.5-1.6-1.3-1.9c0,0-0.1,0-0.1,0l-0.1,0c-0.5-0.1-1.1-0.3-1.6-0.4c-0.1,0-0.1,0-0.2,0
							c-0.2,0-0.4-0.1-0.7-0.1c0,0-0.1,0-0.1,0c-0.1,0-0.1,0-0.2,0c0,0,0,0-0.1,0c0,0,0,0,0,0c-0.1,0-0.2,0-0.4,0
							c-1.3-0.1-2.6-0.2-4-0.1h0c-0.1,0-0.3,0-0.4,0c-0.1,0-0.2,0-0.3,0c0,0,0,0-0.1,0c0,0-0.1,0-0.1,0c0,0-0.1,0-0.1,0
							c-0.1,0-0.2,0-0.3,0c0,0,0,0,0,0c-0.6,0.1-1.1,0.2-1.7,0.3l-0.1,0c0,0-0.1,0-0.1,0C19.8,75.9,19.1,76.9,19.1,78z"/>
						<path class="st2" d="M23.3,75.2c2.4,1.1,4.7,0.4,5.3,0.1c0,0-0.1,0-0.1,0c-0.1,0-0.1,0-0.2,0c0,0,0,0-0.1,0c0,0,0,0,0,0
							c-0.1,0-0.2,0-0.4,0c-1.3-0.1-2.6-0.2-4-0.1h0c-0.1,0-0.3,0-0.4,0C23.5,75.2,23.4,75.2,23.3,75.2z"/>
						<g>
							<path class="st4" d="M26.6,117.6c0,0.2,0,0.3,0,0.5c-0.6,12.5,0.8,19.8,1.1,21.2l0,0l0,0.1l0.1,1.2l2.9,0l0.1-1.1l0.3-0.8
								c0.3-0.8,0.5-1.6,0.6-2.5l0.7-19.2l0-21.9l-6.5,0l0.2,5.8L26.6,117.6z"/>
							<path class="st4" d="M16.9,139.5c0,0-1.1-7.4,0.9-21.3c0-0.2,0-0.3,0-0.5l1.7-22.7l6.5,0l-2.2,22.1l-2.6,19.1
								c-0.1,0.9-0.4,1.7-0.8,2.5l-0.4,0.8h0l-0.4,1.4l-2.7-0.2L16.9,139.5L16.9,139.5z"/>
							<polygon class="st4" points="19.6,100.9 31.3,100.9 32.4,95.1 19.6,95.1 							"/>
							<polygon class="st3" points="32.4,95.1 32.4,95.7 19.5,95.7 19.5,95.1 							"/>
							<g>
								<path class="st2" d="M30.8,139.6C30.8,139.6,30.8,139.6,30.8,139.6l-3.1-0.1c0,0-0.1,0-0.1-0.1c0,0,0-0.1,0.1-0.1
									c0,0,0,0,0,0l3.1,0.1C30.9,139.5,30.9,139.5,30.8,139.6C30.9,139.6,30.9,139.6,30.8,139.6z"/>
							</g>
							<g>
								<path class="st2" d="M20,139.6L20,139.6l-3.1,0c0,0-0.1,0-0.1-0.1c0,0,0-0.1,0.1-0.1l0,0l3.1,0
									C20,139.5,20.1,139.5,20,139.6C20.1,139.6,20,139.6,20,139.6z"/>
							</g>
						</g>
						<path class="st19" d="M30.2,65.4c0,0-1,0.9-0.5,3.6c0.1,0.6-1.2,0.3-1.8,2.9c-0.1,0.3-0.2,0.6-0.5,0.7c-0.7,0.4-2,0.7-3.5,0.1
							c-0.6-0.2-0.7-2.3-1.8-4.8c0,0-0.9-1.6,0.7-2.2C22.8,65.7,27.4,63.3,30.2,65.4z"/>
						<path class="st9" d="M22.8,63.9c0,0,2.1-4.7,3.7-2.4c0,0,3.9-2.9,3.5,0.4c0,0,2.8,0.5,0.2,3.6C30.2,65.4,21.1,68.9,22.8,63.9z
							"/>
						<path class="st9" d="M22.8,64.3c0,0-2.9,0.9-1,2.7c0,0,0.9,0.6,1.7-2.5L22.8,64.3z"/>
						<g>
							<path class="st20" d="M27.5,68.7c0.2-0.2,0.5-0.2,0.8-0.1c0.6,0.1,1,0.8,1.2,1.4c0.1,0.2,0.1,0.5,0,0.7
								c-0.1,0.2-0.3,0.4-0.6,0.4c-0.3,0-0.5,0-0.7-0.1c-0.5-0.3-0.9-0.8-1-1.4C27.1,69.2,27.2,68.9,27.5,68.7z"/>
						</g>
					</g>
				</g>
				<path class="st26" d="M37.3,82.8c-1.6-2.2-2.7-3.7-4.6-5.7c-0.5-0.5-1.1-1.1-1.8-1.1c-0.8,0-1.6,0.7-1.8,1.5
					c-0.3,0.8-0.1,1.7,0.2,2.5c0.3,0.8,0.8,1.5,1.3,2.2c1.4,1.9,2.1,3.1,3.5,5c0.6,0.9,1.3,1.8,2.2,2.5c0.9,0.7,2,1.1,3.1,1
					c0.9-0.1,1.8-0.8,1.8-1.7c0.1-0.7-0.4-1.4-0.8-2C39.4,85.6,38.4,84.2,37.3,82.8z"/>
			</g>
		</g>
	</g>
	
		<linearGradient id="SVGID_00000126317197969790745170000007623398108771149714_" gradientUnits="userSpaceOnUse" x1="74.5106" y1="119.7782" x2="89.3859" y2="119.7782">
		<stop  offset="0" style="stop-color:#7598FF"/>
		<stop  offset="1" style="stop-color:#95B0FF"/>
	</linearGradient>
	<path style="opacity:0.26;fill:url(#SVGID_00000126317197969790745170000007623398108771149714_);" d="M89,118.4
		c-1.2,1.4-2.5,3-4,4.6c-0.4,0.4-0.6,0.9-0.6,1.5c0,2.2,0,4.2-0.1,6c0,0.1,0,0.3-0.1,0.4c-0.3,0.9-1.4,1.5-2.2,1.1
		c-0.7-0.4-1.4-0.7-2.1-1.1c-0.8-0.4-1.7-0.9-2.6-1.3c-0.3-0.2-0.6-0.2-0.9-0.1c-1.2-1.1-1.9-2.6-1.9-4.3v-14.5
		c0.4-0.7,0.8-1.3,1.2-1.8c0-0.1,0.1-0.1,0.1-0.1l0,0c1.2-1.5,3.7-1.8,4.4-0.3c0.7,1.5,1.4,3.1,2.2,5.1c0.2,0.5,0.6,0.8,1,0.9
		c1.9,0.4,3.7,0.8,5.2,1.3C89.5,116,89.6,117.6,89,118.4z"/>
	<g>
		<g>
			<g>
				<g>
					<path class="st4" d="M177.5,145.7c-6.9-2.2-19.9-3.6-32.6-3.1c-7.3,0.3-13.2,1.1-17,2.2c-0.7,0.2-1.3,0.4-1.8,0.6
						c0.6,0.2,1.2,0.5,1.9,0.7c0.4-0.2,0.9-0.4,1.5-0.6c3.3-1.2,9-2,16.2-2.3c12-0.4,24.4,0.9,30.3,3.2c0.6,0.2,1.1,0.5,1.5,0.7
						c0.7-0.2,1.3-0.4,1.8-0.6C178.8,146.1,178.2,145.9,177.5,145.7z"/>
				</g>
			</g>
			<path class="st8" d="M177.5,145.7c-6.9-2.2-19.9-3.6-32.6-3.1c-7.3,0.3-13.2,1.1-17,2.2c-0.4-0.2-0.7-0.4-0.9-0.6
				c-1.2-0.9-1.3-1.8-0.4-2.6c2-1.9,9-3.3,18.9-3.7c9.9-0.4,20,0.5,26.5,2c2.8,0.7,5,1.5,6.2,2.4
				C179.9,143.5,179.5,144.7,177.5,145.7z"/>
			
				<linearGradient id="SVGID_00000173879152428932828380000011679674710659083652_" gradientUnits="userSpaceOnUse" x1="119.1818" y1="173.3769" x2="119.3906" y2="166.0166" gradientTransform="matrix(0.9995 3.100000e-02 -3.100000e-02 0.9995 39.5617 -29.936)">
				<stop  offset="0" style="stop-color:#7598FF"/>
				<stop  offset="1" style="stop-color:#FFFFFF"/>
			</linearGradient>
			<path style="opacity:0.5;fill:url(#SVGID_00000173879152428932828380000011679674710659083652_);" d="M181.1,145.6
				c-0.1,3.1-12.6,5.2-27.8,4.7s-27.6-3.3-27.5-6.4c0.1-3.1,12.6-5.2,27.8-4.7S181.2,142.5,181.1,145.6z"/>
			<path class="st8" d="M182.3,143.8l0.2,5.3c0.1,1.8-4,3.5-10.9,4.5c-3.1,0.5-6.7,0.8-10.8,0.9c-4.1,0.1-8.2,0.1-12.2-0.1
				c-11.2-0.6-21-2.4-24.2-4.8c-0.7-0.5-1.1-1.1-1.1-1.6l-0.2-5.3c0,0.5,0.4,1.1,1.1,1.6c0.5,0.4,1.2,0.7,2,1.1
				c0.6,0.2,1.2,0.5,1.9,0.7c6.9,2.2,19.9,3.6,32.6,3.1c7.3-0.3,13.2-1.1,17-2.2c0.7-0.2,1.3-0.4,1.8-0.6
				C181.3,145.6,182.3,144.7,182.3,143.8z"/>
			<path class="st3" d="M181.2,142.2c-1.2-0.9-3.2-1.7-5.9-2.4c-7.2-1.9-19-3-30.5-2.5c-11.5,0.4-19.5,2.2-21.3,4.4
				c-0.3,0.3-0.4,0.6-0.4,1c0,0.5,0.4,1.1,1.1,1.6c0.5,0.4,1.2,0.7,2,1.1c0.6,0.2,1.2,0.5,1.9,0.7c6.9,2.2,19.9,3.6,32.6,3.1
				c7.3-0.3,13.2-1.1,17-2.2c0.7-0.2,1.3-0.4,1.8-0.6c1.9-0.8,2.9-1.6,2.9-2.6C182.3,143.3,181.9,142.7,181.2,142.2z M176,146.3
				c-3.3,1.2-9,2-16.2,2.3c-12,0.4-24.4-0.9-30.3-3.2c-0.6-0.2-1.1-0.4-1.5-0.7c-0.4-0.2-0.7-0.4-0.9-0.6c-1.2-0.9-1.3-1.8-0.4-2.6
				c2-1.9,9-3.3,18.9-3.7c9.9-0.4,20,0.5,26.5,2c2.8,0.7,5,1.5,6.2,2.4c1.6,1.2,1.2,2.4-0.8,3.4C177.1,145.9,176.6,146.1,176,146.3z
				"/>
			<path class="st31" d="M154.4,140.6c0.1,0.8-5.4,1.3-12.1,1.7c-6.7,0.5-12.2,0.8-12.2,0c-0.1-0.8,5.3-1.8,12.1-2.3
				C148.9,139.6,154.4,139.8,154.4,140.6z"/>
		</g>
		<path class="st4" d="M112.9,145.7l10.8-0.3c0.3,0,0.5,0.2,0.6,0.4c0.2,0.5,0.4,1.3,0,2.2c-0.1,0.2-0.3,0.3-0.5,0.4l-10,0.6"/>
		
			<linearGradient id="SVGID_00000002377641868255995970000012690751367402085544_" gradientUnits="userSpaceOnUse" x1="-364.3951" y1="39.1077" x2="-316.5562" y2="39.1077" gradientTransform="matrix(0.9333 0.2733 -0.2929 0.7867 421.9765 211.0752)">
			<stop  offset="0" style="stop-color:#FFD85E"/>
			<stop  offset="1" style="stop-color:#FFC305"/>
		</linearGradient>
		<path style="fill:url(#SVGID_00000002377641868255995970000012690751367402085544_);" d="M69,151l-0.2-2.8c-0.3-3.7,3-6.7,7.3-6.7
			l34.8-0.4c4,0,5.9,2.7,6.2,6.1l0,0.1c0.3,3.4-1.1,6.4-5.1,6.7l-34.6,3.1C73.2,157.4,69.4,154.6,69,151z"/>
	</g>
	<g>
		<g>
			<path class="st6" d="M76.1,108.4c0.7,1.5,1.4,3.1,2.2,5.1c0.2,0.5,0.6,0.8,1,0.9c1.9,0.4,3.7,0.8,5.2,1.3c0.9,0.3,1,1.8,0.3,2.7
				c-1.2,1.4-2.5,3-4,4.6c-0.4,0.4-0.6,0.9-0.6,1.5c0,2.2,0,4.2-0.1,6c0,1.2-1.4,1.9-2.3,1.4c-1.5-0.8-3-1.5-4.6-2.4
				c-0.4-0.2-0.9-0.2-1.3,0c-1.8,0.9-3.5,1.6-5.1,2.4c-1,0.5-2.8,0-3.2-2.5c0,0,1.9-2.9,2.4-5c0.1-0.5,0-1.1-0.3-1.5
				c-1.2-1.6-2.2-3.2-3-4.6c-0.5-0.9-0.1-2.4,0.9-2.7c1.6-0.4,3.4-0.9,5.4-1.3c0.5-0.1,0.9-0.4,1.2-0.9c1.1-2,0.3-3.5,1.5-4.9
				C73,107.2,75.4,106.9,76.1,108.4z"/>
		</g>
		<g>
			<path class="st33" d="M73.8,108.8c0.7,1.3,1.4,3,2,4.8c0.2,0.4,0.5,0.7,0.9,0.8c1.7,0.4,3.4,0.7,4.7,1.2c0.8,0.3,0.9,1.7,0.3,2.5
				c-1,1.3-2.3,2.7-3.6,4.2c-0.3,0.4-0.5,0.9-0.5,1.3c0,2,0,3.8-0.1,5.5c0,1-1.2,1.7-2.1,1.3c-1.3-0.7-2.7-1.4-4.2-2.2
				c-0.4-0.2-0.8-0.2-1.2,0c-1.7,0.8-3.2,1.5-4.7,2.2c-0.9,0.4-2-0.3-1.8-1.3c0.3-1.7,0.7-3.5,1.1-5.5c0.1-0.5,0-1-0.2-1.3
				c-1.1-1.5-2-2.9-2.8-4.2c-0.5-0.8,0-2.2,0.8-2.5c1.4-0.4,3.1-0.8,4.9-1.2c0.4-0.1,0.9-0.4,1.1-0.8c1-1.8,2.1-3.5,3-4.8
				C72.2,108,73.4,108,73.8,108.8z"/>
		</g>
	</g>
	<path class="st8" d="M127.1,132.3h15.5c1.7,0,2.9-1.3,2.7-3l-1.8-15.5c-0.2-1.7-1.7-3-3.4-3h-15.5c-1.7,0-2.9,1.3-2.7,3l1.8,15.5
		C124,130.9,125.5,132.3,127.1,132.3z"/>
	<path class="st3" d="M129,129.5h12.8c1.4,0,2.4-1.1,2.2-2.5l-1.5-12.8c-0.2-1.4-1.4-2.5-2.8-2.5H127c-1.4,0-2.4,1.1-2.2,2.5
		l1.5,12.8C126.4,128.4,127.6,129.5,129,129.5z"/>
	<g>
		<path class="st2" d="M134.8,126.6c-0.3,0-0.7-0.1-0.9-0.4c-2-2.2-4.4-4-4.4-4c-0.5-0.4-0.6-1.2-0.2-1.7c0.4-0.5,1.2-0.6,1.7-0.2
			c0.1,0.1,1.7,1.3,3.6,3.1c1-1.7,2.8-4.7,5.1-7.2c0.4-0.5,1.2-0.5,1.7-0.1c0.5,0.4,0.5,1.2,0.1,1.7c-3.2,3.6-5.5,8.1-5.5,8.2
			c-0.2,0.4-0.5,0.6-0.9,0.7C134.9,126.6,134.8,126.6,134.8,126.6z"/>
	</g>
</g>
</svg>
