<?xml version="1.0" encoding="iso-8859-1"?>
<!-- Generator: Adobe Illustrator 16.0.0, SVG Export Plug-In . SVG Version: 6.00 Build 0)  -->
<!DOCTYPE svg PUBLIC "-//W3C//DTD SVG 1.1//EN" "http://www.w3.org/Graphics/SVG/1.1/DTD/svg11.dtd">
<svg version="1.1" id="&#xB808;&#xC774;&#xC5B4;_1" xmlns="http://www.w3.org/2000/svg" xmlns:xlink="http://www.w3.org/1999/xlink"
	 x="0px" y="0px" width="23.859px" height="25px" viewBox="0 0 23.859 25" style="enable-background:new 0 0 23.859 25;"
	 xml:space="preserve">
<g>
	<defs>
		<rect id="SVGID_1_" width="23.859" height="25"/>
	</defs>
	<clipPath id="SVGID_2_">
		<use xlink:href="#SVGID_1_"  style="overflow:visible;"/>
	</clipPath>
	<path style="clip-path:url(#SVGID_2_);fill:#FF7E00;" d="M18.859,25c-2.757,0-5-2.243-5-5s2.243-5,5-5s5,2.243,5,5
		S21.616,25,18.859,25 M18.859,16c-2.205,0-4,1.795-4,4c0,2.206,1.795,4,4,4c2.206,0,4-1.794,4-4C22.859,17.795,21.065,16,18.859,16
		"/>
	<path style="clip-path:url(#SVGID_2_);fill:#FF7E00;" d="M18.457,21.75c-0.144,0-0.283-0.059-0.384-0.159l-1.611-1.612
		c-0.21-0.209-0.21-0.556,0-0.766s0.557-0.21,0.766,0l1.229,1.228l2.033-2.033c0.21-0.21,0.557-0.21,0.767,0s0.21,0.558,0,0.767
		l-2.417,2.417C18.739,21.691,18.6,21.75,18.457,21.75"/>
	<path style="clip-path:url(#SVGID_2_);fill:#FF7E00;" d="M15.118,23H0.5C0.224,23,0,22.776,0,22.5v-1.401
		c0-2.932,2.144-5.282,5.595-6.135l1.737-0.435c0.039-0.01,0.08-0.015,0.121-0.015c0.436,0,0.804-0.567,0.804-1.238v-0.36
		C6.412,11.71,5.23,9.518,5.215,7.238C5.14,6.807,4.689,3.835,6.149,1.947c0.709-0.917,1.74-1.425,3.065-1.511
		c0.765-0.047,1.597,0.264,2.402,0.568c0.721,0.272,1.465,0.553,2.102,0.553c1.167,0,1.993-1.307,2.002-1.32
		c0.117-0.189,0.348-0.28,0.562-0.217c0.215,0.061,0.363,0.257,0.363,0.48v6.692c0,2.297-1.186,4.51-3.042,5.724v0.36
		c0,0.671,0.368,1.238,0.804,1.238c0.041,0,0.082,0.005,0.121,0.015l1.738,0.436c0.396,0.097,0.789,0.221,1.171,0.367
		c0.193,0.075,0.32,0.261,0.32,0.468s-0.128,0.393-0.321,0.467c-1.541,0.587-2.576,2.089-2.576,3.733
		c0,0.795,0.233,1.563,0.675,2.222c0.103,0.154,0.112,0.352,0.025,0.514C15.473,22.898,15.303,23,15.118,23 M1,22h13.276
		c-0.274-0.627-0.417-1.306-0.417-2c0-1.634,0.816-3.152,2.116-4.077l-1.637-0.41c-0.964-0.044-1.736-1.03-1.736-2.236v-0.638
		c0-0.178,0.094-0.342,0.247-0.431c1.698-0.998,2.795-2.966,2.795-5.015V1.8c-0.481,0.398-1.136,0.757-1.927,0.757
		c-0.819,0-1.65-0.314-2.454-0.617c-0.74-0.279-1.433-0.547-1.986-0.506C8.239,1.501,7.476,1.869,6.942,2.557
		C5.674,4.193,6.2,7.07,6.206,7.099c0.006,0.03,0.009,0.062,0.009,0.093c0,2.049,1.097,4.017,2.796,5.015
		c0.152,0.089,0.246,0.253,0.246,0.431v0.638c0,1.206-0.773,2.192-1.736,2.236l-1.685,0.422C2.853,16.672,1,18.65,1,21.099V22z"/>
</g>
</svg>
