<?xml version="1.0" encoding="iso-8859-1"?>
<!-- Generator: Adobe Illustrator 16.0.0, SVG Export Plug-In . SVG Version: 6.00 Build 0)  -->
<!DOCTYPE svg PUBLIC "-//W3C//DTD SVG 1.1//EN" "http://www.w3.org/Graphics/SVG/1.1/DTD/svg11.dtd">
<svg version="1.1" id="&#xB808;&#xC774;&#xC5B4;_1" xmlns="http://www.w3.org/2000/svg" xmlns:xlink="http://www.w3.org/1999/xlink"
	 x="0px" y="0px" width="25px" height="25px" viewBox="0 0 25 25" style="enable-background:new 0 0 25 25;" xml:space="preserve">
<g>
	<defs>
		<rect id="SVGID_1_" width="25" height="25"/>
	</defs>
	<clipPath id="SVGID_2_">
		<use xlink:href="#SVGID_1_"  style="overflow:visible;"/>
	</clipPath>
	<path style="clip-path:url(#SVGID_2_);fill:#555555;" d="M12.5,25C5.607,25,0,19.393,0,12.5S5.607,0,12.5,0
		c6.892,0,12.5,5.607,12.5,12.5S19.393,25,12.5,25 M5.613,21.652c1.918,1.447,4.304,2.306,6.887,2.306
		c2.583,0,4.967-0.858,6.886-2.306V20.88c0-1.982-1.709-3.111-3.308-3.507l-1.183-0.295c-0.776-0.045-1.374-0.799-1.374-1.754
		v-0.453c0-0.185,0.098-0.355,0.257-0.449c1.156-0.68,1.903-2.021,1.903-3.418V7.499c-0.328,0.214-0.733,0.377-1.202,0.377
		c-0.612,0-1.217-0.228-1.803-0.449c-0.507-0.191-0.982-0.374-1.34-0.349c-0.688,0.045-1.192,0.286-1.541,0.736
		C9.348,8.396,9.229,9.258,9.229,9.953c0,0.403,0.041,0.75,0.079,0.952c0.006,0.032,0.01,0.065,0.01,0.098
		c0,1.398,0.747,2.739,1.903,3.418c0.159,0.094,0.257,0.265,0.257,0.449v0.453c0,0.955-0.598,1.709-1.375,1.754l-1.181,0.294
		c-1.599,0.396-3.308,1.525-3.308,3.508V21.652z M14.563,15.324c0,0.402,0.218,0.714,0.405,0.714c0.043,0,0.085,0.005,0.126,0.015
		l1.235,0.309c2.483,0.614,4.043,2.297,4.097,4.405c2.176-2.087,3.532-5.021,3.532-8.267c0-6.319-5.141-11.459-11.458-11.459
		c-6.319,0-11.458,5.14-11.458,11.459c0,3.245,1.355,6.18,3.531,8.267c0.053-2.108,1.613-3.791,4.097-4.405l1.234-0.309
		c0.041-0.01,0.084-0.015,0.126-0.015c0.187,0,0.405-0.312,0.405-0.714v-0.167c-1.309-0.894-2.144-2.469-2.16-4.107
		c-0.024-0.145-0.087-0.569-0.087-1.114C8.188,9.11,8.333,8.006,8.973,7.177c0.534-0.691,1.308-1.074,2.298-1.138
		c0.583-0.033,1.187,0.192,1.775,0.414c0.498,0.187,1.013,0.382,1.435,0.382c0.734,0,1.275-0.851,1.281-0.859
		c0.123-0.197,0.364-0.289,0.585-0.226c0.224,0.064,0.378,0.267,0.378,0.5v4.753c0,1.655-0.839,3.251-2.161,4.154V15.324z"/>
</g>
</svg>
