<?xml version="1.0" encoding="iso-8859-1"?>
<!-- Generator: Adobe Illustrator 16.0.0, SVG Export Plug-In . SVG Version: 6.00 Build 0)  -->
<!DOCTYPE svg PUBLIC "-//W3C//DTD SVG 1.1//EN" "http://www.w3.org/Graphics/SVG/1.1/DTD/svg11.dtd">
<svg version="1.1" id="&#xB808;&#xC774;&#xC5B4;_1" xmlns="http://www.w3.org/2000/svg" xmlns:xlink="http://www.w3.org/1999/xlink"
	 x="0px" y="0px" width="23.859px" height="25px" viewBox="0 0 23.859 25" style="enable-background:new 0 0 23.859 25;"
	 xml:space="preserve">
<g>
	<defs>
		<rect id="SVGID_1_" width="23.859" height="25"/>
	</defs>
	<clipPath id="SVGID_2_">
		<use xlink:href="#SVGID_1_"  style="overflow:visible;"/>
	</clipPath>
	<path style="clip-path:url(#SVGID_2_);fill:#555555;" d="M18.859,25c-2.757,0-5-2.243-5-5s2.243-5,5-5c2.758,0,5,2.243,5,5
		S21.617,25,18.859,25 M18.859,16c-2.205,0-4,1.794-4,4c0,2.205,1.795,4,4,4c2.206,0,4-1.795,4-4C22.859,17.794,21.065,16,18.859,16
		"/>
	<path style="clip-path:url(#SVGID_2_);fill:#555555;" d="M18.457,21.75c-0.144,0-0.283-0.059-0.385-0.159l-1.61-1.612
		c-0.21-0.209-0.21-0.556,0-0.766s0.558-0.21,0.767,0l1.229,1.228l2.032-2.033c0.21-0.21,0.559-0.21,0.768,0
		c0.21,0.21,0.21,0.558,0,0.767l-2.417,2.417C18.738,21.691,18.6,21.75,18.457,21.75"/>
	<path style="clip-path:url(#SVGID_2_);fill:#555555;" d="M15.118,23H0.5C0.225,23,0,22.776,0,22.5v-1.401
		c0-2.932,2.145-5.282,5.596-6.135l1.736-0.435c0.04-0.01,0.08-0.015,0.121-0.015c0.436,0,0.804-0.567,0.804-1.238v-0.36
		C6.413,11.71,5.229,9.518,5.216,7.238C5.141,6.807,4.688,3.835,6.149,1.947C6.858,1.03,7.89,0.522,9.214,0.436
		c0.765-0.047,1.597,0.264,2.403,0.568c0.72,0.272,1.464,0.553,2.102,0.553c1.167,0,1.992-1.307,2.001-1.32
		c0.118-0.189,0.347-0.28,0.562-0.217c0.215,0.061,0.363,0.257,0.363,0.48v6.692c0,2.297-1.185,4.51-3.042,5.724v0.36
		c0,0.671,0.368,1.238,0.803,1.238c0.041,0,0.082,0.005,0.122,0.015l1.739,0.436c0.395,0.097,0.789,0.221,1.17,0.367
		c0.193,0.075,0.321,0.261,0.32,0.468c0,0.207-0.128,0.393-0.321,0.467c-1.541,0.587-2.577,2.089-2.577,3.733
		c0,0.795,0.234,1.563,0.676,2.222c0.103,0.154,0.111,0.352,0.025,0.514C15.473,22.898,15.303,23,15.118,23 M1,22h13.276
		c-0.273-0.627-0.417-1.306-0.417-2c0-1.634,0.817-3.152,2.117-4.077l-1.637-0.41c-0.964-0.044-1.736-1.03-1.736-2.236v-0.638
		c0-0.178,0.094-0.342,0.247-0.431c1.698-0.998,2.795-2.966,2.795-5.015V1.8c-0.481,0.398-1.136,0.757-1.926,0.757
		c-0.821,0-1.652-0.314-2.455-0.617c-0.739-0.279-1.433-0.547-1.986-0.506C8.24,1.501,7.476,1.869,6.942,2.557
		C5.674,4.193,6.201,7.07,6.206,7.099c0.006,0.03,0.009,0.062,0.009,0.093c0,2.049,1.097,4.017,2.796,5.015
		c0.153,0.089,0.247,0.253,0.247,0.431l-0.001,0.638c0,1.206-0.773,2.192-1.736,2.236l-1.684,0.422C2.853,16.672,1,18.65,1,21.099
		V22z"/>
</g>
</svg>
