<?xml version="1.0" encoding="iso-8859-1"?>
<!-- Generator: Adobe Illustrator 16.0.0, SVG Export Plug-In . SVG Version: 6.00 Build 0)  -->
<!DOCTYPE svg PUBLIC "-//W3C//DTD SVG 1.1//EN" "http://www.w3.org/Graphics/SVG/1.1/DTD/svg11.dtd">
<svg version="1.1" id="&#xB808;&#xC774;&#xC5B4;_1" xmlns="http://www.w3.org/2000/svg" xmlns:xlink="http://www.w3.org/1999/xlink"
	 x="0px" y="0px" width="27.08px" height="25px" viewBox="0 0 27.08 25" style="enable-background:new 0 0 27.08 25;"
	 xml:space="preserve">
<g>
	<defs>
		<rect id="SVGID_1_" width="27.08" height="25"/>
	</defs>
	<clipPath id="SVGID_2_">
		<use xlink:href="#SVGID_1_"  style="overflow:visible;"/>
	</clipPath>
	<path style="clip-path:url(#SVGID_2_);fill:#FF7E00;" d="M8.051,8.728C8.033,8.67,7.991,8.595,7.957,8.546
		C7.938,8.521,7.887,8.459,7.865,8.438C7.578,8.159,7.032,8.149,6.73,8.443C6.725,8.448,6.716,8.458,6.707,8.47
		C6.693,8.483,6.681,8.497,6.669,8.511C6.655,8.528,6.645,8.545,6.632,8.563C6.614,8.591,6.597,8.622,6.58,8.654
		C6.568,8.68,6.556,8.706,6.547,8.734C6.532,8.779,6.521,8.822,6.516,8.848C6.508,8.884,6.5,8.974,6.5,9.011
		c0,0.209,0.084,0.415,0.235,0.567c0.152,0.151,0.353,0.235,0.567,0.235c0.211,0,0.419-0.086,0.568-0.238
		c0.149-0.15,0.233-0.355,0.233-0.564c0-0.053-0.013-0.157-0.029-0.207L8.051,8.728z"/>
	<path style="clip-path:url(#SVGID_2_);fill:#FF7E00;" d="M11.222,9.011c0-0.441-0.36-0.801-0.802-0.801
		c-0.442,0-0.802,0.36-0.802,0.801c0,0.442,0.36,0.802,0.802,0.802C10.862,9.813,11.222,9.453,11.222,9.011"/>
	<path style="clip-path:url(#SVGID_2_);fill:#FF7E00;" d="M12.98,9.583c0.019,0.017,0.077,0.065,0.098,0.079l0.065,0.045
		c0.07,0.047,0.15,0.078,0.235,0.089c0.05,0.007,0.106,0.012,0.162,0.012c0.209,0,0.413-0.081,0.569-0.233
		c0.147-0.15,0.231-0.355,0.231-0.564c0-0.215-0.085-0.422-0.233-0.571c-0.176-0.172-0.439-0.271-0.685-0.222l-0.074,0.015
		c-0.053,0.01-0.104,0.029-0.151,0.054l-0.117,0.067c-0.004,0.002-0.012,0.008-0.02,0.014c-0.032,0.021-0.062,0.045-0.09,0.073
		c-0.148,0.15-0.233,0.358-0.233,0.57c0,0.195,0.077,0.399,0.201,0.532C12.95,9.555,12.968,9.572,12.98,9.583"/>
	<path style="clip-path:url(#SVGID_2_);fill:#FF7E00;" d="M21.896,16.751c-0.019-0.017-0.076-0.062-0.097-0.076l-0.055-0.039
		c-0.076-0.051-0.161-0.082-0.251-0.091l-0.043-0.005c-0.063-0.014-0.126-0.016-0.189-0.006l-0.085,0.012
		c-0.063,0.01-0.126,0.03-0.182,0.061l-0.112,0.063c-0.008,0.005-0.015,0.011-0.022,0.017c-0.03,0.02-0.06,0.044-0.085,0.069
		c-0.011,0.01-0.02,0.02-0.027,0.029c-0.014,0.014-0.028,0.029-0.04,0.044c-0.015,0.02-0.029,0.039-0.041,0.06
		c-0.015,0.025-0.031,0.051-0.045,0.078c-0.015,0.027-0.027,0.056-0.037,0.086c-0.014,0.044-0.026,0.089-0.03,0.11
		c-0.009,0.038-0.017,0.128-0.017,0.167c0,0.226,0.099,0.441,0.28,0.604c0.018,0.017,0.038,0.032,0.058,0.046l0.066,0.045
		c0.072,0.05,0.161,0.081,0.25,0.092c0.046,0.005,0.096,0.009,0.146,0.009c0.109,0,0.207-0.02,0.319-0.063
		c0.042-0.018,0.081-0.039,0.117-0.065l0.064-0.047c0.021-0.015,0.04-0.031,0.06-0.049c0.024-0.024,0.048-0.051,0.063-0.07
		c0.05-0.054,0.09-0.118,0.117-0.191c0.017-0.052,0.037-0.108,0.054-0.232c0.004-0.026,0.006-0.052,0.006-0.078
		c0-0.193-0.072-0.396-0.188-0.526C21.937,16.789,21.911,16.764,21.896,16.751"/>
	<path style="clip-path:url(#SVGID_2_);fill:#FF7E00;" d="M18.22,16.528c-0.441,0-0.803,0.36-0.803,0.802
		c0,0.442,0.361,0.802,0.803,0.802s0.802-0.359,0.802-0.802C19.021,16.889,18.661,16.528,18.22,16.528"/>
	<path style="clip-path:url(#SVGID_2_);fill:#FF7E00;" d="M25.696,21.435c0.905-1.232,1.384-2.651,1.384-4.106
		c0-3.416-2.568-6.366-6.305-7.335c0.04-0.323,0.065-0.651,0.065-0.984C20.841,4.041,16.167,0,10.42,0C4.675,0,0,4.041,0,9.009
		c0,1.708,0.562,3.375,1.626,4.823c0.559,1.083,0.178,2.402-0.88,3.017c-0.189,0.108-0.294,0.322-0.266,0.54
		c0.03,0.216,0.186,0.395,0.398,0.45c1.593,0.426,3.271,0.079,4.565-0.923c1.231,0.58,2.58,0.928,3.962,1.047
		C9.785,21.885,13.619,25,18.22,25c1.454,0,2.891-0.315,4.18-0.914c1.104,0.836,2.528,1.12,3.876,0.762
		c0.212-0.057,0.368-0.235,0.398-0.453c0.028-0.217-0.075-0.43-0.266-0.54C25.559,23.362,25.251,22.307,25.696,21.435 M5.368,15.733
		c-0.13,0-0.259,0.048-0.36,0.138c-0.769,0.686-1.742,1.055-2.741,1.063c0.79-1.018,0.947-2.437,0.297-3.646
		c-0.011-0.022-0.026-0.046-0.042-0.065c-0.941-1.27-1.438-2.726-1.438-4.212c0-4.37,4.188-7.926,9.337-7.926
		c5.148,0,9.337,3.556,9.337,7.926c0,0.44-0.053,0.869-0.135,1.29c-0.045,0.228-0.102,0.452-0.166,0.672l-0.021,0.067
		c-0.06,0.197-0.13,0.389-0.208,0.578c-0.025,0.061-0.05,0.12-0.077,0.179c-0.065,0.152-0.137,0.301-0.214,0.447
		c-0.059,0.113-0.124,0.223-0.188,0.333c-0.056,0.093-0.108,0.186-0.167,0.276c-0.129,0.195-0.263,0.386-0.408,0.57
		c-0.005,0.007-0.009,0.014-0.016,0.02c-0.998,1.253-2.408,2.249-4.063,2.853c-0.03,0.013-0.061,0.021-0.089,0.032
		c-0.233,0.083-0.472,0.155-0.714,0.222c-0.055,0.016-0.109,0.031-0.165,0.046c-0.22,0.057-0.443,0.104-0.67,0.146
		c-0.074,0.014-0.148,0.03-0.222,0.043c-0.22,0.037-0.444,0.064-0.67,0.087c-0.078,0.008-0.154,0.021-0.232,0.026
		c-0.3,0.024-0.605,0.039-0.912,0.039c-1.686,0-3.348-0.395-4.806-1.142C5.537,15.753,5.452,15.733,5.368,15.733 M24.913,23.91
		c-0.76-0.046-1.492-0.344-2.078-0.867c-0.167-0.149-0.408-0.179-0.608-0.078c-1.215,0.623-2.602,0.952-4.007,0.952
		c-3.982,0-7.317-2.599-7.728-5.899c0.323-0.002,0.643-0.018,0.959-0.044c0.065-0.006,0.127-0.017,0.191-0.023
		c0.269-0.026,0.535-0.061,0.797-0.105c0.079-0.013,0.157-0.029,0.235-0.045c0.255-0.048,0.506-0.104,0.753-0.168
		c0.06-0.016,0.121-0.032,0.181-0.049c0.237-0.065,0.469-0.138,0.699-0.217c0.01,0.2,0.088,0.394,0.229,0.533
		c0.021,0.02,0.041,0.038,0.064,0.054l0.053,0.038c0.039,0.028,0.081,0.051,0.126,0.067l0.094,0.035
		c0.026,0.011,0.056,0.019,0.084,0.024c0.034,0.007,0.107,0.014,0.144,0.014c0.015,0,0.068-0.004,0.084-0.006
		c0.042-0.003,0.086-0.013,0.127-0.026l0.083-0.027c0.05-0.017,0.097-0.042,0.14-0.071l0.064-0.046
		c0.025-0.018,0.047-0.037,0.069-0.059c0.148-0.149,0.234-0.357,0.234-0.571c0-0.197-0.083-0.389-0.22-0.538
		c1.333-0.673,2.476-1.599,3.347-2.71c0.017-0.02,0.031-0.038,0.046-0.058c0.155-0.201,0.302-0.409,0.438-0.622
		c0.029-0.045,0.06-0.087,0.088-0.132c0.107-0.174,0.204-0.354,0.298-0.535c0.282-0.534,0.504-1.096,0.662-1.68
		c3.226,0.858,5.437,3.379,5.437,6.277c0,1.233-0.413,2.442-1.194,3.495c-0.017,0.021-0.031,0.043-0.042,0.066
		C24.226,21.884,24.319,23.04,24.913,23.91"/>
</g>
</svg>
