<?xml version="1.0" encoding="iso-8859-1"?>
<!-- Generator: Adobe Illustrator 16.0.0, SVG Export Plug-In . SVG Version: 6.00 Build 0)  -->
<!DOCTYPE svg PUBLIC "-//W3C//DTD SVG 1.1//EN" "http://www.w3.org/Graphics/SVG/1.1/DTD/svg11.dtd">
<svg version="1.1" id="&#xB808;&#xC774;&#xC5B4;_1" xmlns="http://www.w3.org/2000/svg" xmlns:xlink="http://www.w3.org/1999/xlink"
	 x="0px" y="0px" width="21.116px" height="30px" viewBox="0 0 21.116 30" style="enable-background:new 0 0 21.116 30;"
	 xml:space="preserve">
<g>
	<defs>
		<rect id="SVGID_1_" width="21.116" height="30"/>
	</defs>
	<clipPath id="SVGID_2_">
		<use xlink:href="#SVGID_1_"  style="overflow:visible;"/>
	</clipPath>
	<path style="clip-path:url(#SVGID_2_);fill:#BBBBBB;" d="M14.016,26.377H7.195c-0.373,0-0.676,0.303-0.676,0.676
		s0.303,0.676,0.676,0.676h6.821c0.373,0,0.677-0.303,0.677-0.676S14.389,26.377,14.016,26.377"/>
	<path style="clip-path:url(#SVGID_2_);fill:#BBBBBB;" d="M12.602,28.648H8.515c-0.373,0-0.676,0.303-0.676,0.676S8.142,30,8.515,30
		h4.086c0.373,0,0.677-0.303,0.677-0.676S12.975,28.648,12.602,28.648"/>
	<path style="clip-path:url(#SVGID_2_);fill:#BBBBBB;" d="M10.558,0C4.736,0,0,4.736,0,10.558c0,2.347,0.756,4.571,2.187,6.431
		c0.342,0.511,0.737,0.968,1.154,1.452c1.266,1.463,2.574,2.979,2.574,6.26c0,0.374,0.302,0.677,0.676,0.677h3.967h3.968
		c0.373,0,0.675-0.303,0.675-0.677c0-3.281,1.308-4.797,2.573-6.26c0.417-0.482,0.809-0.938,1.15-1.447
		c1.435-1.86,2.19-4.085,2.19-6.436C21.115,4.736,16.38,0,10.558,0 M18.424,15.341l-0.015-0.01l-0.465,0.696
		c-0.042,0.063-0.085,0.129-0.131,0.197c-0.002,0.004-0.005,0.008-0.008,0.012c-0.297,0.442-0.665,0.868-1.055,1.32
		c-1.214,1.404-2.705,3.132-2.884,6.468h-3.309H7.249c-0.179-3.336-1.671-5.063-2.885-6.468c-0.385-0.447-0.751-0.87-1.046-1.309
		l-0.015-0.023c-0.07-0.105-0.136-0.204-0.197-0.295l-0.398-0.597l-0.015,0.009c-0.88-1.437-1.341-3.073-1.341-4.784
		c0-5.076,4.13-9.206,9.206-9.206s9.207,4.13,9.207,9.206C19.765,12.269,19.303,13.904,18.424,15.341"/>
	<path style="clip-path:url(#SVGID_2_);fill:#BBBBBB;" d="M10.605,5.215c-2.434,0-4.415,1.98-4.415,4.414
		c0,0.373,0.303,0.676,0.677,0.676c0.373,0,0.675-0.303,0.675-0.676c0-1.688,1.374-3.062,3.063-3.062
		c1.688,0,3.062,1.374,3.062,3.062c0,0.911-0.521,1.333-1.443,2c-1.022,0.739-2.294,1.659-2.294,3.78v0.472
		c0,0.373,0.302,0.676,0.676,0.676c0.373,0,0.676-0.303,0.676-0.676v-0.472c0-1.431,0.804-2.011,1.734-2.686
		c0.938-0.679,2.005-1.449,2.005-3.095C15.021,7.195,13.039,5.215,10.605,5.215"/>
	<path style="clip-path:url(#SVGID_2_);fill:#BBBBBB;" d="M10.605,17.953c-0.504,0-0.912,0.408-0.912,0.912
		c0,0.503,0.408,0.911,0.912,0.911c0.503,0,0.911-0.408,0.911-0.911C11.517,18.361,11.108,17.953,10.605,17.953"/>
</g>
</svg>
