<?xml version="1.0" encoding="iso-8859-1"?>
<!-- Generator: Adobe Illustrator 16.0.0, SVG Export Plug-In . SVG Version: 6.00 Build 0)  -->
<!DOCTYPE svg PUBLIC "-//W3C//DTD SVG 1.1//EN" "http://www.w3.org/Graphics/SVG/1.1/DTD/svg11.dtd">
<svg version="1.1" id="&#xB808;&#xC774;&#xC5B4;_1" xmlns="http://www.w3.org/2000/svg" xmlns:xlink="http://www.w3.org/1999/xlink"
	 x="0px" y="0px" width="27.477px" height="25px" viewBox="0 0 27.477 25" style="enable-background:new 0 0 27.477 25;"
	 xml:space="preserve">
<g>
	<defs>
		<rect id="SVGID_1_" width="27.476" height="25"/>
	</defs>
	<clipPath id="SVGID_2_">
		<use xlink:href="#SVGID_1_"  style="overflow:visible;"/>
	</clipPath>
	<path style="clip-path:url(#SVGID_2_);fill:#555555;" d="M24.192,8.179h-1.419c-0.778-1.285-3.541-5.839-4.182-6.894
		c-0.664-1.093-2.184-1.524-3.316-0.809c-1.122,0.709-1.495,2.176-0.807,3.313l2.663,4.39h-6.788l2.662-4.39
		c0.69-1.136,0.313-2.598-0.805-3.313C11.189-0.17,9.621,0.078,8.885,1.285c-0.427,0.7-3.403,5.609-4.181,6.894H3.285
		c-1.735,0-3.147,1.411-3.147,3.147c0,1.206,0.684,2.272,1.711,2.797c0,0,1.088,5.737,1.295,6.785
		c0.477,2.411,1.929,3.967,4.279,3.967h12.631c2.47,0,3.837-1.624,4.282-3.966c0.445-2.341,1.29-6.786,1.29-6.786
		c1.03-0.525,1.714-1.591,1.714-2.797C27.34,9.59,25.928,8.179,24.192,8.179 M15.543,3.137c-0.331-0.545-0.124-1.302,0.385-1.589
		c0.598-0.335,1.254-0.149,1.592,0.39c0.26,0.417,2.664,4.391,3.785,6.24h-2.704L15.543,3.137z M9.957,1.938
		c0.301-0.487,0.998-0.765,1.592-0.39c0.538,0.34,0.715,1.043,0.384,1.589L8.876,8.179H6.172C7.293,6.329,9.622,2.481,9.957,1.938
		 M24.527,13.183c0,0-1.107,5.824-1.436,7.553c-0.33,1.729-1.294,2.884-3.038,2.884H7.423c-1.765,0-2.717-1.226-3.033-2.884
		c-0.317-1.658-1.441-7.553-1.441-7.553c-0.885-0.159-1.556-0.93-1.556-1.857c0-1.045,0.843-1.892,1.892-1.892h20.908
		c1.044,0,1.892,0.846,1.892,1.892C26.084,12.253,25.412,13.023,24.527,13.183 M9.698,19.24c0.069,0.339-0.146,0.676-0.554,0.746
		c-0.34,0.058-0.616-0.199-0.677-0.495l-1.031-5.05c-0.069-0.34,0.149-0.671,0.489-0.74c0.337-0.07,0.671,0.149,0.74,0.488
		L9.698,19.24z M14.869,19.24c0.07,0.339-0.146,0.676-0.553,0.746c-0.341,0.058-0.616-0.199-0.678-0.495l-1.031-5.05
		c-0.07-0.34,0.149-0.671,0.489-0.74c0.337-0.07,0.671,0.149,0.74,0.488L14.869,19.24z M19.93,19.24
		c0.068,0.339-0.146,0.676-0.553,0.746c-0.342,0.058-0.617-0.199-0.677-0.495l-1.032-5.05c-0.07-0.34,0.148-0.671,0.488-0.74
		c0.338-0.07,0.672,0.149,0.74,0.488L19.93,19.24z"/>
</g>
</svg>
