<?xml version="1.0" encoding="iso-8859-1"?>
<!-- Generator: Adobe Illustrator 16.0.0, SVG Export Plug-In . SVG Version: 6.00 Build 0)  -->
<!DOCTYPE svg PUBLIC "-//W3C//DTD SVG 1.1//EN" "http://www.w3.org/Graphics/SVG/1.1/DTD/svg11.dtd">
<svg version="1.1" id="&#xB808;&#xC774;&#xC5B4;_1" xmlns="http://www.w3.org/2000/svg" xmlns:xlink="http://www.w3.org/1999/xlink"
	 x="0px" y="0px" width="27.08px" height="25px" viewBox="0 0 27.08 25" style="enable-background:new 0 0 27.08 25;"
	 xml:space="preserve">
<g>
	<defs>
		<rect id="SVGID_1_" width="27.08" height="25"/>
	</defs>
	<clipPath id="SVGID_2_">
		<use xlink:href="#SVGID_1_"  style="overflow:visible;"/>
	</clipPath>
	<path style="clip-path:url(#SVGID_2_);fill:#555555;" d="M8.052,8.728C8.033,8.669,7.991,8.595,7.956,8.546
		C7.939,8.521,7.887,8.459,7.865,8.438C7.578,8.159,7.032,8.149,6.731,8.443C6.726,8.448,6.716,8.458,6.706,8.47
		C6.694,8.483,6.681,8.497,6.669,8.511C6.656,8.528,6.644,8.545,6.632,8.563C6.615,8.591,6.597,8.622,6.58,8.654
		C6.568,8.68,6.557,8.706,6.547,8.734C6.533,8.779,6.521,8.822,6.516,8.847C6.508,8.884,6.499,8.974,6.499,9.011
		c0,0.209,0.085,0.415,0.235,0.567c0.152,0.151,0.353,0.235,0.567,0.235c0.212,0,0.419-0.086,0.568-0.238
		c0.149-0.15,0.234-0.355,0.234-0.564c0-0.053-0.014-0.157-0.029-0.207L8.052,8.728z"/>
	<path style="clip-path:url(#SVGID_2_);fill:#555555;" d="M11.222,9.011c0-0.441-0.359-0.801-0.802-0.801
		c-0.441,0-0.802,0.36-0.802,0.801c0,0.442,0.361,0.802,0.802,0.802C10.863,9.813,11.222,9.453,11.222,9.011"/>
	<path style="clip-path:url(#SVGID_2_);fill:#555555;" d="M12.979,9.583c0.019,0.017,0.077,0.065,0.098,0.079l0.065,0.045
		c0.07,0.047,0.15,0.078,0.235,0.089c0.05,0.007,0.107,0.012,0.163,0.012c0.208,0,0.412-0.081,0.568-0.233
		c0.148-0.15,0.233-0.355,0.233-0.564c0-0.215-0.085-0.422-0.235-0.571c-0.176-0.172-0.438-0.271-0.684-0.222l-0.074,0.015
		c-0.053,0.01-0.104,0.029-0.151,0.054l-0.116,0.067c-0.004,0.002-0.012,0.008-0.02,0.014C13.03,8.389,13,8.413,12.971,8.441
		c-0.147,0.15-0.232,0.358-0.232,0.57c0,0.195,0.076,0.399,0.2,0.532C12.95,9.555,12.968,9.572,12.979,9.583"/>
	<path style="clip-path:url(#SVGID_2_);fill:#555555;" d="M21.896,16.751c-0.019-0.016-0.076-0.062-0.096-0.076l-0.057-0.039
		c-0.074-0.051-0.159-0.082-0.25-0.091l-0.043-0.005c-0.063-0.014-0.127-0.016-0.189-0.006l-0.085,0.012
		c-0.063,0.01-0.126,0.03-0.183,0.061l-0.11,0.063c-0.008,0.005-0.017,0.011-0.024,0.017c-0.029,0.02-0.059,0.044-0.085,0.069
		c-0.01,0.01-0.019,0.02-0.025,0.029c-0.016,0.014-0.029,0.029-0.041,0.044c-0.016,0.02-0.029,0.039-0.041,0.06
		c-0.016,0.025-0.031,0.051-0.044,0.078c-0.017,0.027-0.028,0.056-0.038,0.086c-0.014,0.044-0.026,0.089-0.03,0.11
		c-0.008,0.038-0.017,0.128-0.017,0.167c0,0.226,0.099,0.441,0.28,0.604c0.019,0.017,0.038,0.032,0.059,0.047l0.064,0.044
		c0.073,0.05,0.162,0.081,0.25,0.092c0.047,0.005,0.097,0.009,0.147,0.009c0.109,0,0.207-0.02,0.319-0.063
		c0.041-0.018,0.08-0.039,0.117-0.065l0.064-0.047c0.021-0.015,0.04-0.031,0.059-0.049c0.026-0.024,0.049-0.051,0.064-0.07
		c0.051-0.054,0.091-0.118,0.117-0.191c0.018-0.052,0.036-0.108,0.055-0.232c0.003-0.026,0.006-0.052,0.006-0.078
		c0-0.193-0.073-0.396-0.19-0.526C21.938,16.789,21.91,16.764,21.896,16.751"/>
	<path style="clip-path:url(#SVGID_2_);fill:#555555;" d="M18.219,16.528c-0.44,0-0.801,0.36-0.801,0.802
		c0,0.442,0.36,0.802,0.801,0.802c0.442,0,0.802-0.359,0.802-0.802C19.021,16.889,18.661,16.528,18.219,16.528"/>
	<path style="clip-path:url(#SVGID_2_);fill:#555555;" d="M25.697,21.435c0.904-1.232,1.382-2.651,1.382-4.106
		c0-3.416-2.568-6.366-6.304-7.335c0.041-0.323,0.065-0.651,0.065-0.984C20.841,4.041,16.166,0,10.42,0C4.675,0,0,4.041,0,9.009
		c0,1.708,0.562,3.375,1.627,4.823c0.559,1.083,0.177,2.402-0.881,3.017c-0.189,0.109-0.294,0.322-0.265,0.54
		c0.03,0.216,0.186,0.395,0.398,0.45c1.592,0.426,3.271,0.079,4.565-0.923c1.23,0.58,2.579,0.928,3.962,1.047
		C9.784,21.885,13.618,25,18.219,25c1.455,0,2.893-0.315,4.181-0.914c1.104,0.836,2.527,1.12,3.876,0.762
		c0.212-0.057,0.369-0.235,0.398-0.453c0.028-0.217-0.075-0.43-0.266-0.54C25.56,23.362,25.251,22.307,25.697,21.435 M5.368,15.733
		c-0.131,0-0.26,0.048-0.361,0.138c-0.768,0.686-1.742,1.055-2.74,1.063c0.79-1.018,0.947-2.437,0.297-3.646
		c-0.012-0.022-0.027-0.046-0.043-0.065c-0.94-1.27-1.438-2.726-1.438-4.212c0-4.37,4.189-7.926,9.337-7.926
		c5.148,0,9.337,3.556,9.337,7.926c0,0.44-0.054,0.869-0.136,1.29c-0.044,0.228-0.101,0.452-0.166,0.672l-0.021,0.067
		c-0.061,0.197-0.13,0.389-0.208,0.578c-0.024,0.06-0.051,0.12-0.077,0.179c-0.066,0.152-0.137,0.301-0.214,0.447
		c-0.06,0.113-0.123,0.223-0.189,0.333c-0.054,0.093-0.106,0.186-0.166,0.276c-0.128,0.195-0.263,0.386-0.408,0.57
		c-0.006,0.007-0.01,0.014-0.015,0.02c-0.999,1.253-2.409,2.249-4.064,2.854c-0.029,0.012-0.059,0.021-0.089,0.031
		c-0.233,0.083-0.471,0.155-0.713,0.223c-0.056,0.015-0.11,0.03-0.166,0.045c-0.219,0.057-0.443,0.104-0.669,0.146
		c-0.074,0.014-0.148,0.03-0.223,0.043c-0.219,0.037-0.444,0.064-0.67,0.087c-0.077,0.008-0.153,0.021-0.231,0.026
		c-0.301,0.025-0.605,0.039-0.913,0.039c-1.686,0-3.347-0.395-4.806-1.141C5.536,15.753,5.452,15.733,5.368,15.733 M24.913,23.91
		c-0.76-0.046-1.492-0.344-2.078-0.867c-0.168-0.149-0.408-0.179-0.608-0.078c-1.216,0.623-2.602,0.952-4.008,0.952
		c-3.98,0-7.315-2.598-7.728-5.899c0.323-0.001,0.644-0.018,0.959-0.044c0.065-0.006,0.128-0.017,0.192-0.023
		c0.268-0.026,0.535-0.061,0.796-0.105c0.079-0.013,0.157-0.029,0.236-0.045c0.254-0.048,0.505-0.104,0.752-0.168
		c0.061-0.016,0.121-0.032,0.181-0.049c0.237-0.065,0.47-0.138,0.7-0.217c0.01,0.2,0.087,0.394,0.229,0.533
		c0.021,0.02,0.041,0.038,0.064,0.054l0.053,0.038c0.038,0.028,0.08,0.051,0.125,0.067l0.093,0.035
		c0.027,0.011,0.056,0.019,0.085,0.024c0.034,0.007,0.108,0.014,0.145,0.014c0.015,0,0.067-0.004,0.083-0.006
		c0.043-0.003,0.086-0.013,0.127-0.026l0.083-0.027c0.05-0.017,0.097-0.042,0.14-0.071l0.064-0.046
		c0.024-0.018,0.048-0.037,0.068-0.059c0.149-0.149,0.235-0.357,0.235-0.571c0-0.197-0.083-0.389-0.22-0.537
		c1.334-0.674,2.477-1.6,3.348-2.711c0.015-0.02,0.03-0.038,0.046-0.058c0.155-0.201,0.301-0.409,0.438-0.622
		c0.027-0.045,0.059-0.087,0.088-0.132c0.105-0.174,0.204-0.354,0.297-0.535c0.283-0.534,0.505-1.096,0.662-1.68
		c3.227,0.858,5.436,3.379,5.436,6.277c0,1.233-0.413,2.442-1.194,3.495c-0.016,0.021-0.03,0.043-0.042,0.066
		C24.227,21.884,24.319,23.04,24.913,23.91"/>
</g>
</svg>
