<svg id="레이어_1" data-name="레이어 1" xmlns="http://www.w3.org/2000/svg" viewBox="0 0 31 40"><defs><style>.cls-1{fill:#ff7e00;}</style></defs><path class="cls-1" d="M29.35,0H1.65A1.65,1.65,0,0,0,0,1.66V38.34A1.65,1.65,0,0,0,1.65,40h27.7A1.65,1.65,0,0,0,31,38.34V1.66A1.65,1.65,0,0,0,29.35,0Zm.25,38.34a.25.25,0,0,1-.25.25H1.65a.25.25,0,0,1-.25-.25V1.66a.25.25,0,0,1,.25-.25h27.7a.25.25,0,0,1,.25.25Z"/><rect class="cls-1" x="11.4" y="4.63" width="8.2" height="1.41"/><rect class="cls-1" x="4.85" y="9.27" width="21.3" height="1.41"/><rect class="cls-1" x="4.85" y="13.9" width="21.3" height="1.41"/><rect class="cls-1" x="4.85" y="18.53" width="21.3" height="1.41"/><rect class="cls-1" x="4.85" y="23.16" width="9.38" height="1.41"/><rect class="cls-1" x="4.85" y="29.42" width="7.34" height="1.41"/><rect class="cls-1" x="4.85" y="32.53" width="7.34" height="1.41"/><path class="cls-1" d="M20.94,21.47a5.4,5.4,0,0,0-3.74,9.25V38L21,35.63,24.76,38V30.66a5.45,5.45,0,0,0,1.55-3.8A5.39,5.39,0,0,0,20.94,21.47Zm-4,5.39a4,4,0,1,1,4,4A4,4,0,0,1,17,26.86Zm4,7.1-2.34,1.5V31.72a5.32,5.32,0,0,0,4.75,0v3.8Z"/></svg>