<svg id="레이어_1" data-name="레이어 1" xmlns="http://www.w3.org/2000/svg" viewBox="0 0 44 40"><defs><style>.cls-1{fill:#888;}</style></defs><path class="cls-1" d="M43.53,20.3,37,14.16V3.39H28.69V5.91L22,0,.36,20.61a1.17,1.17,0,0,0,0,1.64l1.93,2.06a1.19,1.19,0,0,0,1.64.07l.77-.71V40H39.41V23.44l.71.56a1.49,1.49,0,0,0,2-.1l1.48-1.45a1.49,1.49,0,0,0,0-2.15ZM25.59,38.56H18.52V30.25a3.54,3.54,0,0,1,7.07,0Zm12.38,0H27V30.25a5,5,0,0,0-10,0v8.31h-11V22.36L22,7.83,38,22.29Zm4.58-17.14-1.48,1.45H41l-1.88-1.48L22,5.89,3.11,23.13,1.55,21.46,22.05,2,30.13,9.1V4.83h5.41v10l7,6.57s0,0,0,0A0,0,0,0,1,42.55,21.42Z"/></svg>