<svg id="레이어_1" data-name="레이어 1" xmlns="http://www.w3.org/2000/svg" viewBox="0 0 30 30"><defs><style>.cls-1{fill:#00a0e9;}</style></defs><path class="cls-1" d="M29.92,22.64c-.9-1.33-2.85-2.08-5.79-2.23a26.34,26.34,0,0,0-3.68.1L17.8,12.65a18,18,0,0,0,3-2.55c1.31-1.44,1.81-2.77,1.44-3.85A2.18,2.18,0,0,0,20.78,5a8.56,8.56,0,0,0-2.16-.43,20.7,20.7,0,0,0-2.54,0c-.06-.11-.11-.23-.17-.34a8.29,8.29,0,0,0-3-3.47A3.59,3.59,0,0,0,9.33.32,3.77,3.77,0,0,0,7.5,3.47a7.94,7.94,0,0,0,.43,3.28l-.46.11c-2.93.7-5,.67-6-.08A1.33,1.33,0,0,1,.9,5.67C.92,4.26,3,2.42,3.84,1.83A.47.47,0,0,0,4,1.19a.44.44,0,0,0-.63-.11A14,14,0,0,0,1.7,2.5,5,5,0,0,0,0,5.66,2.22,2.22,0,0,0,1,7.51a4.78,4.78,0,0,0,2.93.77,16.54,16.54,0,0,0,3.78-.52l.59-.15c.06.14.12.27.19.4a7.92,7.92,0,0,0,3.62,3.79l1.42,2.41A12,12,0,0,0,11.32,16,5.42,5.42,0,0,0,9.9,18.62a3,3,0,0,0,.6,2.49c.57.7,1.88,1,4,1H15c1.28,0,2.45-.16,3-.23l4.62,7.87A.44.44,0,0,0,23,30a.41.41,0,0,0,.19,0,.48.48,0,0,0,.24-.57l-2.69-8a23.44,23.44,0,0,1,3.35-.08c2.6.14,4.36.77,5.08,1.83a.45.45,0,0,0,.37.2.5.5,0,0,0,.26-.08A.47.47,0,0,0,29.92,22.64ZM18.55,5.46c1.64.14,2.68.54,2.86,1.09.25.73-.2,1.77-1.25,2.93a16.32,16.32,0,0,1-2.67,2.27l-.76-2.27a7.6,7.6,0,0,0-.3-4.07A17.85,17.85,0,0,1,18.55,5.46ZM12.76,11.2a.39.39,0,0,0-.21-.19A7,7,0,0,1,9.25,7.6l-.11-.23c1.2-.35,2.17-.71,2.64-.88l.41,1a.44.44,0,0,0,.42.28A.45.45,0,0,0,13,7.18L11.81,4.11a.44.44,0,0,0-.58-.26.47.47,0,0,0-.25.6l.46,1.18c-.47.18-1.45.54-2.64.88a7,7,0,0,1-.4-2.95A2.89,2.89,0,0,1,9.73,1.14a2,2,0,0,1,.95-.22,3.42,3.42,0,0,1,1.75.56,7.46,7.46,0,0,1,2.68,3.09,7.17,7.17,0,0,1,.72,4.8.42.42,0,0,0,0,.27l.89,2.63c-.59.38-1.22.76-1.89,1.13l-.58.33Zm2.23,10c-2.86.06-3.61-.48-3.8-.71a2.06,2.06,0,0,1-.41-1.73c.14-.76.76-2.17,3.17-3.79l3.55,6.05C16.9,21.11,16,21.2,15,21.23Zm3.64-.05h0l-3.9-6.65c.17-.11.35-.21.54-.31.62-.35,1.21-.69,1.76-1.05l2.7,8h0l1.47,4.39Z"/></svg>