<svg id="레이어_1" data-name="레이어 1" xmlns="http://www.w3.org/2000/svg" viewBox="0 0 21 30"><defs><style>.cls-1{fill:#ff31c0;}</style></defs><path class="cls-1" d="M19.8,13.66v-.49a.66.66,0,0,0,0-.14V4.62a1.28,1.28,0,0,0-1.28-1.28h-.05a1.28,1.28,0,0,0-1.29,1.28V6.79a.66.66,0,0,1-.66.66h-.08a.66.66,0,0,1-.66-.66V6A1.29,1.29,0,0,0,14.5,4.74h-.17A1.28,1.28,0,0,0,13.05,6V8.59a.66.66,0,0,1-.66.65h-.17a.66.66,0,0,1-.66-.65V3.11A1.29,1.29,0,0,0,9,3.11V6a.66.66,0,0,1-.66.66H8.12A.67.67,0,0,1,7.46,6V5.43A1.28,1.28,0,0,0,6.18,4.15H6.06A1.28,1.28,0,0,0,4.77,5.43V8.55a.66.66,0,1,1-1.32,0V1.28A1.28,1.28,0,0,0,2.17,0h-.1A1.28,1.28,0,0,0,.78,1.28V12.86c0,.1,0,.21,0,.31v.37H0v.6H.76v.15a2,2,0,0,0,2,2h15a2,2,0,0,0,2-2v0a.83.83,0,0,1,.6.8v.54a1.69,1.69,0,0,1-1.69,1.69h-7.5A1.25,1.25,0,0,0,10,18.54v1.13H9.49a.89.89,0,0,0-.88.88v8.57a.88.88,0,0,0,.88.88H11.7a.87.87,0,0,0,.88-.88V20.55a.88.88,0,0,0-.88-.88H10.56V18.54a.66.66,0,0,1,.65-.65h7.5A2.29,2.29,0,0,0,21,15.61v-.54A1.44,1.44,0,0,0,19.8,13.66Zm-.6.63a1.41,1.41,0,0,1-1.41,1.4H16.24l.05,0-.43-.41-.45.46H2.77a1.41,1.41,0,0,1-1.41-1.4V13.17a1.41,1.41,0,0,1,1.41-1.4H4L2.38,13.44l.44.41,2-2.08H8.38L6.85,13.38l.44.41,1.92-2H16l-1.53,1.61.43.41,1.92-2h.93a1.41,1.41,0,0,1,1.41,1.4Zm-2.6-3.12H9.08m-.13,0H2.77a2,2,0,0,0-1.39.55V1.28A.68.68,0,0,1,2.07.6h.1a.67.67,0,0,1,.68.68V8.55a1.26,1.26,0,0,0,2.52,0V5.43a.68.68,0,0,1,.69-.68h.12a.67.67,0,0,1,.68.68V6A1.26,1.26,0,0,0,8.12,7.27h.21A1.25,1.25,0,0,0,9.59,6V3.11a.69.69,0,1,1,1.37,0V8.59a1.26,1.26,0,0,0,1.26,1.25h.17a1.26,1.26,0,0,0,1.26-1.25V6a.68.68,0,0,1,.68-.68h.17a.69.69,0,0,1,.68.68v.77a1.26,1.26,0,0,0,1.26,1.26h.08a1.26,1.26,0,0,0,1.26-1.26V4.62a.68.68,0,0,1,.69-.68h.05a.68.68,0,0,1,.68.68v7.13a2,2,0,0,0-1.41-.58H16.74M12,29.12a.27.27,0,0,1-.28.28H9.49a.28.28,0,0,1-.28-.28V22.06H12Zm-.28-8.85a.28.28,0,0,1,.28.28v.91H9.21v-.91a.29.29,0,0,1,.28-.28Z"/><polygon class="cls-1" points="6.14 12.52 3.57 15.24 4 15.65 6.58 12.93 6.14 12.52"/><polygon class="cls-1" points="13.66 12.44 11.09 15.16 11.53 15.57 14.1 12.85 13.66 12.44"/><polygon class="cls-1" points="1.61 14.19 2.04 14.61 2.68 13.95 2.25 13.53 1.61 14.19"/><polygon class="cls-1" points="6.08 14.13 6.51 14.54 7.15 13.89 6.71 13.47 6.08 14.13"/><polygon class="cls-1" points="11.14 12.12 8.98 14.39 9.41 14.8 11.57 12.53 11.14 12.12"/><polygon class="cls-1" points="8.2 15.14 8.63 15.56 9.27 14.9 8.84 14.48 8.2 15.14"/><polygon class="cls-1" points="13.73 14.13 14.16 14.54 14.8 13.89 14.37 13.47 13.73 14.13"/><polygon class="cls-1" points="16 15.13 16.43 15.54 18.59 13.27 18.16 12.86 16 15.13"/></svg>