<svg id="레이어_1" data-name="레이어 1" xmlns="http://www.w3.org/2000/svg" viewBox="0 0 32 40"><defs><style>.cls-1{fill:#ff7e00;}.cls-2{fill:#fff;}</style></defs><path class="cls-1" d="M16,0A16.11,16.11,0,0,0,2.33,24.45h0v0a18.26,18.26,0,0,0,1.82,2.44c2.89,3.65,7.85,9.4,10.41,12.34a2.18,2.18,0,0,0,3.28,0c3.5-4,11.4-13.1,12.25-15.57h0A16.1,16.1,0,0,0,16,0Zm.2,28.15A12.27,12.27,0,1,1,28.4,15.89,12.23,12.23,0,0,1,16.2,28.15Z"/><ellipse class="cls-2" cx="16.2" cy="15.89" rx="12.2" ry="12.27"/><path class="cls-1" d="M20.8,14.49a.18.18,0,0,0-.19-.19H19.12a.19.19,0,0,0,0,.38h1.49A.18.18,0,0,0,20.8,14.49Z"/><path class="cls-1" d="M19.87,17.73a.2.2,0,0,0,.19-.2V16h1.56a.19.19,0,0,0,.19-.15l.44-2.35a1.73,1.73,0,0,0-1.49-2.05v-.68a.43.43,0,0,0-.43-.43h-.89a.43.43,0,0,0-.43.43v.67h-7.2a1.68,1.68,0,0,0-1.67,1.68v5.39H9.71a.19.19,0,0,0-.2.19V21a.2.2,0,0,0,.2.2H22a.2.2,0,0,0,.19-.2v-.91a1.61,1.61,0,0,0-1.61-1.62H14.81v-2.9a.79.79,0,0,1,.79-.8h2.21l.19,1a.19.19,0,0,0,.19.16h1.49v1.55A.19.19,0,0,0,19.87,17.73Zm-.47-7a0,0,0,0,1,0-.05h.89a0,0,0,0,1,0,.05v.67h-1Zm2.39,9.36v.72H9.9V18.88H20.57A1.23,1.23,0,0,1,21.79,20.11Zm-3.63-5.55h0L18,13.81a.19.19,0,0,0-.22-.15.19.19,0,0,0-.15.23l.09.52H15.6a1.18,1.18,0,0,0-1.18,1.18v2.9h-3.9V13.1a1.29,1.29,0,0,1,1.29-1.29h8.75a1.32,1.32,0,0,1,1,.49,1.35,1.35,0,0,1,.29,1.11l-.42,2.18H18.35Z"/><path class="cls-1" d="M13.17,17.1H11.68a.19.19,0,0,0-.19.19.19.19,0,0,0,.19.2h1.49a.19.19,0,0,0,.19-.2A.19.19,0,0,0,13.17,17.1Z"/><path class="cls-1" d="M13.17,15.89H11.68a.19.19,0,0,0-.19.2.19.19,0,0,0,.19.19h1.49a.19.19,0,0,0,.19-.19A.19.19,0,0,0,13.17,15.89Z"/><path class="cls-1" d="M12.57,12.88a1.11,1.11,0,1,0,1.1,1.1A1.1,1.1,0,0,0,12.57,12.88Zm0,1.82a.72.72,0,1,1,.71-.72A.71.71,0,0,1,12.57,14.7Z"/></svg>