<svg id="레이어_1" data-name="레이어 1" xmlns="http://www.w3.org/2000/svg" viewBox="0 0 36 30"><defs><style>.cls-1{fill:#ff7e00;}</style></defs><path class="cls-1" d="M31.82,11.49a.54.54,0,0,0-.54-.53H27.09a.54.54,0,0,0-.54.53.53.53,0,0,0,.54.53h4.19A.53.53,0,0,0,31.82,11.49Z"/><path class="cls-1" d="M29.18,20.4a.55.55,0,0,0,.55-.54V15.6h4.38a.56.56,0,0,0,.54-.44l1.26-6.44a4.73,4.73,0,0,0-1-4,4.88,4.88,0,0,0-3.2-1.7V1.19A1.2,1.2,0,0,0,30.48,0H28a1.2,1.2,0,0,0-1.21,1.19V3H6.48A4.69,4.69,0,0,0,1.75,7.67V22.49H.54A.54.54,0,0,0,0,23v6.45A.54.54,0,0,0,.54,30H35.16a.54.54,0,0,0,.54-.53V27a4.51,4.51,0,0,0-4.55-4.46H14.92v-8a2.21,2.21,0,0,1,2.22-2.18h6.25l.53,2.84a.55.55,0,0,0,.54.44h4.18v4.26A.54.54,0,0,0,29.18,20.4ZM27.85,1.19A.12.12,0,0,1,28,1.07h2.5a.12.12,0,0,1,.13.12V3H27.85ZM34.61,27v2H1.09V23.56H31.15A3.43,3.43,0,0,1,34.61,27ZM24.37,11.68h0l-.38-2a.55.55,0,0,0-.64-.43.53.53,0,0,0-.43.62l.27,1.43H17.14a3.28,3.28,0,0,0-3.3,3.25v8h-11V7.67A3.61,3.61,0,0,1,6.48,4.1H31.13a3.83,3.83,0,0,1,2.92,1.35,3.64,3.64,0,0,1,.79,3.07l-1.18,6H24.91Z"/><path class="cls-1" d="M10.31,18.67H6.1a.54.54,0,1,0,0,1.07h4.21a.54.54,0,1,0,0-1.07Z"/><path class="cls-1" d="M10.31,15.35H6.1a.54.54,0,1,0,0,1.07h4.21a.54.54,0,1,0,0-1.07Z"/><path class="cls-1" d="M8.61,7.06a3,3,0,1,0,3.1,3A3.07,3.07,0,0,0,8.61,7.06Zm0,5a2,2,0,1,1,2-2A2,2,0,0,1,8.61,12.07Z"/></svg>