<svg id="레이어_1" data-name="레이어 1" xmlns="http://www.w3.org/2000/svg" viewBox="0 0 32 40"><defs><style>.cls-1{fill:#00a0e9;}.cls-2{fill:#fff;}</style></defs><path class="cls-1" d="M16,0A16.11,16.11,0,0,0,2.33,24.45h0v0a18.26,18.26,0,0,0,1.82,2.44c2.89,3.65,7.85,9.4,10.41,12.34a2.18,2.18,0,0,0,3.28,0c3.5-4,11.4-13.1,12.25-15.57h0A16.1,16.1,0,0,0,16,0Zm.2,28.15A12.27,12.27,0,1,1,28.4,15.89,12.23,12.23,0,0,1,16.2,28.15Z"/><ellipse class="cls-2" cx="16.2" cy="15.89" rx="12.2" ry="12.27"/><path class="cls-1" d="M22.6,20.42a3.09,3.09,0,0,0-2.49-.94,10,10,0,0,0-1.58,0L17.4,16.2a7,7,0,0,0,1.29-1.07c.57-.61.78-1.17.62-1.63a1,1,0,0,0-.63-.54,3.56,3.56,0,0,0-.93-.18,8.46,8.46,0,0,0-1.09,0s-.05-.09-.07-.14a3.55,3.55,0,0,0-1.3-1.47A1.57,1.57,0,0,0,13.77,11,1.59,1.59,0,0,0,13,12.33a3.37,3.37,0,0,0,.18,1.38l-.19,0a3.43,3.43,0,0,1-2.56,0,.55.55,0,0,1-.26-.46c0-.6.91-1.37,1.26-1.62a.2.2,0,0,0,.05-.27.19.19,0,0,0-.27,0,5.13,5.13,0,0,0-.69.6,2.08,2.08,0,0,0-.73,1.33.91.91,0,0,0,.41.78,2,2,0,0,0,1.25.33,7.13,7.13,0,0,0,1.63-.22l.25-.06.08.17a3.37,3.37,0,0,0,1.55,1.59l.61,1a5.36,5.36,0,0,0-.93.77A2.24,2.24,0,0,0,14,18.72a1.25,1.25,0,0,0,.26,1.05c.24.3.81.44,1.72.44h.22a11.84,11.84,0,0,0,1.28-.1l2,3.32a.21.21,0,0,0,.17.1l.08,0a.2.2,0,0,0,.1-.24L18.66,19.9a10.25,10.25,0,0,1,1.44,0,2.77,2.77,0,0,1,2.18.77.21.21,0,0,0,.16.08.2.2,0,0,0,.11,0A.19.19,0,0,0,22.6,20.42Zm-4.88-7.25c.7.06,1.15.23,1.23.46s-.09.74-.54,1.23a6.75,6.75,0,0,1-1.14,1l-.33-1a3.2,3.2,0,0,0-.13-1.71A7.36,7.36,0,0,1,17.72,13.17Zm-2.48,2.42a.23.23,0,0,0-.09-.08,3,3,0,0,1-1.42-1.44,1,1,0,0,1,0-.1,11.49,11.49,0,0,0,1.13-.37L15,14a.19.19,0,0,0,.18.12h.07a.19.19,0,0,0,.11-.25l-.52-1.3a.19.19,0,1,0-.36.14l.2.5a11.49,11.49,0,0,1-1.13.37,2.87,2.87,0,0,1-.17-1.24,1.2,1.2,0,0,1,.57-1,.8.8,0,0,1,.41-.1,1.46,1.46,0,0,1,.75.24,3.2,3.2,0,0,1,1.15,1.3,3,3,0,0,1,.3,2,.17.17,0,0,0,0,.12l.38,1.1-.81.48-.25.14Zm1,4.23c-1.22,0-1.54-.2-1.63-.29a.9.9,0,0,1-.17-.73c.06-.32.32-.92,1.36-1.6l1.52,2.55C17,19.78,16.61,19.81,16.19,19.82Zm1.56,0h0L16.08,17l.23-.13c.27-.14.52-.29.75-.44l1.16,3.38h0l.63,1.85Z"/></svg>