<svg id="레이어_1" data-name="레이어 1" xmlns="http://www.w3.org/2000/svg" viewBox="0 0 30 30"><defs><style>.cls-1{fill:#22ac38;}</style></defs><path class="cls-1" d="M30,9.45,28.1,4.54a.46.46,0,0,0-.43-.3H23.4A6.91,6.91,0,0,1,21,3.72,3.77,3.77,0,0,1,18.55.42.45.45,0,0,0,18.1,0H15l-.12,0h-3a.45.45,0,0,0-.45.42A3.77,3.77,0,0,1,9,3.74a7.2,7.2,0,0,1-2.37.52H2.33a.46.46,0,0,0-.43.29L0,9.46a.46.46,0,0,0,.26.59,10.52,10.52,0,0,1,2.62,1.63,6.59,6.59,0,0,1,2.56,5.09,26.41,26.41,0,0,1-2.32,9.9.45.45,0,0,0,.17.58l3.35,2.19a.45.45,0,0,0,.57-.05A5.6,5.6,0,0,1,9.45,28.2a4.19,4.19,0,0,1,2.43,0,6.92,6.92,0,0,1,2.79,1.67A.45.45,0,0,0,15,30a.47.47,0,0,0,.31-.12.38.38,0,0,0,.09-.13,7.11,7.11,0,0,1,2.71-1.59,4.28,4.28,0,0,1,2.43,0,5.73,5.73,0,0,1,2.21,1.19.47.47,0,0,0,.57.06l3.35-2.2a.45.45,0,0,0,.17-.58,26.34,26.34,0,0,1-2.32-9.9,6.62,6.62,0,0,1,2.56-5.09A10,10,0,0,1,29.71,10,.46.46,0,0,0,30,9.45ZM26.52,11a7.55,7.55,0,0,0-2.91,5.79,23.91,23.91,0,0,0,1.19,7.08c.42,1.33.83,2.35,1.05,2.86l-2.73,1.79a7,7,0,0,0-2.3-1.17,5.15,5.15,0,0,0-3,0A7.85,7.85,0,0,0,15,28.89a7.87,7.87,0,0,0-2.85-1.59,5.06,5.06,0,0,0-3,0,7.1,7.1,0,0,0-2.3,1.16L4.15,26.7c.22-.52.63-1.54,1-2.87a23.79,23.79,0,0,0,1.19-7.07A7.59,7.59,0,0,0,3.48,11,12,12,0,0,0,1,9.38l1.61-4.2h4A8,8,0,0,0,9.3,4.6a4.66,4.66,0,0,0,3-3.66H15l.12,0h2.56a4.66,4.66,0,0,0,3,3.66,8,8,0,0,0,2.69.58h4L29,9.37A11.21,11.21,0,0,0,26.52,11Z"/><path class="cls-1" d="M21.54,22.24a.46.46,0,1,0-.9.2c.21.91.39,1.47.39,1.49a.46.46,0,0,0,.44.32.34.34,0,0,0,.14,0,.46.46,0,0,0,.3-.57S21.74,23.11,21.54,22.24Z"/><path class="cls-1" d="M20.74,20.51a.48.48,0,0,0,.4-.52A20.24,20.24,0,0,1,21,17.72a.47.47,0,0,0-.47-.45.46.46,0,0,0-.45.48,22.11,22.11,0,0,0,.2,2.36.45.45,0,0,0,.45.4Z"/><path class="cls-1" d="M20.36,15.87h0c.13,0,.25-.17.26-.41a21.27,21.27,0,0,1,.27-2.18.57.57,0,0,0-.17-.58c-.14-.08-.29.05-.33.29a19.87,19.87,0,0,0-.3,2.37C20.11,15.61,20.21,15.84,20.36,15.87Z"/><path class="cls-1" d="M22.79,9.6a6.74,6.74,0,0,0-1.07,1.19.45.45,0,0,0,.11.64.43.43,0,0,0,.26.09.47.47,0,0,0,.38-.19,5.45,5.45,0,0,1,.93-1,.46.46,0,1,0-.61-.69Z"/><path class="cls-1" d="M9.25,20.79a.46.46,0,0,0-.52.39c-.12.87-.25,1.43-.25,1.44a.46.46,0,0,0,.34.55h.11a.44.44,0,0,0,.44-.36s.14-.59.27-1.51A.46.46,0,0,0,9.25,20.79Z"/><path class="cls-1" d="M9.14,14.75h.08a.46.46,0,0,0,.37-.54,11.58,11.58,0,0,0-.7-2.31.46.46,0,0,0-.6-.25.47.47,0,0,0-.24.61,11.11,11.11,0,0,1,.64,2.13A.45.45,0,0,0,9.14,14.75Z"/><path class="cls-1" d="M9.39,16.14a.46.46,0,0,0-.43.49c0,.35,0,.71,0,1.08s0,.79,0,1.19a.47.47,0,0,0,.44.49h0A.46.46,0,0,0,9.87,19c0-.42,0-.84,0-1.24s0-.77,0-1.13A.46.46,0,0,0,9.39,16.14Z"/><path class="cls-1" d="M6.46,8.68a.46.46,0,1,0-.54.74,6,6,0,0,1,1,.95.49.49,0,0,0,.36.17.47.47,0,0,0,.35-.76A7.16,7.16,0,0,0,6.46,8.68Z"/></svg>