<svg id="레이어_1" data-name="레이어 1" xmlns="http://www.w3.org/2000/svg" viewBox="0 0 32 40"><defs><style>.cls-1{fill:#22ac38;}.cls-2{fill:#fff;}</style></defs><path class="cls-1" d="M16,0A16.11,16.11,0,0,0,2.33,24.45h0v0a18.26,18.26,0,0,0,1.82,2.44c2.89,3.65,7.85,9.4,10.41,12.34a2.18,2.18,0,0,0,3.28,0c3.5-4,11.4-13.1,12.25-15.57h0A16.1,16.1,0,0,0,16,0Zm.2,28.15A12.27,12.27,0,1,1,28.4,15.89,12.23,12.23,0,0,1,16.2,28.15Z"/><ellipse class="cls-2" cx="16.2" cy="15.89" rx="12.2" ry="12.27"/><path class="cls-1" d="M22.67,13.24l-.78-2.08a.2.2,0,0,0-.18-.12h-1.8a2.93,2.93,0,0,1-1-.22,1.6,1.6,0,0,1-1-1.39.19.19,0,0,0-.19-.18h-2.6a.19.19,0,0,0-.19.18,1.6,1.6,0,0,1-1,1.39,2.92,2.92,0,0,1-1,.22H11.07a.2.2,0,0,0-.18.12l-.79,2.07a.19.19,0,0,0,.11.25,4.78,4.78,0,0,1,1.1.69,2.81,2.81,0,0,1,1.08,2.15,11.4,11.4,0,0,1-1,4.18.19.19,0,0,0,.07.24l1.41.93a.2.2,0,0,0,.24,0,2.47,2.47,0,0,1,.93-.51,1.86,1.86,0,0,1,1,0,2.94,2.94,0,0,1,1.17.71.2.2,0,0,0,.14.06.15.15,0,0,0,.13-.05l0-.05a2.85,2.85,0,0,1,1.14-.67,1.77,1.77,0,0,1,1,0,2.47,2.47,0,0,1,.93.51.19.19,0,0,0,.24,0l1.4-.92a.19.19,0,0,0,.07-.25,11.2,11.2,0,0,1-1-4.18,2.78,2.78,0,0,1,1.08-2.15,4.41,4.41,0,0,1,1.09-.68A.19.19,0,0,0,22.67,13.24Zm-1.44.63A3.21,3.21,0,0,0,20,16.32a10.15,10.15,0,0,0,.5,3A12.25,12.25,0,0,0,21,20.51l-1.15.76a3,3,0,0,0-1-.5,2.18,2.18,0,0,0-1.24,0,3.13,3.13,0,0,0-1.21.68,3.23,3.23,0,0,0-1.19-.68,2.18,2.18,0,0,0-1.24,0,3.06,3.06,0,0,0-1,.49l-1.15-.75c.09-.22.27-.65.44-1.21a9.9,9.9,0,0,0,.5-3,3.18,3.18,0,0,0-1.22-2.44,4.75,4.75,0,0,0-1-.67l.67-1.77h1.67A3.55,3.55,0,0,0,14,11.19a2,2,0,0,0,1.27-1.54h2.26a2,2,0,0,0,1.26,1.54,3.33,3.33,0,0,0,1.13.25h1.67l.67,1.77A5.18,5.18,0,0,0,21.23,13.87Z"/><path class="cls-1" d="M19.13,18.64a.19.19,0,0,0-.23-.15.19.19,0,0,0-.14.23c.08.39.16.62.16.63a.2.2,0,0,0,.19.14h.05a.2.2,0,0,0,.13-.24S19.22,19,19.13,18.64Z"/><path class="cls-1" d="M18.8,17.91a.21.21,0,0,0,.17-.22,6.43,6.43,0,0,1-.08-1,.21.21,0,0,0-.2-.19.19.19,0,0,0-.19.2c0,.32,0,.66.08,1a.2.2,0,0,0,.19.17Z"/><path class="cls-1" d="M18.64,16h0c.06,0,.11-.07.11-.17a5.88,5.88,0,0,1,.12-.92.28.28,0,0,0-.08-.25c-.05,0-.12,0-.14.13a9,9,0,0,0-.12,1C18.53,15.84,18.58,15.94,18.64,16Z"/><path class="cls-1" d="M19.66,13.3a2.74,2.74,0,0,0-.45.51.19.19,0,0,0,.05.27.2.2,0,0,0,.11,0,.18.18,0,0,0,.15-.08,3.31,3.31,0,0,1,.39-.44.19.19,0,0,0-.25-.29Z"/><path class="cls-1" d="M14,18a.19.19,0,0,0-.21.17c-.06.37-.11.6-.11.61a.19.19,0,0,0,.14.23h.05a.19.19,0,0,0,.19-.15s.05-.25.11-.64A.21.21,0,0,0,14,18Z"/><path class="cls-1" d="M13.93,15.48h0a.18.18,0,0,0,.15-.22,4,4,0,0,0-.29-1,.18.18,0,0,0-.25-.1.19.19,0,0,0-.1.25,5.3,5.3,0,0,1,.27.9A.19.19,0,0,0,13.93,15.48Z"/><path class="cls-1" d="M14,16.06a.2.2,0,0,0-.18.21c0,.15,0,.3,0,.45s0,.34,0,.51a.18.18,0,0,0,.18.2h0a.19.19,0,0,0,.19-.18c0-.18,0-.35,0-.53s0-.32,0-.47A.21.21,0,0,0,14,16.06Z"/><path class="cls-1" d="M12.8,12.91a.2.2,0,0,0-.27,0,.22.22,0,0,0,0,.28,2.32,2.32,0,0,1,.43.4.18.18,0,0,0,.15.07.21.21,0,0,0,.12,0,.19.19,0,0,0,0-.27A2.73,2.73,0,0,0,12.8,12.91Z"/></svg>