<svg id="레이어_1" data-name="레이어 1" xmlns="http://www.w3.org/2000/svg" viewBox="0 0 32 40"><defs><style>.cls-1{fill:#ff31c0;}.cls-2{fill:#fff;}</style></defs><path class="cls-1" d="M16,0A16.11,16.11,0,0,0,2.33,24.45h0v0a18.26,18.26,0,0,0,1.82,2.44c2.89,3.65,7.85,9.4,10.41,12.34a2.18,2.18,0,0,0,3.28,0c3.5-4,11.4-13.1,12.25-15.57h0A16.1,16.1,0,0,0,16,0Zm.2,28.15A12.27,12.27,0,1,1,28.4,15.89,12.23,12.23,0,0,1,16.2,28.15Z"/><ellipse class="cls-2" cx="16.2" cy="15.89" rx="12.2" ry="12.27"/><path class="cls-1" d="M20.87,15.17V10.62a.65.65,0,0,0-.64-.65h0a.65.65,0,0,0-.64.65v1.09a.33.33,0,0,1-.33.33h0a.33.33,0,0,1-.33-.33v-.39a.64.64,0,0,0-.64-.64h-.08a.64.64,0,0,0-.64.64v1.3a.33.33,0,0,1-.33.33h-.08a.33.33,0,0,1-.33-.33V9.85a.65.65,0,0,0-1.29,0v1.47a.33.33,0,0,1-.33.33H15a.33.33,0,0,1-.33-.33V11a.64.64,0,0,0-.64-.64H14a.64.64,0,0,0-.64.64V12.6a.33.33,0,0,1-.33.33.33.33,0,0,1-.33-.33V8.93a.65.65,0,0,0-.65-.64H12a.64.64,0,0,0-.64.64v5.84a.81.81,0,0,0,0,.16v.18H11v.31h.38v.07a1,1,0,0,0,1,1h7.51a1,1,0,0,0,1-1h0a.42.42,0,0,1,.3.41v.27a.85.85,0,0,1-.85.85H16.58a.63.63,0,0,0-.62.63v.57h-.24a.44.44,0,0,0-.44.44V23a.44.44,0,0,0,.44.44h1.11a.44.44,0,0,0,.44-.44V18.65a.44.44,0,0,0-.44-.44h-.57v-.57a.32.32,0,0,1,.32-.33h3.74a1.15,1.15,0,0,0,1.15-1.15v-.27A.73.73,0,0,0,20.87,15.17Zm-.3.32a.7.7,0,0,1-.7.71h-.78l0,0L18.9,16l-.22.24H12.36a.7.7,0,0,1-.7-.71v-.56a.7.7,0,0,1,.7-.71H13l-.8.84.22.21,1-1h1.79L14.4,15l.22.21,1-1H19l-.76.81.21.21,1-1h.47a.7.7,0,0,1,.7.71Zm-1.3-1.57H15.52m-.07,0H12.36a1,1,0,0,0-.69.28V8.93A.34.34,0,0,1,12,8.59h.05a.35.35,0,0,1,.35.34V12.6a.63.63,0,1,0,1.25,0V11a.35.35,0,0,1,.35-.34h.06a.34.34,0,0,1,.34.34v.3A.63.63,0,0,0,15,12h.1a.63.63,0,0,0,.63-.63V9.85a.35.35,0,0,1,.69,0v2.77a.63.63,0,0,0,.63.63h.08a.63.63,0,0,0,.63-.63v-1.3a.34.34,0,0,1,.34-.34h.08a.34.34,0,0,1,.34.34v.39a.63.63,0,0,0,.63.63h0a.63.63,0,0,0,.63-.63V10.62a.35.35,0,0,1,.34-.35h0a.35.35,0,0,1,.34.35v3.59a1,1,0,0,0-.7-.29h-.53M17,23a.14.14,0,0,1-.14.14H15.72a.14.14,0,0,1-.14-.14V19.41H17Zm-.14-4.46a.14.14,0,0,1,.14.14v.46H15.58v-.46a.14.14,0,0,1,.14-.14Z"/><polygon class="cls-1" points="14.05 14.6 12.76 15.97 12.98 16.18 14.27 14.8 14.05 14.6"/><polygon class="cls-1" points="17.8 14.56 16.52 15.93 16.74 16.14 18.02 14.77 17.8 14.56"/><polygon class="cls-1" points="11.79 15.44 12 15.65 12.32 15.32 12.11 15.11 11.79 15.44"/><polygon class="cls-1" points="14.02 15.41 14.23 15.62 14.55 15.29 14.34 15.08 14.02 15.41"/><polygon class="cls-1" points="16.55 14.39 15.46 15.54 15.68 15.75 16.76 14.6 16.55 14.39"/><polygon class="cls-1" points="15.08 15.92 15.29 16.13 15.61 15.8 15.4 15.59 15.08 15.92"/><polygon class="cls-1" points="17.84 15.41 18.06 15.62 18.38 15.29 18.16 15.08 17.84 15.41"/><polygon class="cls-1" points="18.97 15.92 19.19 16.12 20.27 14.98 20.05 14.77 18.97 15.92"/></svg>