<svg id="레이어_1" data-name="레이어 1" xmlns="http://www.w3.org/2000/svg" viewBox="0 0 24.52 20"><defs><style>.cls-1{fill:#ddd;}</style></defs><path class="cls-1" d="M17.41,9.55a1.83,1.83,0,0,1,1.83-1.83h1.54A3.52,3.52,0,0,0,24.3,4.2V3.52A3.53,3.53,0,0,0,20.78,0h-.39a3.85,3.85,0,0,0-3.85,3.83,3.92,3.92,0,0,0,.67,2.29L0,16l.25.18A3.61,3.61,0,0,0,4,16.54L17.41,10ZM20.46,1.7a2.15,2.15,0,1,1-2.15,2.14A2.14,2.14,0,0,1,20.46,1.7Zm-6.83,8.94a.68.68,0,1,1,.68-.67A.68.68,0,0,1,13.63,10.64Z" transform="translate(0 0)"/><path class="cls-1" d="M13,7.72,4,3.24a3.43,3.43,0,0,0-3.59.32L0,3.86,9.84,9.53Z" transform="translate(0 0)"/><path class="cls-1" d="M20.51,12a4.18,4.18,0,0,0-1.07.14,2.31,2.31,0,0,1-2.11-1.51l-3.06,1.51,2.88,1.69A4,4,0,0,0,16.51,16a4,4,0,1,0,4-4Zm0,6.11A2.11,2.11,0,1,1,22.62,16,2.1,2.1,0,0,1,20.51,18.1Z" transform="translate(0 0)"/></svg>