<svg id="레이어_1" data-name="레이어 1" xmlns="http://www.w3.org/2000/svg" viewBox="0 0 20 20"><defs><style>.cls-1{fill:#dee1e9;}</style></defs><path class="cls-1" d="M15.64,0H4.36A4.36,4.36,0,0,0,0,4.36V15.64A4.36,4.36,0,0,0,4.36,20H15.64A4.36,4.36,0,0,0,20,15.64V4.36A4.36,4.36,0,0,0,15.64,0ZM10,18.65,8.06,16.36H12Zm2.8-3.27H7.22l-2.15-2.5H15ZM15,12H5.07V2.12H15Z"/><polygon class="cls-1" points="9.34 6.94 10.76 8.91 12.13 8.91 12.13 5.07 10.76 5.07 10.76 7.06 9.34 5.07 7.97 5.07 7.97 8.91 9.34 8.91 9.34 6.94"/></svg>